# Blender 4.1.1
# www.blender.org
mtllib barillère.mtl
o BézierCurve
v -1.046038 0.002838 1.026625
v -1.034148 0.002921 1.035569
v -1.019663 0.002952 1.036967
v -1.006463 0.002921 1.030444
v -0.998086 0.002838 1.017750
v -0.996777 0.002724 1.002284
v -1.002886 0.002610 0.988191
v -1.014776 0.002527 0.979248
v -1.029261 0.002496 0.977850
v -1.042461 0.002527 0.984372
v -1.050838 0.002610 0.997067
v -1.052147 0.002724 1.012533
v -1.045945 0.147476 1.025681
v -1.034055 0.147492 1.034625
v -1.019570 0.147458 1.036023
v -1.006370 0.147384 1.029501
v -0.997993 0.147290 1.016807
v -0.996684 0.147200 1.001341
v -1.002792 0.147138 0.987248
v -1.014683 0.147123 0.978304
v -1.029168 0.147156 0.976906
v -1.042368 0.147230 0.983428
v -1.050744 0.147325 0.996122
v -1.052054 0.147415 1.011588
v -1.045364 0.280670 1.025065
v -1.033474 0.280619 1.034009
v -1.018988 0.280522 1.035408
v -1.005789 0.280405 1.028886
v -0.997413 0.280299 1.016191
v -0.996103 0.280232 1.000725
v -1.002211 0.280223 0.986632
v -1.014101 0.280274 0.977688
v -1.028586 0.280371 0.976289
v -1.041786 0.280489 0.982811
v -1.050162 0.280595 0.995506
v -1.051472 0.280661 1.010972
v -1.044388 0.402204 1.024729
v -1.032499 0.402087 1.033674
v -1.018014 0.401928 1.035073
v -1.004815 0.401768 1.028551
v -0.996439 0.401651 1.015856
v -0.995129 0.401607 1.000390
v -1.001237 0.401650 0.986297
v -1.013126 0.401767 0.977353
v -1.027611 0.401926 0.975954
v -1.040810 0.402086 0.982475
v -1.049187 0.402203 0.995170
v -1.050497 0.402246 1.010636
v -1.043114 0.511863 1.024628
v -1.031225 0.511681 1.033572
v -1.016741 0.511460 1.034971
v -1.003543 0.511259 1.028450
v -0.995166 0.511131 1.015755
v -0.993856 0.511110 1.000289
v -0.999964 0.511203 0.986196
v -1.011852 0.511384 0.977251
v -1.026336 0.511606 0.975852
v -1.039535 0.511807 0.982374
v -1.047912 0.511935 0.995069
v -1.049222 0.511955 1.010535
v -1.041635 0.609431 1.024714
v -1.029748 0.609186 1.033658
v -1.015265 0.608905 1.035057
v -1.002067 0.608662 1.028535
v -0.993690 0.608523 1.015841
v -0.992380 0.608526 1.000375
v -0.998487 0.608668 0.986281
v -1.010374 0.608913 0.977337
v -1.024857 0.609194 0.975938
v -1.038055 0.609437 0.982460
v -1.046432 0.609576 0.995154
v -1.047742 0.609574 1.010620
v -1.040046 0.694694 1.024940
v -1.028160 0.694387 1.033884
v -1.013678 0.694046 1.035283
v -1.000481 0.693763 1.028761
v -0.992105 0.693614 1.016067
v -0.990794 0.693638 1.000601
v -0.996900 0.693829 0.986507
v -1.008786 0.694137 0.977563
v -1.023268 0.694477 0.976165
v -1.036465 0.694760 0.982686
v -1.044842 0.694910 0.995381
v -1.046152 0.694886 1.010847
v -1.038442 0.767437 1.025260
v -1.026557 0.767069 1.034204
v -1.012077 0.766670 1.035602
v -0.998880 0.766347 1.029080
v -0.990504 0.766187 1.016386
v -0.989193 0.766233 1.000920
v -0.995298 0.766472 0.986827
v -1.007183 0.766841 0.977883
v -1.021664 0.767240 0.976485
v -1.034860 0.767563 0.983007
v -1.043236 0.767722 0.995701
v -1.044547 0.767677 1.011167
v -1.036918 0.827445 1.025627
v -1.025034 0.827016 1.034570
v -1.010555 0.826560 1.035969
v -0.997360 0.826198 1.029446
v -0.988984 0.826028 1.016752
v -0.987672 0.826095 1.001286
v -0.993776 0.826381 0.987193
v -1.005659 0.826810 0.978250
v -1.020139 0.827266 0.976852
v -1.033334 0.827628 0.983374
v -1.041709 0.827798 0.996068
v -1.043021 0.827731 1.011534
v -1.035566 0.874502 1.025994
v -1.023685 0.874014 1.034937
v -1.009207 0.873501 1.036335
v -0.996013 0.873101 1.029812
v -0.987637 0.872921 1.017117
v -0.986325 0.873009 1.001652
v -0.992427 0.873342 0.987559
v -1.004309 0.873830 0.978616
v -1.018787 0.874342 0.977219
v -1.031981 0.874742 0.983741
v -1.040356 0.874922 0.996436
v -1.041669 0.874834 1.011901
v -1.034484 0.908393 1.026314
v -1.022604 0.907847 1.035257
v -1.008128 0.907280 1.036654
v -0.994935 0.906842 1.030131
v -0.986560 0.906653 1.017436
v -0.985247 0.906761 1.001971
v -0.991348 0.907138 0.987879
v -1.003228 0.907684 0.978936
v -1.017704 0.908251 0.977539
v -1.030897 0.908689 0.984062
v -1.039272 0.908879 0.996757
v -1.040585 0.908770 1.012222
v -1.033764 0.928901 1.026541
v -1.021886 0.928301 1.035483
v -1.007412 0.927683 1.036879
v -0.994220 0.927211 1.030356
v -0.985846 0.927011 1.017661
v -0.984532 0.927139 1.002196
v -0.990631 0.927559 0.988104
v -1.002509 0.928158 0.979163
v -1.016983 0.928777 0.977766
v -1.030175 0.929249 0.984289
v -1.038550 0.929448 0.996984
v -1.039864 0.929320 1.012449
v -1.026890 0.951484 1.026816
v -1.018659 0.942220 1.035654
v -1.008626 0.931048 1.036923
v -0.999481 0.920962 1.030284
v -0.993674 0.914663 1.017515
v -0.992760 0.913840 1.002038
v -0.996985 0.918714 0.988001
v -1.005216 0.927978 0.979163
v -1.015248 0.939149 0.977894
v -1.024393 0.949236 0.984533
v -1.030201 0.955535 0.997302
v -1.031115 0.956357 1.012778
v -0.991857 0.957904 1.026896
v -0.991859 0.945104 1.035690
v -0.991861 0.929623 1.036905
v -0.991863 0.915608 1.030217
v -0.991864 0.906815 1.017417
v -0.991864 0.905599 1.001935
v -0.991863 0.912288 0.987920
v -0.991862 0.925087 0.979127
v -0.991860 0.940569 0.977912
v -0.991858 0.954584 0.984600
v -0.991857 0.963377 0.997400
v -0.991856 0.964592 1.012881
v -0.936350 0.957896 1.026896
v -0.936352 0.945096 1.035690
v -0.936354 0.929614 1.036905
v -0.936356 0.915599 1.030217
v -0.936357 0.906806 1.017417
v -0.936357 0.905591 1.001935
v -0.936356 0.912279 0.987920
v -0.936354 0.925079 0.979127
v -0.936352 0.940560 0.977912
v -0.936350 0.954575 0.984600
v -0.936349 0.963369 0.997400
v -0.936349 0.964584 1.012881
v -0.852499 0.957883 1.026896
v -0.852500 0.945083 1.035690
v -0.852503 0.929602 1.036905
v -0.852504 0.915587 1.030217
v -0.852506 0.906793 1.017417
v -0.852506 0.905578 1.001935
v -0.852505 0.912266 0.987920
v -0.852503 0.925066 0.979127
v -0.852501 0.940547 0.977912
v -0.852499 0.954563 0.984600
v -0.852498 0.963356 0.997400
v -0.852498 0.964571 1.012881
v -0.747389 0.957867 1.026896
v -0.747391 0.945067 1.035690
v -0.747393 0.929586 1.036905
v -0.747395 0.915571 1.030217
v -0.747396 0.906777 1.017417
v -0.747396 0.905562 1.001935
v -0.747395 0.912250 0.987920
v -0.747394 0.925050 0.979127
v -0.747391 0.940531 0.977912
v -0.747390 0.954546 0.984600
v -0.747388 0.963340 0.997400
v -0.747388 0.964555 1.012881
v -0.628108 0.957849 1.026896
v -0.628109 0.945049 1.035690
v -0.628111 0.929567 1.036905
v -0.628113 0.915552 1.030217
v -0.628115 0.906759 1.017417
v -0.628115 0.905544 1.001935
v -0.628114 0.912232 0.987920
v -0.628112 0.925032 0.979127
v -0.628110 0.940513 0.977912
v -0.628108 0.954528 0.984600
v -0.628107 0.963322 0.997400
v -0.628107 0.964537 1.012881
v -0.501740 0.957829 1.026896
v -0.501742 0.945030 1.035690
v -0.501744 0.929548 1.036905
v -0.501746 0.915533 1.030217
v -0.501747 0.906740 1.017417
v -0.501747 0.905524 1.001935
v -0.501746 0.912213 0.987920
v -0.501745 0.925012 0.979127
v -0.501742 0.940494 0.977912
v -0.501741 0.954509 0.984600
v -0.501739 0.963302 0.997400
v -0.501739 0.964518 1.012881
v -0.375373 0.957810 1.026896
v -0.375374 0.945010 1.035690
v -0.375376 0.929529 1.036905
v -0.375378 0.915514 1.030217
v -0.375379 0.906720 1.017417
v -0.375380 0.905505 1.001935
v -0.375379 0.912193 0.987920
v -0.375377 0.924993 0.979127
v -0.375375 0.940475 0.977912
v -0.375373 0.954490 0.984600
v -0.375372 0.963283 0.997400
v -0.375372 0.964498 1.012881
v -0.256091 0.957792 1.026896
v -0.256093 0.944992 1.035690
v -0.256095 0.929511 1.036905
v -0.256097 0.915496 1.030217
v -0.256098 0.906702 1.017417
v -0.256098 0.905487 1.001935
v -0.256097 0.912175 0.987920
v -0.256095 0.924975 0.979127
v -0.256093 0.940456 0.977912
v -0.256092 0.954471 0.984600
v -0.256090 0.963265 0.997400
v -0.256090 0.964480 1.012881
v -0.150982 0.957776 1.026896
v -0.150983 0.944976 1.035690
v -0.150985 0.929495 1.036905
v -0.150987 0.915479 1.030217
v -0.150988 0.906686 1.017417
v -0.150989 0.905471 1.001935
v -0.150988 0.912159 0.987920
v -0.150986 0.924959 0.979127
v -0.150984 0.940440 0.977912
v -0.150982 0.954455 0.984600
v -0.150981 0.963249 0.997400
v -0.150981 0.964464 1.012881
v -0.067130 0.957763 1.026896
v -0.067132 0.944963 1.035690
v -0.067134 0.929482 1.036905
v -0.067136 0.915467 1.030217
v -0.067137 0.906673 1.017417
v -0.067137 0.905458 1.001935
v -0.067136 0.912146 0.987920
v -0.067135 0.924946 0.979127
v -0.067133 0.940428 0.977912
v -0.067131 0.954443 0.984600
v -0.067130 0.963236 0.997400
v -0.067129 0.964451 1.012881
v -0.011623 0.957754 1.026896
v -0.011625 0.944955 1.035690
v -0.011627 0.929473 1.036905
v -0.011629 0.915458 1.030217
v -0.011630 0.906665 1.017417
v -0.011630 0.905450 1.001935
v -0.011629 0.912138 0.987920
v -0.011627 0.924938 0.979127
v -0.011625 0.940419 0.977912
v -0.011623 0.954434 0.984600
v -0.011622 0.963227 0.997400
v -0.011622 0.964443 1.012881
v 0.008454 0.957751 1.026896
v 0.008452 0.944952 1.035690
v 0.008450 0.929470 1.036905
v 0.008448 0.915455 1.030217
v 0.008447 0.906662 1.017417
v 0.008447 0.905447 1.001935
v 0.008448 0.912135 0.987920
v 0.008450 0.924935 0.979127
v 0.008452 0.940416 0.977912
v 0.008454 0.954431 0.984600
v 0.008455 0.963224 0.997400
v 0.008455 0.964440 1.012881
v 1.035496 0.002838 1.026625
v 1.023606 0.002921 1.035569
v 1.009120 0.002952 1.036967
v 0.995920 0.002921 1.030444
v 0.987544 0.002838 1.017750
v 0.986234 0.002724 1.002284
v 0.992343 0.002610 0.988191
v 1.004233 0.002527 0.979248
v 1.018719 0.002496 0.977850
v 1.031918 0.002527 0.984372
v 1.040295 0.002610 0.997067
v 1.041605 0.002724 1.012533
v 1.035402 0.147476 1.025681
v 1.023512 0.147492 1.034625
v 1.009027 0.147458 1.036023
v 0.995827 0.147384 1.029501
v 0.987450 0.147290 1.016807
v 0.986141 0.147200 1.001341
v 0.992250 0.147138 0.987248
v 1.004140 0.147123 0.978304
v 1.018625 0.147156 0.976906
v 1.031825 0.147230 0.983428
v 1.040202 0.147325 0.996122
v 1.041511 0.147415 1.011588
v 1.034821 0.280670 1.025065
v 1.022931 0.280619 1.034009
v 1.008446 0.280522 1.035408
v 0.995246 0.280405 1.028886
v 0.986870 0.280299 1.016191
v 0.985560 0.280232 1.000725
v 0.991669 0.280223 0.986632
v 1.003559 0.280274 0.977688
v 1.018044 0.280371 0.976289
v 1.031243 0.280489 0.982811
v 1.039620 0.280595 0.995506
v 1.040929 0.280661 1.010972
v 1.033846 0.402204 1.024729
v 1.021956 0.402087 1.033674
v 1.007472 0.401928 1.035073
v 0.994273 0.401768 1.028551
v 0.985896 0.401651 1.015856
v 0.984586 0.401607 1.000390
v 0.990694 0.401650 0.986297
v 1.002584 0.401767 0.977353
v 1.017068 0.401926 0.975954
v 1.030267 0.402086 0.982475
v 1.038644 0.402203 0.995170
v 1.039954 0.402246 1.010636
v 1.032571 0.511863 1.024628
v 1.020683 0.511681 1.033572
v 1.006199 0.511460 1.034971
v 0.993000 0.511259 1.028450
v 0.984624 0.511131 1.015755
v 0.983314 0.511110 1.000289
v 0.989421 0.511203 0.986196
v 1.001310 0.511384 0.977251
v 1.015794 0.511606 0.975852
v 1.028992 0.511807 0.982374
v 1.037369 0.511935 0.995069
v 1.038679 0.511955 1.010535
v 1.031093 0.609431 1.024714
v 1.019205 0.609186 1.033658
v 1.004722 0.608905 1.035057
v 0.991524 0.608662 1.028535
v 0.983148 0.608523 1.015841
v 0.981837 0.608526 1.000375
v 0.987944 0.608668 0.986281
v 0.999832 0.608913 0.977337
v 1.014315 0.609194 0.975938
v 1.027513 0.609437 0.982460
v 1.035889 0.609576 0.995154
v 1.037199 0.609574 1.010620
v 1.029504 0.694694 1.024940
v 1.017617 0.694387 1.033884
v 1.003135 0.694046 1.035283
v 0.989938 0.693763 1.028761
v 0.981562 0.693614 1.016067
v 0.980251 0.693638 1.000601
v 0.986357 0.693829 0.986507
v 0.998244 0.694137 0.977563
v 1.012726 0.694477 0.976165
v 1.025923 0.694760 0.982686
v 1.034299 0.694910 0.995381
v 1.035610 0.694886 1.010847
v 1.027900 0.767437 1.025260
v 1.016015 0.767069 1.034204
v 1.001534 0.766670 1.035602
v 0.988338 0.766347 1.029080
v 0.979962 0.766187 1.016386
v 0.978651 0.766233 1.000920
v 0.984755 0.766472 0.986827
v 0.996640 0.766841 0.977883
v 1.011121 0.767240 0.976485
v 1.024317 0.767563 0.983007
v 1.032693 0.767722 0.995701
v 1.034005 0.767677 1.011167
v 1.026375 0.827445 1.025627
v 1.014491 0.827016 1.034570
v 1.000012 0.826560 1.035969
v 0.986817 0.826198 1.029446
v 0.978441 0.826028 1.016752
v 0.977129 0.826095 1.001286
v 0.983233 0.826381 0.987193
v 0.995116 0.826810 0.978250
v 1.009596 0.827266 0.976852
v 1.022791 0.827628 0.983374
v 1.031167 0.827798 0.996068
v 1.032478 0.827731 1.011534
v 1.025024 0.874502 1.025994
v 1.013142 0.874014 1.034937
v 0.998664 0.873501 1.036335
v 0.985470 0.873101 1.029812
v 0.977095 0.872921 1.017117
v 0.975782 0.873009 1.001652
v 0.981885 0.873342 0.987559
v 0.993766 0.873830 0.978616
v 1.008244 0.874342 0.977219
v 1.021438 0.874742 0.983741
v 1.029814 0.874922 0.996436
v 1.031126 0.874834 1.011901
v 1.023941 0.908393 1.026314
v 1.012061 0.907847 1.035257
v 0.997585 0.907280 1.036654
v 0.984392 0.906842 1.030131
v 0.976017 0.906653 1.017436
v 0.974704 0.906761 1.001971
v 0.980805 0.907138 0.987879
v 0.992685 0.907684 0.978936
v 1.007161 0.908251 0.977539
v 1.020354 0.908689 0.984062
v 1.028729 0.908879 0.996757
v 1.030042 0.908770 1.012222
v 1.023222 0.928901 1.026541
v 1.011344 0.928301 1.035483
v 0.996869 0.927683 1.036879
v 0.983678 0.927211 1.030356
v 0.975303 0.927011 1.017661
v 0.973989 0.927139 1.002196
v 0.980089 0.927559 0.988104
v 0.991967 0.928158 0.979163
v 1.006441 0.928777 0.977766
v 1.019633 0.929249 0.984289
v 1.028007 0.929448 0.996984
v 1.029321 0.929320 1.012449
v 1.016347 0.951484 1.026816
v 1.008116 0.942220 1.035654
v 0.998084 0.931048 1.036923
v 0.988939 0.920962 1.030284
v 0.983131 0.914663 1.017515
v 0.982217 0.913840 1.002038
v 0.986442 0.918714 0.988001
v 0.994673 0.927978 0.979163
v 1.004706 0.939149 0.977894
v 1.013851 0.949236 0.984533
v 1.019658 0.955535 0.997302
v 1.020572 0.956357 1.012778
v 0.981315 0.957904 1.026896
v 0.981316 0.945104 1.035690
v 0.981318 0.929623 1.036905
v 0.981320 0.915608 1.030217
v 0.981321 0.906815 1.017417
v 0.981322 0.905599 1.001935
v 0.981321 0.912288 0.987920
v 0.981319 0.925087 0.979127
v 0.981317 0.940569 0.977912
v 0.981315 0.954584 0.984600
v 0.981314 0.963377 0.997400
v 0.981314 0.964592 1.012881
v 0.925807 0.957896 1.026896
v 0.925809 0.945096 1.035690
v 0.925811 0.929614 1.036905
v 0.925813 0.915599 1.030217
v 0.925814 0.906806 1.017417
v 0.925814 0.905591 1.001935
v 0.925813 0.912279 0.987920
v 0.925812 0.925079 0.979127
v 0.925810 0.940560 0.977912
v 0.925808 0.954575 0.984600
v 0.925807 0.963369 0.997400
v 0.925806 0.964584 1.012881
v 0.841956 0.957883 1.026896
v 0.841958 0.945083 1.035690
v 0.841960 0.929602 1.036905
v 0.841962 0.915587 1.030217
v 0.841963 0.906793 1.017417
v 0.841963 0.905578 1.001935
v 0.841962 0.912266 0.987920
v 0.841960 0.925066 0.979127
v 0.841958 0.940547 0.977912
v 0.841956 0.954563 0.984600
v 0.841955 0.963356 0.997400
v 0.841955 0.964571 1.012881
v 0.736847 0.957867 1.026896
v 0.736848 0.945067 1.035690
v 0.736850 0.929586 1.036905
v 0.736852 0.915571 1.030217
v 0.736853 0.906777 1.017417
v 0.736853 0.905562 1.001935
v 0.736853 0.912250 0.987920
v 0.736851 0.925050 0.979127
v 0.736849 0.940531 0.977912
v 0.736847 0.954546 0.984600
v 0.736846 0.963340 0.997400
v 0.736846 0.964555 1.012881
v 0.617565 0.957849 1.026896
v 0.617567 0.945049 1.035690
v 0.617569 0.929567 1.036905
v 0.617571 0.915552 1.030217
v 0.617572 0.906759 1.017417
v 0.617572 0.905544 1.001935
v 0.617571 0.912232 0.987920
v 0.617569 0.925032 0.979127
v 0.617567 0.940513 0.977912
v 0.617565 0.954528 0.984600
v 0.617564 0.963322 0.997400
v 0.617564 0.964537 1.012881
v 0.491197 0.957829 1.026896
v 0.491199 0.945030 1.035690
v 0.491201 0.929548 1.036905
v 0.491203 0.915533 1.030217
v 0.491204 0.906740 1.017417
v 0.491204 0.905524 1.001935
v 0.491203 0.912213 0.987920
v 0.491202 0.925012 0.979127
v 0.491200 0.940494 0.977912
v 0.491198 0.954509 0.984600
v 0.491197 0.963302 0.997400
v 0.491197 0.964518 1.012881
v 0.364830 0.957810 1.026896
v 0.364832 0.945010 1.035690
v 0.364834 0.929529 1.036905
v 0.364836 0.915514 1.030217
v 0.364837 0.906720 1.017417
v 0.364837 0.905505 1.001935
v 0.364836 0.912193 0.987920
v 0.364834 0.924993 0.979127
v 0.364832 0.940475 0.977912
v 0.364830 0.954490 0.984600
v 0.364829 0.963283 0.997400
v 0.364829 0.964498 1.012881
v 0.245548 0.957792 1.026896
v 0.245550 0.944992 1.035690
v 0.245552 0.929511 1.036905
v 0.245554 0.915496 1.030217
v 0.245555 0.906702 1.017417
v 0.245555 0.905487 1.001935
v 0.245554 0.912175 0.987920
v 0.245553 0.924975 0.979127
v 0.245551 0.940456 0.977912
v 0.245549 0.954471 0.984600
v 0.245548 0.963265 0.997400
v 0.245547 0.964480 1.012881
v 0.140439 0.957776 1.026896
v 0.140441 0.944976 1.035690
v 0.140443 0.929495 1.036905
v 0.140445 0.915479 1.030217
v 0.140446 0.906686 1.017417
v 0.140446 0.905471 1.001935
v 0.140445 0.912159 0.987920
v 0.140443 0.924959 0.979127
v 0.140441 0.940440 0.977912
v 0.140439 0.954455 0.984600
v 0.140438 0.963249 0.997400
v 0.140438 0.964464 1.012881
v 0.056588 0.957763 1.026896
v 0.056589 0.944963 1.035690
v 0.056591 0.929482 1.036905
v 0.056593 0.915467 1.030217
v 0.056594 0.906673 1.017417
v 0.056595 0.905458 1.001935
v 0.056594 0.912146 0.987920
v 0.056592 0.924946 0.979127
v 0.056590 0.940428 0.977912
v 0.056588 0.954443 0.984600
v 0.056587 0.963236 0.997400
v 0.056587 0.964451 1.012881
v 0.001080 0.957754 1.026896
v 0.001082 0.944955 1.035690
v 0.001084 0.929473 1.036905
v 0.001086 0.915458 1.030217
v 0.001087 0.906665 1.017417
v 0.001087 0.905450 1.001935
v 0.001086 0.912138 0.987920
v 0.001085 0.924938 0.979127
v 0.001083 0.940419 0.977912
v 0.001081 0.954434 0.984600
v 0.001080 0.963227 0.997400
v 0.001079 0.964443 1.012881
v -0.018997 0.957751 1.026896
v -0.018995 0.944952 1.035690
v -0.018993 0.929470 1.036905
v -0.018991 0.915455 1.030217
v -0.018990 0.906662 1.017417
v -0.018990 0.905447 1.001935
v -0.018991 0.912135 0.987920
v -0.018992 0.924935 0.979127
v -0.018994 0.940416 0.977912
v -0.018996 0.954431 0.984600
v -0.018997 0.963224 0.997400
v -0.018998 0.964440 1.012881
v 1.017066 0.418162 1.004593
v -1.020067 0.418217 1.004593
v 1.020069 0.477359 1.004593
v -1.017064 0.477414 1.004593
v 1.020769 0.447760 1.004593
v -1.020765 0.447815 1.004593
v 1.018567 0.447760 1.034191
v -1.018566 0.447815 1.034191
v 1.018567 0.447760 0.974994
v -1.018566 0.447815 0.974994
v -1.021794 0.469623 1.026400
v 1.024008 0.469567 1.026400
v -1.021794 0.469623 0.982786
v 1.024008 0.469567 0.982786
v -1.024007 0.426008 1.026400
v 1.021796 0.425953 1.026400
v -1.024007 0.426008 0.982786
v 1.021796 0.425953 0.982786
v 1.018916 0.432961 1.004593
v -1.020418 0.433016 1.004593
v -1.018469 0.435910 1.031413
v 1.017260 0.435855 0.977773
v -1.018469 0.435910 0.977773
v 1.017260 0.435855 1.031413
v -1.018918 0.462615 1.004593
v 1.020418 0.462559 1.004593
v 1.018468 0.459666 1.031413
v -1.017261 0.459721 0.977773
v 1.018468 0.459666 0.977773
v -1.017261 0.459721 1.031413
v 1.016503 0.420940 1.016498
v -1.016505 0.474635 1.016498
v 1.019667 0.447760 1.019392
v -1.019668 0.447815 1.019392
v 1.019225 0.474580 1.016498
v -1.019225 0.420995 1.016498
v -1.020342 0.434509 1.017899
v 1.018992 0.434454 1.017899
v 1.020342 0.461066 1.017899
v -1.018993 0.461122 1.017899
v -1.019225 0.420995 0.992687
v 1.019225 0.474580 0.992687
v -1.019668 0.447815 0.989794
v 1.019667 0.447760 0.989794
v -1.016505 0.474635 0.992687
v 1.016503 0.420940 0.992687
v -1.020342 0.434509 0.991286
v 1.018992 0.434454 0.991286
v 1.020342 0.461066 0.991286
v -1.018993 0.461122 0.991286
v 1.021459 0.690515 1.004593
v -1.015674 0.690570 1.004593
v 1.024462 0.749712 1.004593
v -1.012671 0.749767 1.004593
v 1.025162 0.720113 1.004593
v -1.016372 0.720169 1.004593
v 1.022960 0.720114 1.034191
v -1.014174 0.720169 1.034191
v 1.022960 0.720114 0.974994
v -1.014174 0.720169 0.974994
v -1.017402 0.741976 1.026400
v 1.028401 0.741921 1.026400
v -1.017402 0.741976 0.982786
v 1.028401 0.741921 0.982786
v -1.019614 0.698362 1.026400
v 1.026189 0.698306 1.026400
v -1.019614 0.698362 0.982786
v 1.026189 0.698306 0.982786
v 1.023309 0.705314 1.004593
v -1.016025 0.705370 1.004593
v -1.014076 0.708263 1.031413
v 1.021653 0.708208 0.977773
v -1.014076 0.708263 0.977773
v 1.021653 0.708208 1.031413
v -1.014525 0.734968 1.004593
v 1.024811 0.734913 1.004593
v 1.022861 0.732019 1.031413
v -1.012868 0.732074 0.977773
v 1.022861 0.732019 0.977773
v -1.012868 0.732074 1.031413
v 1.020896 0.693294 1.016499
v -1.012112 0.746989 1.016499
v 1.024060 0.720114 1.019392
v -1.015275 0.720169 1.019392
v 1.023618 0.746934 1.016499
v -1.014832 0.693349 1.016499
v -1.015950 0.706862 1.017899
v 1.023384 0.706807 1.017899
v 1.024735 0.733420 1.017899
v -1.014600 0.733475 1.017899
v -1.014832 0.693349 0.992687
v 1.023618 0.746934 0.992687
v -1.015275 0.720169 0.989794
v 1.024060 0.720114 0.989794
v -1.012112 0.746989 0.992687
v 1.020896 0.693294 0.992687
v -1.015950 0.706862 0.991286
v 1.023384 0.706807 0.991286
v 1.024735 0.733420 0.991286
v -1.014600 0.733475 0.991286
v -0.015450 -0.016844 1.004593
v -0.034987 0.939918 1.004593
v 0.043773 -0.017987 1.004593
v 0.024236 0.938775 1.004593
v 0.014182 -0.018449 1.004593
v -0.005397 0.940380 1.004593
v 0.014161 -0.017415 1.034191
v -0.005376 0.939347 1.034191
v 0.014161 -0.017415 0.974994
v -0.005376 0.939347 0.974994
v 0.016400 0.940962 1.026400
v 0.036020 -0.019872 1.026400
v 0.016400 0.940962 0.982786
v 0.036020 -0.019872 0.982786
v -0.027234 0.941804 1.026400
v -0.007614 -0.019030 1.026400
v -0.027234 0.941804 0.982786
v -0.007614 -0.019030 0.982786
v -0.000634 -0.017646 1.004593
v -0.020192 0.940150 1.004593
v -0.017280 0.939248 1.031413
v 0.002244 -0.016855 0.977773
v -0.017280 0.939248 0.977773
v 0.002244 -0.016855 1.031413
v 0.009420 0.939579 1.004593
v 0.028978 -0.018218 1.004593
v 0.026065 -0.017315 1.031413
v 0.006542 0.938788 0.977773
v 0.026065 -0.017315 0.977773
v 0.006542 0.938788 1.031413
v -0.012677 -0.016567 1.016498
v 0.021463 0.938500 1.016498
v 0.014172 -0.017932 1.019392
v -0.005386 0.939865 1.019392
v 0.040986 -0.017603 1.016498
v -0.032201 0.939536 1.016498
v -0.018698 0.940121 1.017899
v 0.000859 -0.017675 1.017899
v 0.027484 -0.018189 1.017899
v 0.007926 0.939608 1.017899
v -0.032201 0.939536 0.992687
v 0.040986 -0.017603 0.992687
v -0.005386 0.939865 0.989794
v 0.014172 -0.017932 0.989794
v 0.021463 0.938500 0.992687
v -0.012677 -0.016567 0.992687
v -0.018698 0.940121 0.991286
v 0.000859 -0.017675 0.991286
v 0.027484 -0.018189 0.991286
v 0.007926 0.939608 0.991286
v 0.340412 0.753654 1.029327
v 0.340412 0.426362 1.029327
v 0.340412 0.753654 1.047413
v 0.340412 0.426362 1.047413
v -0.340412 0.753654 1.029327
v -0.340412 0.426362 1.029327
v -0.340412 0.753654 1.047413
v -0.340412 0.426362 1.047413
vn -0.7882 0.0045 0.6154
vn -0.3654 0.0063 0.9308
vn 0.1817 0.0063 0.9833
vn 0.6650 0.0044 0.7468
vn 0.9456 0.0015 0.3252
vn 0.9870 -0.0017 -0.1604
vn 0.7878 -0.0045 -0.6159
vn 0.3647 -0.0063 -0.9311
vn -0.1823 -0.0063 -0.9832
vn -0.6652 -0.0044 -0.7466
vn -0.9456 -0.0015 -0.3253
vn -0.9871 0.0017 0.1601
vn -0.7882 0.0054 0.6154
vn -0.3654 0.0061 0.9308
vn 0.1817 0.0050 0.9833
vn 0.6650 0.0025 0.7469
vn 0.9456 -0.0006 0.3252
vn 0.9870 -0.0034 -0.1604
vn 0.7878 -0.0054 -0.6159
vn 0.3647 -0.0061 -0.9311
vn -0.1823 -0.0050 -0.9832
vn -0.6652 -0.0025 -0.7467
vn -0.9456 0.0006 -0.3253
vn -0.9871 0.0034 0.1601
vn -0.7882 0.0072 0.6154
vn -0.3654 0.0057 0.9308
vn 0.1817 0.0025 0.9834
vn 0.6650 -0.0014 0.7469
vn 0.9456 -0.0047 0.3253
vn 0.9870 -0.0067 -0.1604
vn 0.7878 -0.0072 -0.6159
vn 0.3647 -0.0057 -0.9311
vn -0.1823 -0.0025 -0.9832
vn -0.6652 0.0014 -0.7467
vn -0.9456 0.0047 -0.3253
vn -0.9871 0.0067 0.1600
vn -0.7882 0.0089 0.6154
vn -0.3654 0.0053 0.9308
vn 0.1817 -0.0000 0.9834
vn 0.6649 -0.0052 0.7469
vn 0.9456 -0.0087 0.3253
vn 0.9870 -0.0100 -0.1604
vn 0.7878 -0.0089 -0.6159
vn 0.3647 -0.0053 -0.9311
vn -0.1823 -0.0000 -0.9833
vn -0.6652 0.0052 -0.7467
vn -0.9456 0.0087 -0.3253
vn -0.9871 0.0100 0.1600
vn -0.7881 0.0106 0.6154
vn -0.3654 0.0049 0.9308
vn 0.1816 -0.0024 0.9834
vn 0.6649 -0.0089 0.7469
vn 0.9455 -0.0127 0.3253
vn 0.9870 -0.0132 -0.1604
vn 0.7878 -0.0106 -0.6159
vn 0.3647 -0.0049 -0.9311
vn -0.1822 0.0024 -0.9833
vn -0.6651 0.0089 -0.7467
vn -0.9455 0.0127 -0.3253
vn -0.9870 0.0132 0.1600
vn -0.7881 0.0122 0.6154
vn -0.3654 0.0045 0.9308
vn 0.1816 -0.0048 0.9834
vn 0.6648 -0.0126 0.7469
vn 0.9455 -0.0165 0.3253
vn 0.9869 -0.0164 -0.1604
vn 0.7877 -0.0122 -0.6159
vn 0.3647 -0.0045 -0.9311
vn -0.1822 0.0048 -0.9833
vn -0.6650 0.0126 -0.7467
vn -0.9455 0.0165 -0.3253
vn -0.9870 0.0164 0.1600
vn -0.7881 0.0139 0.6154
vn -0.3654 0.0042 0.9308
vn 0.1816 -0.0072 0.9834
vn 0.6648 -0.0162 0.7469
vn 0.9454 -0.0204 0.3253
vn 0.9869 -0.0195 -0.1604
vn 0.7877 -0.0139 -0.6159
vn 0.3647 -0.0041 -0.9311
vn -0.1821 0.0072 -0.9833
vn -0.6650 0.0162 -0.7467
vn -0.9454 0.0204 -0.3253
vn -0.9869 0.0195 0.1601
vn -0.7880 0.0155 0.6154
vn -0.3654 0.0038 0.9308
vn 0.1815 -0.0095 0.9833
vn 0.6647 -0.0197 0.7469
vn 0.9453 -0.0241 0.3253
vn 0.9868 -0.0226 -0.1604
vn 0.7877 -0.0155 -0.6159
vn 0.3648 -0.0038 -0.9311
vn -0.1821 0.0095 -0.9832
vn -0.6649 0.0197 -0.7467
vn -0.9453 0.0241 -0.3253
vn -0.9868 0.0226 0.1601
vn -0.7880 0.0170 0.6154
vn -0.3654 0.0034 0.9308
vn 0.1814 -0.0117 0.9833
vn 0.6646 -0.0232 0.7468
vn 0.9452 -0.0278 0.3252
vn 0.9867 -0.0256 -0.1604
vn 0.7876 -0.0170 -0.6159
vn 0.3648 -0.0034 -0.9311
vn -0.1820 0.0118 -0.9832
vn -0.6648 0.0232 -0.7467
vn -0.9452 0.0278 -0.3253
vn -0.9868 0.0256 0.1601
vn -0.7879 0.0186 0.6155
vn -0.3654 0.0031 0.9308
vn 0.1814 -0.0140 0.9833
vn 0.6645 -0.0266 0.7468
vn 0.9451 -0.0315 0.3252
vn 0.9866 -0.0285 -0.1605
vn 0.7876 -0.0186 -0.6159
vn 0.3648 -0.0030 -0.9311
vn -0.1819 0.0140 -0.9832
vn -0.6647 0.0266 -0.7467
vn -0.9451 0.0315 -0.3253
vn -0.9867 0.0285 0.1601
vn -0.7879 0.0201 0.6155
vn -0.3654 0.0027 0.9308
vn 0.1813 -0.0162 0.9833
vn 0.6644 -0.0299 0.7468
vn 0.9450 -0.0350 0.3252
vn 0.9865 -0.0314 -0.1605
vn 0.7876 -0.0201 -0.6159
vn 0.3648 -0.0027 -0.9311
vn -0.1818 0.0162 -0.9832
vn -0.6646 0.0299 -0.7466
vn -0.9450 0.0350 -0.3252
vn -0.9866 0.0314 0.1602
vn -0.7930 0.1249 0.5963
vn -0.3869 0.0479 0.9209
vn -0.0092 0.3559 0.9345
vn 0.2881 0.8992 0.3294
vn 0.4350 0.8867 0.1566
vn 0.4610 0.8852 -0.0625
vn 0.3438 0.9037 -0.2553
vn -0.0223 0.7443 -0.6675
vn -0.1936 0.0497 -0.9798
vn -0.6778 0.1185 -0.7257
vn -0.9367 0.1624 -0.3103
vn -0.9742 0.1640 0.1548
vn -0.5376 0.5732 0.6185
vn -0.2761 0.2951 0.9147
vn -0.1034 0.0184 0.9945
vn -0.9857 -0.1248 0.1136
vn -0.9948 0.0185 -0.0997
vn -0.9935 0.0937 0.0643
vn -0.9879 -0.1545 0.0113
vn -0.1076 -0.0604 -0.9924
vn -0.1714 0.2112 -0.9623
vn -0.4574 0.5066 -0.7308
vn -0.6446 0.6947 -0.3192
vn -0.6740 0.7188 0.1702
vn -0.0709 0.7752 0.6277
vn -0.0260 0.3547 0.9346
vn -0.0397 -0.2121 0.9764
vn -0.3240 -0.6828 0.6548
vn -0.5480 -0.8001 0.2440
vn -0.5802 -0.8039 -0.1309
vn -0.4326 -0.7343 -0.5231
vn -0.1010 -0.3896 -0.9154
vn -0.0159 0.1935 -0.9810
vn -0.0557 0.6701 -0.7401
vn -0.0916 0.9438 -0.3176
vn -0.0973 0.9799 0.1739
vn 0.0001 0.7603 0.6496
vn 0.0001 0.3336 0.9427
vn -0.0000 -0.1824 0.9832
vn -0.0001 -0.6496 0.7603
vn -0.0001 -0.9427 0.3336
vn -0.0002 -0.9832 -0.1824
vn -0.0001 -0.7603 -0.6496
vn -0.0001 -0.3336 -0.9427
vn -0.0000 0.1824 -0.9832
vn 0.0001 0.6496 -0.7603
vn 0.0001 0.9427 -0.3336
vn 0.0002 0.9832 0.1824
vn 0.7882 0.0045 0.6154
vn 0.3654 0.0063 0.9308
vn -0.1817 0.0063 0.9833
vn -0.6650 0.0044 0.7468
vn -0.9456 0.0015 0.3252
vn -0.9870 -0.0017 -0.1604
vn -0.7878 -0.0045 -0.6159
vn -0.3647 -0.0063 -0.9311
vn 0.1823 -0.0063 -0.9832
vn 0.6652 -0.0044 -0.7466
vn 0.9456 -0.0015 -0.3253
vn 0.9871 0.0017 0.1601
vn 0.7882 0.0054 0.6154
vn 0.3654 0.0061 0.9308
vn -0.1817 0.0050 0.9833
vn -0.6650 0.0025 0.7469
vn -0.9456 -0.0006 0.3252
vn -0.9870 -0.0034 -0.1604
vn -0.7878 -0.0054 -0.6159
vn -0.3647 -0.0061 -0.9311
vn 0.1823 -0.0050 -0.9832
vn 0.6652 -0.0025 -0.7466
vn 0.9456 0.0006 -0.3253
vn 0.9871 0.0034 0.1601
vn 0.7882 0.0072 0.6154
vn 0.3654 0.0057 0.9308
vn -0.1817 0.0025 0.9834
vn -0.6650 -0.0014 0.7469
vn -0.9456 -0.0047 0.3253
vn -0.9870 -0.0067 -0.1604
vn -0.7878 -0.0072 -0.6159
vn -0.3647 -0.0057 -0.9311
vn 0.1823 -0.0025 -0.9832
vn 0.6652 0.0014 -0.7467
vn 0.9456 0.0047 -0.3253
vn 0.9871 0.0067 0.1600
vn 0.7882 0.0089 0.6154
vn 0.3654 0.0053 0.9308
vn -0.1817 -0.0000 0.9834
vn -0.6649 -0.0052 0.7469
vn -0.9456 -0.0087 0.3253
vn -0.9870 -0.0100 -0.1604
vn -0.7878 -0.0089 -0.6159
vn -0.3647 -0.0053 -0.9311
vn 0.1823 -0.0000 -0.9833
vn 0.6652 0.0052 -0.7467
vn 0.9456 0.0087 -0.3253
vn 0.9871 0.0100 0.1600
vn 0.7881 0.0106 0.6154
vn 0.3654 0.0049 0.9308
vn -0.1816 -0.0024 0.9834
vn -0.6649 -0.0089 0.7469
vn -0.9455 -0.0127 0.3253
vn -0.9870 -0.0132 -0.1604
vn -0.7878 -0.0106 -0.6159
vn -0.3647 -0.0049 -0.9311
vn 0.1822 0.0024 -0.9833
vn 0.6651 0.0089 -0.7467
vn 0.9455 0.0127 -0.3253
vn 0.9870 0.0132 0.1600
vn 0.7881 0.0122 0.6154
vn 0.3654 0.0045 0.9308
vn -0.1816 -0.0048 0.9834
vn -0.6648 -0.0126 0.7469
vn -0.9455 -0.0165 0.3253
vn -0.9869 -0.0164 -0.1604
vn -0.7877 -0.0122 -0.6159
vn -0.3647 -0.0045 -0.9311
vn 0.1822 0.0048 -0.9833
vn 0.6650 0.0126 -0.7467
vn 0.9455 0.0165 -0.3253
vn 0.9870 0.0164 0.1600
vn 0.7881 0.0139 0.6154
vn 0.3654 0.0042 0.9308
vn -0.1816 -0.0072 0.9834
vn -0.6648 -0.0162 0.7469
vn -0.9454 -0.0204 0.3253
vn -0.9869 -0.0195 -0.1604
vn -0.7877 -0.0139 -0.6159
vn -0.3647 -0.0041 -0.9311
vn 0.1821 0.0072 -0.9833
vn 0.6650 0.0162 -0.7467
vn 0.9454 0.0204 -0.3253
vn 0.9869 0.0195 0.1601
vn 0.7880 0.0155 0.6154
vn 0.3654 0.0038 0.9308
vn -0.1815 -0.0095 0.9833
vn -0.6647 -0.0197 0.7469
vn -0.9453 -0.0241 0.3253
vn -0.9868 -0.0226 -0.1604
vn -0.7877 -0.0155 -0.6159
vn -0.3648 -0.0038 -0.9311
vn 0.1821 0.0095 -0.9832
vn 0.6649 0.0197 -0.7467
vn 0.9453 0.0241 -0.3253
vn 0.9868 0.0226 0.1601
vn 0.7880 0.0170 0.6154
vn 0.3654 0.0034 0.9308
vn -0.1814 -0.0117 0.9833
vn -0.6646 -0.0232 0.7468
vn -0.9452 -0.0278 0.3252
vn -0.9867 -0.0256 -0.1604
vn -0.7876 -0.0170 -0.6159
vn -0.3648 -0.0034 -0.9311
vn 0.1820 0.0118 -0.9832
vn 0.6648 0.0232 -0.7467
vn 0.9452 0.0278 -0.3253
vn 0.9868 0.0256 0.1601
vn 0.7879 0.0186 0.6155
vn 0.3654 0.0031 0.9308
vn -0.1814 -0.0140 0.9833
vn -0.6645 -0.0266 0.7468
vn -0.9451 -0.0315 0.3252
vn -0.9866 -0.0285 -0.1605
vn -0.7876 -0.0186 -0.6159
vn -0.3648 -0.0030 -0.9311
vn 0.1819 0.0140 -0.9832
vn 0.6647 0.0266 -0.7467
vn 0.9451 0.0315 -0.3253
vn 0.9867 0.0285 0.1601
vn 0.7879 0.0201 0.6155
vn 0.3654 0.0027 0.9308
vn -0.1813 -0.0162 0.9833
vn -0.6644 -0.0299 0.7468
vn -0.9450 -0.0350 0.3252
vn -0.9865 -0.0314 -0.1605
vn -0.7876 -0.0201 -0.6159
vn -0.3648 -0.0027 -0.9311
vn 0.1818 0.0162 -0.9832
vn 0.6646 0.0299 -0.7466
vn 0.9450 0.0350 -0.3252
vn 0.9866 0.0314 0.1602
vn 0.7930 0.1249 0.5963
vn 0.3869 0.0479 0.9209
vn 0.0092 0.3559 0.9345
vn -0.2881 0.8992 0.3294
vn -0.4350 0.8867 0.1566
vn -0.4610 0.8852 -0.0625
vn -0.3438 0.9037 -0.2553
vn 0.0223 0.7443 -0.6675
vn 0.1936 0.0497 -0.9798
vn 0.6778 0.1185 -0.7257
vn 0.9367 0.1624 -0.3103
vn 0.9742 0.1640 0.1548
vn 0.5376 0.5732 0.6185
vn 0.2761 0.2951 0.9147
vn 0.1034 0.0184 0.9945
vn 0.9857 -0.1248 0.1136
vn 0.9948 0.0185 -0.0997
vn 0.9935 0.0937 0.0643
vn 0.9879 -0.1545 0.0113
vn 0.1076 -0.0604 -0.9924
vn 0.1714 0.2112 -0.9623
vn 0.4574 0.5066 -0.7308
vn 0.6446 0.6947 -0.3192
vn 0.6740 0.7188 0.1702
vn 0.0709 0.7752 0.6277
vn 0.0260 0.3547 0.9346
vn 0.0397 -0.2121 0.9764
vn 0.3240 -0.6828 0.6548
vn 0.5480 -0.8001 0.2440
vn 0.5802 -0.8039 -0.1309
vn 0.4326 -0.7343 -0.5231
vn 0.1010 -0.3896 -0.9154
vn 0.0159 0.1935 -0.9810
vn 0.0557 0.6701 -0.7401
vn 0.0916 0.9438 -0.3176
vn 0.0973 0.9799 0.1739
vn -0.0001 0.7603 0.6496
vn -0.0001 0.3336 0.9427
vn 0.0001 -0.6496 0.7603
vn 0.0001 -0.9427 0.3336
vn 0.0002 -0.9832 -0.1824
vn 0.0001 -0.7603 -0.6496
vn 0.0001 -0.3336 -0.9427
vn -0.0001 0.6496 -0.7603
vn -0.0001 0.9427 -0.3336
vn -0.0002 0.9832 0.1824
vn 0.6407 -0.7678 -0.0000
vn -0.6817 -0.7316 -0.0000
vn 0.6818 0.7315 -0.0000
vn -0.6405 0.7679 -0.0000
vn 0.9987 -0.0505 -0.0000
vn -0.9987 0.0504 -0.0000
vn 0.6607 -0.0280 0.7501
vn -0.6606 0.0280 0.7502
vn 0.6607 -0.0280 -0.7501
vn -0.6606 0.0280 -0.7502
vn -0.7923 0.4464 0.4159
vn 0.8129 0.3960 0.4271
vn -0.7923 0.4464 -0.4159
vn 0.8129 0.3960 -0.4271
vn -0.8128 -0.3960 0.4271
vn 0.7923 -0.4464 0.4158
vn -0.8128 -0.3960 -0.4271
vn 0.7923 -0.4464 -0.4158
vn 0.9922 -0.1249 -0.0000
vn -0.9997 -0.0245 -0.0000
vn -0.6491 -0.2219 0.7276
vn 0.6349 -0.2792 -0.7204
vn -0.6491 -0.2219 -0.7276
vn 0.6349 -0.2792 0.7204
vn -0.9922 0.1249 -0.0000
vn 0.9997 0.0246 -0.0000
vn 0.6490 0.2219 0.7277
vn -0.6349 0.2792 -0.7204
vn 0.6490 0.2219 -0.7277
vn -0.6349 0.2792 0.7204
vn 0.6231 -0.7420 0.2473
vn -0.6231 0.7420 0.2473
vn 0.9959 -0.0504 0.0749
vn -0.9959 0.0504 0.0749
vn 0.6617 0.7051 0.2548
vn -0.6617 -0.7051 0.2548
vn -0.9983 0.0573 -0.0068
vn 0.9990 -0.0432 -0.0074
vn 0.9983 -0.0573 -0.0068
vn -0.9990 0.0432 -0.0074
vn -0.6617 -0.7051 -0.2548
vn 0.6617 0.7051 -0.2548
vn -0.9959 0.0504 -0.0749
vn 0.9959 -0.0504 -0.0749
vn -0.6231 0.7420 -0.2473
vn 0.6231 -0.7420 -0.2473
vn -0.9983 0.0573 0.0068
vn 0.9990 -0.0432 0.0074
vn 0.9983 -0.0573 0.0068
vn -0.9990 0.0432 0.0074
vn -0.7923 0.4464 0.4160
vn -0.7923 0.4464 -0.4160
vn -0.7812 -0.6243 -0.0000
vn -0.7832 0.6218 -0.0000
vn 0.7832 -0.6218 -0.0000
vn 0.7812 0.6243 -0.0000
vn -0.0193 -0.9998 -0.0000
vn 0.0193 0.9998 -0.0000
vn -0.0083 -0.6517 0.7585
vn 0.0083 0.6517 0.7585
vn -0.0083 -0.6517 -0.7585
vn 0.0083 0.6517 -0.7585
vn 0.5065 0.7066 0.4941
vn 0.5013 -0.7050 0.5017
vn 0.5065 0.7066 -0.4941
vn 0.5013 -0.7050 -0.5017
vn -0.5013 0.7049 0.5017
vn -0.5065 -0.7067 0.4940
vn -0.5013 0.7049 -0.5017
vn -0.5065 -0.7067 -0.4940
vn -0.0546 -0.9985 -0.0000
vn -0.0161 0.9999 -0.0000
vn -0.2441 0.6536 0.7164
vn -0.2626 -0.6541 -0.7094
vn -0.2441 0.6536 -0.7164
vn -0.2626 -0.6541 0.7094
vn 0.0546 0.9985 -0.0000
vn 0.0162 -0.9999 -0.0000
vn 0.2441 -0.6536 0.7164
vn 0.2626 0.6541 -0.7094
vn 0.2441 -0.6536 -0.7164
vn 0.2626 0.6541 0.7094
vn -0.7307 -0.6326 0.2567
vn 0.7307 0.6326 0.2566
vn -0.0193 -0.9992 0.0353
vn 0.0193 0.9992 0.0352
vn 0.7305 -0.6301 0.2635
vn -0.7305 0.6301 0.2635
vn 0.0235 0.9997 -0.0042
vn -0.0150 -0.9999 -0.0043
vn -0.0235 -0.9997 -0.0042
vn 0.0150 0.9999 -0.0043
vn -0.7305 0.6301 -0.2635
vn 0.7305 -0.6301 -0.2635
vn 0.0193 0.9992 -0.0352
vn -0.0193 -0.9992 -0.0353
vn 0.7307 0.6326 -0.2566
vn -0.7307 -0.6326 -0.2567
vn 0.0235 0.9997 0.0042
vn -0.0150 -0.9999 0.0043
vn -0.0235 -0.9997 0.0042
vn 0.0150 0.9999 0.0043
vn 0.6025 0.5643 -0.5643
vn 0.6025 -0.5643 -0.5643
vn 0.6025 0.5643 0.5643
vn 0.6025 -0.5643 0.5643
vn -0.6025 0.5643 -0.5643
vn -0.6025 -0.5643 -0.5643
vn -0.6025 0.5643 0.5643
vn -0.6025 -0.5643 0.5643
vt 0.212129 0.000499
vt 0.212799 0.067537
vt 0.205605 0.067610
vt 0.204927 0.000559
vt 0.219330 0.000444
vt 0.219995 0.067465
vt 0.226530 0.000387
vt 0.227193 0.067392
vt 0.233729 0.000326
vt 0.234393 0.067320
vt 0.240928 0.000258
vt 0.241594 0.067249
vt 0.248127 0.000180
vt 0.248796 0.067177
vt 0.168919 0.000975
vt 0.169638 0.067986
vt 0.162438 0.068062
vt 0.161718 0.001065
vt 0.176118 0.000882
vt 0.176836 0.067910
vt 0.183319 0.000791
vt 0.184030 0.067834
vt 0.190522 0.000705
vt 0.191223 0.067758
vt 0.197724 0.000627
vt 0.198414 0.067684
vt 0.213427 0.129225
vt 0.206237 0.129298
vt 0.220620 0.129152
vt 0.227814 0.129080
vt 0.235011 0.129008
vt 0.242210 0.128936
vt 0.249408 0.128864
vt 0.170285 0.129671
vt 0.163088 0.129747
vt 0.177479 0.129596
vt 0.184671 0.129521
vt 0.191860 0.129446
vt 0.199048 0.129371
vt 0.213997 0.185485
vt 0.206811 0.185557
vt 0.221186 0.185412
vt 0.228378 0.185340
vt 0.235572 0.185269
vt 0.242767 0.185197
vt 0.249963 0.185127
vt 0.170879 0.185932
vt 0.163685 0.186009
vt 0.178070 0.185856
vt 0.185257 0.185781
vt 0.192443 0.185705
vt 0.199627 0.185631
vt 0.214509 0.236218
vt 0.207329 0.236290
vt 0.221693 0.236146
vt 0.228881 0.236075
vt 0.236071 0.236005
vt 0.243263 0.235935
vt 0.250456 0.235867
vt 0.171421 0.236669
vt 0.164230 0.236748
vt 0.178608 0.236592
vt 0.185791 0.236515
vt 0.192971 0.236439
vt 0.200150 0.236364
vt 0.214959 0.281320
vt 0.207787 0.281391
vt 0.222135 0.281250
vt 0.229316 0.281183
vt 0.236502 0.281117
vt 0.243690 0.281052
vt 0.250880 0.280988
vt 0.171918 0.281783
vt 0.164731 0.281867
vt 0.179099 0.281701
vt 0.186275 0.281620
vt 0.193447 0.281541
vt 0.200617 0.281465
vt 0.215336 0.320664
vt 0.208183 0.320732
vt 0.222494 0.320602
vt 0.229661 0.320547
vt 0.236836 0.320496
vt 0.244018 0.320448
vt 0.251206 0.320402
vt 0.172396 0.321171
vt 0.165214 0.321273
vt 0.179567 0.321073
vt 0.186730 0.320978
vt 0.193884 0.320889
vt 0.201034 0.320807
vt 0.215609 0.354074
vt 0.208509 0.354131
vt 0.222722 0.354039
vt 0.229852 0.354022
vt 0.237001 0.354018
vt 0.244170 0.354021
vt 0.251357 0.354028
vt 0.172932 0.354722
vt 0.165757 0.354879
vt 0.180082 0.354571
vt 0.187209 0.354432
vt 0.194318 0.354311
vt 0.201415 0.354211
vt 0.215713 0.381303
vt 0.208744 0.381320
vt 0.222717 0.381349
vt 0.229766 0.381441
vt 0.236862 0.381555
vt 0.244005 0.381675
vt 0.251188 0.381791
vt 0.173685 0.382307
vt 0.166532 0.382599
vt 0.180781 0.382025
vt 0.187827 0.381768
vt 0.194826 0.381557
vt 0.201791 0.381408
vt 0.215506 0.402060
vt 0.208832 0.401939
vt 0.222304 0.402368
vt 0.229257 0.402762
vt 0.236303 0.403108
vt 0.243446 0.403369
vt 0.250629 0.403573
vt 0.174793 0.403843
vt 0.167689 0.404298
vt 0.181805 0.403345
vt 0.188744 0.402805
vt 0.195539 0.402338
vt 0.202211 0.402046
vt 0.214718 0.416121
vt 0.208682 0.415632
vt 0.221130 0.417179
vt 0.228224 0.418518
vt 0.235429 0.419045
vt 0.242881 0.419134
vt 0.250129 0.419173
vt 0.176000 0.419533
vt 0.168775 0.419752
vt 0.183110 0.419021
vt 0.190242 0.417693
vt 0.196709 0.416480
vt 0.202761 0.415775
vt 0.213455 0.423578
vt 0.208398 0.422695
vt 0.218883 0.425693
vt 0.225779 0.430135
vt 0.235240 0.429302
vt 0.243006 0.428650
vt 0.250235 0.428472
vt 0.176149 0.429393
vt 0.168716 0.428928
vt 0.185136 0.430481
vt 0.192712 0.426552
vt 0.198311 0.424101
vt 0.203385 0.422832
vt 0.212180 0.430556
vt 0.208052 0.430554
vt 0.217005 0.430592
vt 0.223728 0.430779
vt 0.233450 0.433571
vt 0.242361 0.436229
vt 0.250126 0.435936
vt 0.177451 0.435203
vt 0.169520 0.436032
vt 0.186524 0.431469
vt 0.194283 0.430514
vt 0.199722 0.430511
vt 0.204073 0.430543
vt 0.214514 0.443010
vt 0.208622 0.443729
vt 0.220887 0.441504
vt 0.227877 0.439553
vt 0.235998 0.438787
vt 0.243510 0.439998
vt 0.250574 0.439901
vt 0.175217 0.439158
vt 0.168095 0.439486
vt 0.183147 0.439090
vt 0.190279 0.440807
vt 0.196770 0.442547
vt 0.202778 0.443553
vt 0.215621 0.467764
vt 0.208768 0.467816
vt 0.222496 0.467578
vt 0.229486 0.467366
vt 0.236592 0.467220
vt 0.243716 0.467134
vt 0.250824 0.467101
vt 0.174145 0.466547
vt 0.166980 0.466293
vt 0.181292 0.466826
vt 0.188255 0.467161
vt 0.195129 0.467468
vt 0.201951 0.467704
vt 0.215498 0.507921
vt 0.208459 0.507863
vt 0.222546 0.507962
vt 0.229605 0.507991
vt 0.236677 0.508013
vt 0.243760 0.508034
vt 0.250853 0.508057
vt 0.173196 0.507359
vt 0.166106 0.507240
vt 0.180273 0.507479
vt 0.187335 0.507592
vt 0.194382 0.507698
vt 0.201422 0.507792
vt 0.215048 0.558975
vt 0.207968 0.558906
vt 0.222128 0.559040
vt 0.229210 0.559104
vt 0.236294 0.559165
vt 0.243380 0.559226
vt 0.250468 0.559286
vt 0.172562 0.558527
vt 0.165476 0.558446
vt 0.179646 0.558606
vt 0.186728 0.558684
vt 0.193809 0.558761
vt 0.200889 0.558835
vt 0.214482 0.617077
vt 0.207393 0.617007
vt 0.221570 0.617146
vt 0.228659 0.617215
vt 0.235748 0.617283
vt 0.242837 0.617351
vt 0.249927 0.617418
vt 0.171951 0.616647
vt 0.164862 0.616573
vt 0.179040 0.616720
vt 0.186128 0.616793
vt 0.193217 0.616865
vt 0.200305 0.616936
vt 0.213873 0.678680
vt 0.206781 0.678609
vt 0.220965 0.678750
vt 0.228057 0.678819
vt 0.235149 0.678889
vt 0.242241 0.678958
vt 0.249333 0.679027
vt 0.171322 0.678253
vt 0.164229 0.678180
vt 0.178414 0.678325
vt 0.185506 0.678396
vt 0.192597 0.678468
vt 0.199689 0.678539
vt 0.213263 0.740308
vt 0.206168 0.740237
vt 0.220357 0.740378
vt 0.227451 0.740448
vt 0.234546 0.740517
vt 0.241640 0.740587
vt 0.248734 0.740656
vt 0.170697 0.739882
vt 0.163603 0.739810
vt 0.177791 0.739953
vt 0.184886 0.740025
vt 0.191980 0.740096
vt 0.199074 0.740167
vt 0.212686 0.798496
vt 0.205590 0.798426
vt 0.219782 0.798567
vt 0.226878 0.798637
vt 0.233974 0.798707
vt 0.241070 0.798776
vt 0.248166 0.798846
vt 0.170110 0.798071
vt 0.163014 0.797999
vt 0.177206 0.798142
vt 0.184302 0.798213
vt 0.191398 0.798284
vt 0.198494 0.798355
vt 0.212177 0.849781
vt 0.205080 0.849711
vt 0.219274 0.849852
vt 0.226371 0.849922
vt 0.233468 0.849992
vt 0.240565 0.850062
vt 0.247662 0.850132
vt 0.169595 0.849356
vt 0.162498 0.849285
vt 0.176692 0.849428
vt 0.183789 0.849499
vt 0.190886 0.849569
vt 0.197983 0.849640
vt 0.211771 0.890699
vt 0.204673 0.890628
vt 0.218869 0.890769
vt 0.225966 0.890840
vt 0.233064 0.890910
vt 0.240162 0.890980
vt 0.247260 0.891050
vt 0.169185 0.890274
vt 0.162087 0.890203
vt 0.176283 0.890345
vt 0.183380 0.890416
vt 0.190478 0.890487
vt 0.197576 0.890558
vt 0.211502 0.917787
vt 0.204404 0.917717
vt 0.218600 0.917858
vt 0.225699 0.917928
vt 0.232797 0.917998
vt 0.239895 0.918068
vt 0.246993 0.918138
vt 0.168914 0.917362
vt 0.161816 0.917291
vt 0.176012 0.917433
vt 0.183110 0.917504
vt 0.190208 0.917575
vt 0.197306 0.917646
vt 0.211405 0.927586
vt 0.204307 0.927516
vt 0.218504 0.927656
vt 0.225602 0.927726
vt 0.232700 0.927796
vt 0.239798 0.927866
vt 0.246896 0.927936
vt 0.168816 0.927160
vt 0.161718 0.927089
vt 0.175914 0.927231
vt 0.183012 0.927303
vt 0.190110 0.927374
vt 0.197208 0.927445
vt 0.302130 0.927616
vt 0.294928 0.927556
vt 0.295603 0.860505
vt 0.302797 0.860578
vt 0.309330 0.927671
vt 0.309993 0.860650
vt 0.316530 0.927727
vt 0.317191 0.860722
vt 0.323730 0.927788
vt 0.324391 0.860794
vt 0.330928 0.927857
vt 0.331592 0.860866
vt 0.338127 0.927934
vt 0.338794 0.860937
vt 0.258919 0.927141
vt 0.251718 0.927052
vt 0.252437 0.860054
vt 0.259636 0.860130
vt 0.266118 0.927234
vt 0.266834 0.860206
vt 0.273320 0.927326
vt 0.274029 0.860282
vt 0.280522 0.927412
vt 0.281221 0.860357
vt 0.287725 0.927489
vt 0.288412 0.860431
vt 0.296234 0.798817
vt 0.303424 0.798890
vt 0.310616 0.798963
vt 0.317811 0.799035
vt 0.325008 0.799107
vt 0.332206 0.799179
vt 0.339405 0.799250
vt 0.253085 0.798369
vt 0.260282 0.798445
vt 0.267476 0.798520
vt 0.274668 0.798595
vt 0.281857 0.798670
vt 0.289045 0.798744
vt 0.296807 0.742558
vt 0.303993 0.742631
vt 0.311182 0.742703
vt 0.318374 0.742775
vt 0.325568 0.742846
vt 0.332763 0.742917
vt 0.339959 0.742988
vt 0.253681 0.742108
vt 0.260875 0.742184
vt 0.268066 0.742260
vt 0.275253 0.742335
vt 0.282439 0.742410
vt 0.289623 0.742485
vt 0.297323 0.691825
vt 0.304504 0.691898
vt 0.311688 0.691969
vt 0.318876 0.692040
vt 0.326066 0.692110
vt 0.333258 0.692180
vt 0.340451 0.692248
vt 0.254225 0.691369
vt 0.261416 0.691447
vt 0.268603 0.691524
vt 0.275786 0.691601
vt 0.282966 0.691677
vt 0.290144 0.691752
vt 0.297781 0.646725
vt 0.304953 0.646796
vt 0.312129 0.646865
vt 0.319310 0.646933
vt 0.326495 0.646998
vt 0.333684 0.647063
vt 0.340874 0.647127
vt 0.254725 0.646250
vt 0.261912 0.646333
vt 0.269093 0.646415
vt 0.276269 0.646496
vt 0.283441 0.646575
vt 0.290611 0.646651
vt 0.298176 0.607384
vt 0.305329 0.607452
vt 0.312487 0.607513
vt 0.319654 0.607569
vt 0.326829 0.607620
vt 0.334011 0.607667
vt 0.341199 0.607713
vt 0.255207 0.606844
vt 0.262389 0.606945
vt 0.269561 0.607044
vt 0.276723 0.607138
vt 0.283877 0.607227
vt 0.291027 0.607309
vt 0.298502 0.573985
vt 0.305601 0.574041
vt 0.312714 0.574076
vt 0.319844 0.574093
vt 0.326994 0.574097
vt 0.334163 0.574094
vt 0.341349 0.574087
vt 0.255750 0.573237
vt 0.262924 0.573395
vt 0.270074 0.573546
vt 0.277202 0.573684
vt 0.284311 0.573805
vt 0.291408 0.573905
vt 0.298736 0.546796
vt 0.305705 0.546813
vt 0.312709 0.546766
vt 0.319758 0.546675
vt 0.326854 0.546560
vt 0.333996 0.546441
vt 0.341179 0.546324
vt 0.256524 0.545518
vt 0.263677 0.545810
vt 0.270773 0.546092
vt 0.277819 0.546348
vt 0.284818 0.546560
vt 0.291783 0.546708
vt 0.298824 0.526177
vt 0.305497 0.526056
vt 0.312296 0.525748
vt 0.319249 0.525353
vt 0.326294 0.525007
vt 0.333437 0.524746
vt 0.340620 0.524542
vt 0.257681 0.523819
vt 0.264785 0.524274
vt 0.271797 0.524772
vt 0.278735 0.525312
vt 0.285530 0.525778
vt 0.292202 0.526070
vt 0.298673 0.512484
vt 0.304709 0.511995
vt 0.311121 0.510936
vt 0.318216 0.509597
vt 0.325420 0.509071
vt 0.332872 0.508981
vt 0.340120 0.508942
vt 0.258766 0.508365
vt 0.265991 0.508584
vt 0.273101 0.509096
vt 0.280233 0.510424
vt 0.286701 0.511636
vt 0.292753 0.512341
vt 0.298389 0.505421
vt 0.303446 0.504538
vt 0.308874 0.502422
vt 0.315770 0.497980
vt 0.325231 0.498813
vt 0.332997 0.499465
vt 0.340226 0.499644
vt 0.258707 0.499189
vt 0.266140 0.498723
vt 0.275127 0.497635
vt 0.282703 0.501564
vt 0.288302 0.504015
vt 0.293376 0.505284
vt 0.298043 0.497562
vt 0.302171 0.497560
vt 0.306996 0.497524
vt 0.313719 0.497337
vt 0.323441 0.494544
vt 0.332352 0.491887
vt 0.340117 0.492180
vt 0.259511 0.492085
vt 0.267441 0.492914
vt 0.276515 0.496647
vt 0.284274 0.497603
vt 0.289712 0.497605
vt 0.294064 0.497574
vt 0.298613 0.484387
vt 0.304504 0.485106
vt 0.310878 0.486612
vt 0.317868 0.488562
vt 0.325989 0.489328
vt 0.333500 0.488118
vt 0.340564 0.488214
vt 0.258085 0.488630
vt 0.265207 0.488959
vt 0.273138 0.489027
vt 0.280270 0.487309
vt 0.286761 0.485569
vt 0.292769 0.484563
vt 0.298759 0.460300
vt 0.305612 0.460352
vt 0.312487 0.460538
vt 0.319476 0.460749
vt 0.326582 0.460896
vt 0.333706 0.460982
vt 0.340814 0.461014
vt 0.256970 0.461824
vt 0.264135 0.461570
vt 0.271282 0.461291
vt 0.278246 0.460955
vt 0.285119 0.460649
vt 0.291941 0.460412
vt 0.298448 0.420253
vt 0.305488 0.420195
vt 0.312536 0.420153
vt 0.319595 0.420125
vt 0.326667 0.420103
vt 0.333750 0.420082
vt 0.340843 0.420059
vt 0.256095 0.420877
vt 0.263186 0.420757
vt 0.270263 0.420637
vt 0.277325 0.420524
vt 0.284372 0.420418
vt 0.291412 0.420325
vt 0.297959 0.369210
vt 0.305039 0.369141
vt 0.312119 0.369076
vt 0.319201 0.369013
vt 0.326285 0.368951
vt 0.333371 0.368891
vt 0.340458 0.368831
vt 0.255467 0.369669
vt 0.262553 0.369588
vt 0.269637 0.369509
vt 0.276719 0.369431
vt 0.283800 0.369354
vt 0.290880 0.369280
vt 0.297386 0.311109
vt 0.304474 0.311039
vt 0.311563 0.310970
vt 0.318651 0.310901
vt 0.325740 0.310833
vt 0.332829 0.310766
vt 0.339919 0.310699
vt 0.254854 0.311542
vt 0.261943 0.311468
vt 0.269032 0.311395
vt 0.276121 0.311323
vt 0.283209 0.311251
vt 0.290297 0.311180
vt 0.296775 0.249506
vt 0.303867 0.249436
vt 0.310959 0.249366
vt 0.318051 0.249297
vt 0.325143 0.249228
vt 0.332235 0.249159
vt 0.339327 0.249090
vt 0.254223 0.249934
vt 0.261315 0.249862
vt 0.268407 0.249790
vt 0.275499 0.249719
vt 0.282591 0.249648
vt 0.289683 0.249577
vt 0.296164 0.187878
vt 0.303258 0.187808
vt 0.310352 0.187738
vt 0.317447 0.187668
vt 0.324541 0.187599
vt 0.331635 0.187529
vt 0.338730 0.187460
vt 0.253598 0.188305
vt 0.260692 0.188233
vt 0.267787 0.188162
vt 0.274881 0.188090
vt 0.281975 0.188019
vt 0.289070 0.187949
vt 0.295587 0.129689
vt 0.302683 0.129619
vt 0.309779 0.129549
vt 0.316875 0.129479
vt 0.323971 0.129409
vt 0.331067 0.129340
vt 0.338163 0.129270
vt 0.253011 0.130115
vt 0.260107 0.130044
vt 0.267203 0.129972
vt 0.274299 0.129901
vt 0.281395 0.129831
vt 0.288491 0.129760
vt 0.295078 0.078404
vt 0.302175 0.078334
vt 0.309272 0.078264
vt 0.316369 0.078194
vt 0.323467 0.078124
vt 0.330564 0.078054
vt 0.337661 0.077985
vt 0.252496 0.078829
vt 0.259593 0.078758
vt 0.266690 0.078687
vt 0.273787 0.078616
vt 0.280884 0.078545
vt 0.287981 0.078475
vt 0.294673 0.037487
vt 0.301770 0.037416
vt 0.308868 0.037346
vt 0.315966 0.037276
vt 0.323063 0.037206
vt 0.330161 0.037136
vt 0.337259 0.037066
vt 0.252086 0.037911
vt 0.259184 0.037840
vt 0.266282 0.037769
vt 0.273379 0.037698
vt 0.280477 0.037628
vt 0.287575 0.037557
vt 0.294404 0.010398
vt 0.301502 0.010328
vt 0.308600 0.010258
vt 0.315699 0.010188
vt 0.322797 0.010118
vt 0.329895 0.010048
vt 0.336993 0.009978
vt 0.251816 0.010823
vt 0.258914 0.010752
vt 0.266012 0.010681
vt 0.273110 0.010610
vt 0.280208 0.010539
vt 0.287306 0.010469
vt 0.294307 0.000599
vt 0.301406 0.000529
vt 0.308504 0.000460
vt 0.315602 0.000390
vt 0.322700 0.000320
vt 0.329798 0.000250
vt 0.336896 0.000180
vt 0.251718 0.001025
vt 0.258816 0.000954
vt 0.265914 0.000883
vt 0.273012 0.000812
vt 0.280110 0.000741
vt 0.287208 0.000670
vt 0.438765 0.367337
vt 0.444992 0.368067
vt 0.443537 0.374790
vt 0.436860 0.373318
vt 0.436153 0.316012
vt 0.442126 0.314103
vt 0.443580 0.320827
vt 0.436890 0.322245
vt 0.436131 0.379548
vt 0.442096 0.381454
vt 0.440674 0.388029
vt 0.435721 0.385770
vt 0.438802 0.328220
vt 0.445021 0.327491
vt 0.446443 0.334065
vt 0.441000 0.334055
vt 0.140032 0.996405
vt 0.134443 0.996817
vt 0.134443 0.002489
vt 0.140032 0.002762
vt 0.097020 0.996157
vt 0.091431 0.996432
vt 0.091431 0.002104
vt 0.097020 0.002515
vt 0.450964 0.369976
vt 0.456848 0.372149
vt 0.456826 0.377614
vt 0.450227 0.376209
vt 0.448353 0.313373
vt 0.454609 0.312921
vt 0.456848 0.317906
vt 0.450258 0.319354
vt 0.118345 0.997116
vt 0.112756 0.997164
vt 0.112757 0.002836
vt 0.118345 0.003473
vt 0.161357 0.995447
vt 0.155768 0.996085
vt 0.155768 0.001756
vt 0.161357 0.001804
vt 0.448315 0.382183
vt 0.454583 0.382558
vt 0.451401 0.387078
vt 0.446117 0.388018
vt 0.450986 0.325584
vt 0.456848 0.323335
vt 0.455819 0.328766
vt 0.451396 0.331806
vt 0.107167 0.996526
vt 0.102094 0.998740
vt 0.102094 0.000180
vt 0.107168 0.002883
vt 0.128493 0.997485
vt 0.123419 0.999820
vt 0.123419 0.001260
vt 0.128493 0.003842
vt 0.150179 0.996036
vt 0.145105 0.998740
vt 0.145105 0.000180
vt 0.150179 0.002393
vt 0.352735 0.628433
vt 0.352735 0.655634
vt 0.461539 0.655634
vt 0.461539 0.628433
vt 0.462050 0.328200
vt 0.462050 0.355401
vt 0.570854 0.355401
vt 0.570854 0.328200
vt 0.446126 0.307444
vt 0.451469 0.308629
vt 0.435731 0.309693
vt 0.440691 0.307469
vt 0.451386 0.363656
vt 0.455762 0.366943
vt 0.440991 0.361408
vt 0.446427 0.361432
vt 0.435649 0.362593
vt 0.432508 0.366885
vt 0.430291 0.323650
vt 0.432534 0.328594
vt 0.431355 0.312979
vt 0.430269 0.318186
vt 0.430269 0.371870
vt 0.430269 0.377299
vt 0.085842 0.996157
vt 0.085842 0.002515
vt 0.435716 0.333114
vt 0.431298 0.382730
vt 0.134082 0.997897
vt 0.134082 0.003568
vt 0.436153 0.342994
vt 0.442125 0.341085
vt 0.443580 0.347808
vt 0.436890 0.349227
vt 0.436153 0.289030
vt 0.442126 0.287121
vt 0.443580 0.293845
vt 0.436890 0.295263
vt 0.438802 0.355201
vt 0.445021 0.354473
vt 0.446443 0.361047
vt 0.441000 0.361037
vt 0.438802 0.301238
vt 0.445021 0.300509
vt 0.446443 0.307084
vt 0.441000 0.307073
vt 0.079892 0.002515
vt 0.085481 0.002103
vt 0.085481 0.996431
vt 0.079892 0.996158
vt 0.037242 0.003843
vt 0.042831 0.003568
vt 0.042831 0.997896
vt 0.037242 0.997485
vt 0.448352 0.340355
vt 0.454609 0.339903
vt 0.456848 0.344888
vt 0.450257 0.346336
vt 0.448353 0.286391
vt 0.454609 0.285940
vt 0.456848 0.290925
vt 0.450258 0.292372
vt 0.015917 0.002884
vt 0.021506 0.002836
vt 0.021506 0.997164
vt 0.015917 0.996527
vt 0.058567 0.003474
vt 0.064156 0.002836
vt 0.064156 0.997164
vt 0.058567 0.997117
vt 0.450986 0.352566
vt 0.456848 0.350317
vt 0.455819 0.355748
vt 0.451396 0.358788
vt 0.450986 0.298602
vt 0.456848 0.296353
vt 0.455819 0.301785
vt 0.451396 0.304824
vt 0.027095 0.003474
vt 0.032168 0.001260
vt 0.032168 0.999820
vt 0.027095 0.997117
vt 0.005769 0.002516
vt 0.010843 0.000181
vt 0.010843 0.998740
vt 0.005769 0.996158
vt 0.069745 0.002884
vt 0.074819 0.000180
vt 0.074819 0.998740
vt 0.069745 0.996527
vt 0.048420 0.003843
vt 0.053494 0.001260
vt 0.053494 0.999820
vt 0.048420 0.997485
vt 0.446126 0.280462
vt 0.451469 0.281647
vt 0.435731 0.282711
vt 0.440691 0.280487
vt 0.446126 0.334426
vt 0.451468 0.335611
vt 0.435731 0.336675
vt 0.440690 0.334451
vt 0.431355 0.339962
vt 0.430269 0.345168
vt 0.430291 0.296669
vt 0.432534 0.301612
vt 0.431355 0.285998
vt 0.430269 0.291204
vt 0.430291 0.350632
vt 0.432534 0.355576
vt 0.435716 0.306133
vt 0.435716 0.360096
vt 0.000180 0.002104
vt 0.000180 0.996432
vt 0.451078 0.270929
vt 0.445309 0.273077
vt 0.443585 0.266030
vt 0.450171 0.264428
vt 0.439200 0.229794
vt 0.445309 0.230554
vt 0.443585 0.237600
vt 0.437002 0.235980
vt 0.447973 0.258242
vt 0.441864 0.259002
vt 0.440149 0.251996
vt 0.445730 0.252007
vt 0.436096 0.242481
vt 0.441864 0.244628
vt 0.440150 0.251635
vt 0.435206 0.249047
vt 0.380200 0.001165
vt 0.385809 0.000960
vt 0.385809 0.438454
vt 0.380200 0.438358
vt 0.424300 0.002209
vt 0.429909 0.002112
vt 0.429909 0.439607
vt 0.424300 0.439402
vt 0.439200 0.273837
vt 0.433021 0.274600
vt 0.430437 0.269267
vt 0.437002 0.267651
vt 0.451078 0.232701
vt 0.456912 0.234878
vt 0.456741 0.240801
vt 0.450171 0.239203
vt 0.401912 0.001455
vt 0.407859 0.001536
vt 0.407859 0.439031
vt 0.401912 0.438648
vt 0.357812 0.001919
vt 0.363760 0.001536
vt 0.363760 0.439031
vt 0.357812 0.439112
vt 0.436096 0.261149
vt 0.430269 0.263355
vt 0.431286 0.257996
vt 0.435205 0.254583
vt 0.447973 0.245388
vt 0.454159 0.246122
vt 0.450782 0.250406
vt 0.445730 0.251623
vt 0.413806 0.001919
vt 0.419154 0.001029
vt 0.419154 0.440386
vt 0.413806 0.439112
vt 0.391418 0.001165
vt 0.396564 0.000180
vt 0.396564 0.439537
vt 0.391418 0.438358
vt 0.369707 0.001455
vt 0.375055 0.000180
vt 0.375055 0.439537
vt 0.369707 0.438648
vt 0.347319 0.002209
vt 0.352464 0.001030
vt 0.352464 0.440386
vt 0.347319 0.439402
vt 0.451975 0.226104
vt 0.455875 0.229600
vt 0.441451 0.223529
vt 0.447028 0.223529
vt 0.441451 0.280102
vt 0.436379 0.278802
vt 0.451976 0.277526
vt 0.447029 0.280102
vt 0.455875 0.274030
vt 0.456912 0.268752
vt 0.430437 0.234364
vt 0.430269 0.240275
vt 0.436378 0.224828
vt 0.433021 0.229031
vt 0.456741 0.262829
vt 0.454159 0.257508
vt 0.341710 0.002112
vt 0.341710 0.439607
vt 0.431286 0.245635
vt 0.450782 0.253224
vt 0.559703 0.127596
vt 0.559703 0.296811
vt 0.728919 0.296811
vt 0.728919 0.127596
vt 0.559703 0.466027
vt 0.728919 0.466027
vt 0.559703 0.635242
vt 0.728919 0.635242
vt 0.559703 0.804458
vt 0.728919 0.804458
vt 0.390488 0.466027
vt 0.390488 0.635242
vt 0.898135 0.635242
vt 0.898135 0.466027
s 1
f 1/1/1 13/2/13 24/3/24 12/4/12
f 2/5/2 14/6/14 13/2/13 1/1/1
f 3/7/3 15/8/15 14/6/14 2/5/2
f 4/9/4 16/10/16 15/8/15 3/7/3
f 5/11/5 17/12/17 16/10/16 4/9/4
f 6/13/6 18/14/18 17/12/17 5/11/5
f 7/15/7 19/16/19 18/17/18 6/18/6
f 8/19/8 20/20/20 19/16/19 7/15/7
f 9/21/9 21/22/21 20/20/20 8/19/8
f 10/23/10 22/24/22 21/22/21 9/21/9
f 11/25/11 23/26/23 22/24/22 10/23/10
f 12/4/12 24/3/24 23/26/23 11/25/11
f 13/2/13 25/27/25 36/28/36 24/3/24
f 14/6/14 26/29/26 25/27/25 13/2/13
f 15/8/15 27/30/27 26/29/26 14/6/14
f 16/10/16 28/31/28 27/30/27 15/8/15
f 17/12/17 29/32/29 28/31/28 16/10/16
f 18/14/18 30/33/30 29/32/29 17/12/17
f 19/16/19 31/34/31 30/35/30 18/17/18
f 20/20/20 32/36/32 31/34/31 19/16/19
f 21/22/21 33/37/33 32/36/32 20/20/20
f 22/24/22 34/38/34 33/37/33 21/22/21
f 23/26/23 35/39/35 34/38/34 22/24/22
f 24/3/24 36/28/36 35/39/35 23/26/23
f 25/27/25 37/40/37 48/41/48 36/28/36
f 26/29/26 38/42/38 37/40/37 25/27/25
f 27/30/27 39/43/39 38/42/38 26/29/26
f 28/31/28 40/44/40 39/43/39 27/30/27
f 29/32/29 41/45/41 40/44/40 28/31/28
f 30/33/30 42/46/42 41/45/41 29/32/29
f 31/34/31 43/47/43 42/48/42 30/35/30
f 32/36/32 44/49/44 43/47/43 31/34/31
f 33/37/33 45/50/45 44/49/44 32/36/32
f 34/38/34 46/51/46 45/50/45 33/37/33
f 35/39/35 47/52/47 46/51/46 34/38/34
f 36/28/36 48/41/48 47/52/47 35/39/35
f 37/40/37 49/53/49 60/54/60 48/41/48
f 38/42/38 50/55/50 49/53/49 37/40/37
f 39/43/39 51/56/51 50/55/50 38/42/38
f 40/44/40 52/57/52 51/56/51 39/43/39
f 41/45/41 53/58/53 52/57/52 40/44/40
f 42/46/42 54/59/54 53/58/53 41/45/41
f 43/47/43 55/60/55 54/61/54 42/48/42
f 44/49/44 56/62/56 55/60/55 43/47/43
f 45/50/45 57/63/57 56/62/56 44/49/44
f 46/51/46 58/64/58 57/63/57 45/50/45
f 47/52/47 59/65/59 58/64/58 46/51/46
f 48/41/48 60/54/60 59/65/59 47/52/47
f 49/53/49 61/66/61 72/67/72 60/54/60
f 50/55/50 62/68/62 61/66/61 49/53/49
f 51/56/51 63/69/63 62/68/62 50/55/50
f 52/57/52 64/70/64 63/69/63 51/56/51
f 53/58/53 65/71/65 64/70/64 52/57/52
f 54/59/54 66/72/66 65/71/65 53/58/53
f 55/60/55 67/73/67 66/74/66 54/61/54
f 56/62/56 68/75/68 67/73/67 55/60/55
f 57/63/57 69/76/69 68/75/68 56/62/56
f 58/64/58 70/77/70 69/76/69 57/63/57
f 59/65/59 71/78/71 70/77/70 58/64/58
f 60/54/60 72/67/72 71/78/71 59/65/59
f 61/66/61 73/79/73 84/80/84 72/67/72
f 62/68/62 74/81/74 73/79/73 61/66/61
f 63/69/63 75/82/75 74/81/74 62/68/62
f 64/70/64 76/83/76 75/82/75 63/69/63
f 65/71/65 77/84/77 76/83/76 64/70/64
f 66/72/66 78/85/78 77/84/77 65/71/65
f 67/73/67 79/86/79 78/87/78 66/74/66
f 68/75/68 80/88/80 79/86/79 67/73/67
f 69/76/69 81/89/81 80/88/80 68/75/68
f 70/77/70 82/90/82 81/89/81 69/76/69
f 71/78/71 83/91/83 82/90/82 70/77/70
f 72/67/72 84/80/84 83/91/83 71/78/71
f 73/79/73 85/92/85 96/93/96 84/80/84
f 74/81/74 86/94/86 85/92/85 73/79/73
f 75/82/75 87/95/87 86/94/86 74/81/74
f 76/83/76 88/96/88 87/95/87 75/82/75
f 77/84/77 89/97/89 88/96/88 76/83/76
f 78/85/78 90/98/90 89/97/89 77/84/77
f 79/86/79 91/99/91 90/100/90 78/87/78
f 80/88/80 92/101/92 91/99/91 79/86/79
f 81/89/81 93/102/93 92/101/92 80/88/80
f 82/90/82 94/103/94 93/102/93 81/89/81
f 83/91/83 95/104/95 94/103/94 82/90/82
f 84/80/84 96/93/96 95/104/95 83/91/83
f 85/92/85 97/105/97 108/106/108 96/93/96
f 86/94/86 98/107/98 97/105/97 85/92/85
f 87/95/87 99/108/99 98/107/98 86/94/86
f 88/96/88 100/109/100 99/108/99 87/95/87
f 89/97/89 101/110/101 100/109/100 88/96/88
f 90/98/90 102/111/102 101/110/101 89/97/89
f 91/99/91 103/112/103 102/113/102 90/100/90
f 92/101/92 104/114/104 103/112/103 91/99/91
f 93/102/93 105/115/105 104/114/104 92/101/92
f 94/103/94 106/116/106 105/115/105 93/102/93
f 95/104/95 107/117/107 106/116/106 94/103/94
f 96/93/96 108/106/108 107/117/107 95/104/95
f 97/105/97 109/118/109 120/119/120 108/106/108
f 98/107/98 110/120/110 109/118/109 97/105/97
f 99/108/99 111/121/111 110/120/110 98/107/98
f 100/109/100 112/122/112 111/121/111 99/108/99
f 101/110/101 113/123/113 112/122/112 100/109/100
f 102/111/102 114/124/114 113/123/113 101/110/101
f 103/112/103 115/125/115 114/126/114 102/113/102
f 104/114/104 116/127/116 115/125/115 103/112/103
f 105/115/105 117/128/117 116/127/116 104/114/104
f 106/116/106 118/129/118 117/128/117 105/115/105
f 107/117/107 119/130/119 118/129/118 106/116/106
f 108/106/108 120/119/120 119/130/119 107/117/107
f 109/118/109 121/131/121 132/132/132 120/119/120
f 110/120/110 122/133/122 121/131/121 109/118/109
f 111/121/111 123/134/123 122/133/122 110/120/110
f 112/122/112 124/135/124 123/134/123 111/121/111
f 113/123/113 125/136/125 124/135/124 112/122/112
f 114/124/114 126/137/126 125/136/125 113/123/113
f 115/125/115 127/138/127 126/139/126 114/126/114
f 116/127/116 128/140/128 127/138/127 115/125/115
f 117/128/117 129/141/129 128/140/128 116/127/116
f 118/129/118 130/142/130 129/141/129 117/128/117
f 119/130/119 131/143/131 130/142/130 118/129/118
f 120/119/120 132/132/132 131/143/131 119/130/119
f 121/131/121 133/144/133 144/145/144 132/132/132
f 122/133/122 134/146/134 133/144/133 121/131/121
f 123/134/123 135/147/135 134/146/134 122/133/122
f 124/135/124 136/148/136 135/147/135 123/134/123
f 125/136/125 137/149/137 136/148/136 124/135/124
f 126/137/126 138/150/138 137/149/137 125/136/125
f 127/138/127 139/151/139 138/152/138 126/139/126
f 128/140/128 140/153/140 139/151/139 127/138/127
f 129/141/129 141/154/141 140/153/140 128/140/128
f 130/142/130 142/155/142 141/154/141 129/141/129
f 131/143/131 143/156/143 142/155/142 130/142/130
f 132/132/132 144/145/144 143/156/143 131/143/131
f 133/144/133 145/157/145 156/158/156 144/145/144
f 134/146/134 146/159/146 145/157/145 133/144/133
f 135/147/135 147/160/147 146/159/146 134/146/134
f 136/148/136 148/161/148 147/160/147 135/147/135
f 137/149/137 149/162/149 148/161/148 136/148/136
f 138/150/138 150/163/150 149/162/149 137/149/137
f 139/151/139 151/164/151 150/165/150 138/152/138
f 140/153/140 152/166/152 151/164/151 139/151/139
f 141/154/141 153/167/153 152/166/152 140/153/140
f 142/155/142 154/168/154 153/167/153 141/154/141
f 143/156/143 155/169/155 154/168/154 142/155/142
f 144/145/144 156/158/156 155/169/155 143/156/143
f 145/157/145 157/170/157 168/171/168 156/158/156
f 146/159/146 158/172/158 157/170/157 145/157/145
f 147/160/147 159/173/159 158/172/158 146/159/146
f 148/161/148 160/174/160 159/173/159 147/160/147
f 149/162/149 161/175/161 160/174/160 148/161/148
f 150/163/150 162/176/162 161/175/161 149/162/149
f 151/164/151 163/177/163 162/178/162 150/165/150
f 152/166/152 164/179/164 163/177/163 151/164/151
f 153/167/153 165/180/165 164/179/164 152/166/152
f 154/168/154 166/181/166 165/180/165 153/167/153
f 155/169/155 167/182/167 166/181/166 154/168/154
f 156/158/156 168/171/168 167/182/167 155/169/155
f 157/170/157 169/183/169 180/184/180 168/171/168
f 158/172/158 170/185/170 169/183/169 157/170/157
f 159/173/159 171/186/171 170/185/170 158/172/158
f 160/174/160 172/187/172 171/186/171 159/173/159
f 161/175/161 173/188/173 172/187/172 160/174/160
f 162/176/162 174/189/174 173/188/173 161/175/161
f 163/177/163 175/190/175 174/191/174 162/178/162
f 164/179/164 176/192/176 175/190/175 163/177/163
f 165/180/165 177/193/177 176/192/176 164/179/164
f 166/181/166 178/194/178 177/193/177 165/180/165
f 167/182/167 179/195/179 178/194/178 166/181/166
f 168/171/168 180/184/180 179/195/179 167/182/167
f 169/183/169 181/196/169 192/197/180 180/184/180
f 170/185/170 182/198/170 181/196/169 169/183/169
f 171/186/171 183/199/171 182/198/170 170/185/170
f 172/187/172 184/200/172 183/199/171 171/186/171
f 173/188/173 185/201/173 184/200/172 172/187/172
f 174/189/174 186/202/174 185/201/173 173/188/173
f 175/190/175 187/203/175 186/204/174 174/191/174
f 176/192/176 188/205/176 187/203/175 175/190/175
f 177/193/177 189/206/177 188/205/176 176/192/176
f 178/194/178 190/207/178 189/206/177 177/193/177
f 179/195/179 191/208/179 190/207/178 178/194/178
f 180/184/180 192/197/180 191/208/179 179/195/179
f 181/196/169 193/209/169 204/210/180 192/197/180
f 182/198/170 194/211/170 193/209/169 181/196/169
f 183/199/171 195/212/171 194/211/170 182/198/170
f 184/200/172 196/213/172 195/212/171 183/199/171
f 185/201/173 197/214/173 196/213/172 184/200/172
f 186/202/174 198/215/174 197/214/173 185/201/173
f 187/203/175 199/216/175 198/217/174 186/204/174
f 188/205/176 200/218/176 199/216/175 187/203/175
f 189/206/177 201/219/177 200/218/176 188/205/176
f 190/207/178 202/220/178 201/219/177 189/206/177
f 191/208/179 203/221/179 202/220/178 190/207/178
f 192/197/180 204/210/180 203/221/179 191/208/179
f 193/209/169 205/222/169 216/223/180 204/210/180
f 194/211/170 206/224/170 205/222/169 193/209/169
f 195/212/171 207/225/171 206/224/170 194/211/170
f 196/213/172 208/226/172 207/225/171 195/212/171
f 197/214/173 209/227/173 208/226/172 196/213/172
f 198/215/174 210/228/174 209/227/173 197/214/173
f 199/216/175 211/229/175 210/230/174 198/217/174
f 200/218/176 212/231/176 211/229/175 199/216/175
f 201/219/177 213/232/177 212/231/176 200/218/176
f 202/220/178 214/233/178 213/232/177 201/219/177
f 203/221/179 215/234/179 214/233/178 202/220/178
f 204/210/180 216/223/180 215/234/179 203/221/179
f 205/222/169 217/235/169 228/236/180 216/223/180
f 206/224/170 218/237/170 217/235/169 205/222/169
f 207/225/171 219/238/171 218/237/170 206/224/170
f 208/226/172 220/239/172 219/238/171 207/225/171
f 209/227/173 221/240/173 220/239/172 208/226/172
f 210/228/174 222/241/174 221/240/173 209/227/173
f 211/229/175 223/242/175 222/243/174 210/230/174
f 212/231/176 224/244/176 223/242/175 211/229/175
f 213/232/177 225/245/177 224/244/176 212/231/176
f 214/233/178 226/246/178 225/245/177 213/232/177
f 215/234/179 227/247/179 226/246/178 214/233/178
f 216/223/180 228/236/180 227/247/179 215/234/179
f 217/235/169 229/248/169 240/249/180 228/236/180
f 218/237/170 230/250/170 229/248/169 217/235/169
f 219/238/171 231/251/171 230/250/170 218/237/170
f 220/239/172 232/252/172 231/251/171 219/238/171
f 221/240/173 233/253/173 232/252/172 220/239/172
f 222/241/174 234/254/174 233/253/173 221/240/173
f 223/242/175 235/255/175 234/256/174 222/243/174
f 224/244/176 236/257/176 235/255/175 223/242/175
f 225/245/177 237/258/177 236/257/176 224/244/176
f 226/246/178 238/259/178 237/258/177 225/245/177
f 227/247/179 239/260/179 238/259/178 226/246/178
f 228/236/180 240/249/180 239/260/179 227/247/179
f 229/248/169 241/261/169 252/262/180 240/249/180
f 230/250/170 242/263/170 241/261/169 229/248/169
f 231/251/171 243/264/171 242/263/170 230/250/170
f 232/252/172 244/265/172 243/264/171 231/251/171
f 233/253/173 245/266/173 244/265/172 232/252/172
f 234/254/174 246/267/174 245/266/173 233/253/173
f 235/255/175 247/268/175 246/269/174 234/256/174
f 236/257/176 248/270/176 247/268/175 235/255/175
f 237/258/177 249/271/177 248/270/176 236/257/176
f 238/259/178 250/272/178 249/271/177 237/258/177
f 239/260/179 251/273/179 250/272/178 238/259/178
f 240/249/180 252/262/180 251/273/179 239/260/179
f 241/261/169 253/274/169 264/275/180 252/262/180
f 242/263/170 254/276/170 253/274/169 241/261/169
f 243/264/171 255/277/171 254/276/170 242/263/170
f 244/265/172 256/278/172 255/277/171 243/264/171
f 245/266/173 257/279/173 256/278/172 244/265/172
f 246/267/174 258/280/174 257/279/173 245/266/173
f 247/268/175 259/281/175 258/282/174 246/269/174
f 248/270/176 260/283/176 259/281/175 247/268/175
f 249/271/177 261/284/177 260/283/176 248/270/176
f 250/272/178 262/285/178 261/284/177 249/271/177
f 251/273/179 263/286/179 262/285/178 250/272/178
f 252/262/180 264/275/180 263/286/179 251/273/179
f 253/274/169 265/287/169 276/288/180 264/275/180
f 254/276/170 266/289/170 265/287/169 253/274/169
f 255/277/171 267/290/171 266/289/170 254/276/170
f 256/278/172 268/291/172 267/290/171 255/277/171
f 257/279/173 269/292/173 268/291/172 256/278/172
f 258/280/174 270/293/174 269/292/173 257/279/173
f 259/281/175 271/294/175 270/295/174 258/282/174
f 260/283/176 272/296/176 271/294/175 259/281/175
f 261/284/177 273/297/177 272/296/176 260/283/176
f 262/285/178 274/298/178 273/297/177 261/284/177
f 263/286/179 275/299/179 274/298/178 262/285/178
f 264/275/180 276/288/180 275/299/179 263/286/179
f 265/287/169 277/300/169 288/301/180 276/288/180
f 266/289/170 278/302/170 277/300/169 265/287/169
f 267/290/171 279/303/171 278/302/170 266/289/170
f 268/291/172 280/304/172 279/303/171 267/290/171
f 269/292/173 281/305/173 280/304/172 268/291/172
f 270/293/174 282/306/174 281/305/173 269/292/173
f 271/294/175 283/307/175 282/308/174 270/295/174
f 272/296/176 284/309/176 283/307/175 271/294/175
f 273/297/177 285/310/177 284/309/176 272/296/176
f 274/298/178 286/311/178 285/310/177 273/297/177
f 275/299/179 287/312/179 286/311/178 274/298/178
f 276/288/180 288/301/180 287/312/179 275/299/179
f 277/300/169 289/313/169 300/314/180 288/301/180
f 278/302/170 290/315/170 289/313/169 277/300/169
f 279/303/171 291/316/171 290/315/170 278/302/170
f 280/304/172 292/317/172 291/316/171 279/303/171
f 281/305/173 293/318/173 292/317/172 280/304/172
f 282/306/174 294/319/174 293/318/173 281/305/173
f 283/307/175 295/320/175 294/321/174 282/308/174
f 284/309/176 296/322/176 295/320/175 283/307/175
f 285/310/177 297/323/177 296/322/176 284/309/176
f 286/311/178 298/324/178 297/323/177 285/310/177
f 287/312/179 299/325/179 298/324/178 286/311/178
f 288/301/180 300/314/180 299/325/179 287/312/179
f 301/326/181 312/327/192 324/328/204 313/329/193
f 302/330/182 301/326/181 313/329/193 314/331/194
f 303/332/183 302/330/182 314/331/194 315/333/195
f 304/334/184 303/332/183 315/333/195 316/335/196
f 305/336/185 304/334/184 316/335/196 317/337/197
f 306/338/186 305/336/185 317/337/197 318/339/198
f 307/340/187 306/341/186 318/342/198 319/343/199
f 308/344/188 307/340/187 319/343/199 320/345/200
f 309/346/189 308/344/188 320/345/200 321/347/201
f 310/348/190 309/346/189 321/347/201 322/349/202
f 311/350/191 310/348/190 322/349/202 323/351/203
f 312/327/192 311/350/191 323/351/203 324/328/204
f 313/329/193 324/328/204 336/352/216 325/353/205
f 314/331/194 313/329/193 325/353/205 326/354/206
f 315/333/195 314/331/194 326/354/206 327/355/207
f 316/335/196 315/333/195 327/355/207 328/356/208
f 317/337/197 316/335/196 328/356/208 329/357/209
f 318/339/198 317/337/197 329/357/209 330/358/210
f 319/343/199 318/342/198 330/359/210 331/360/211
f 320/345/200 319/343/199 331/360/211 332/361/212
f 321/347/201 320/345/200 332/361/212 333/362/213
f 322/349/202 321/347/201 333/362/213 334/363/214
f 323/351/203 322/349/202 334/363/214 335/364/215
f 324/328/204 323/351/203 335/364/215 336/352/216
f 325/353/205 336/352/216 348/365/228 337/366/217
f 326/354/206 325/353/205 337/366/217 338/367/218
f 327/355/207 326/354/206 338/367/218 339/368/219
f 328/356/208 327/355/207 339/368/219 340/369/220
f 329/357/209 328/356/208 340/369/220 341/370/221
f 330/358/210 329/357/209 341/370/221 342/371/222
f 331/360/211 330/359/210 342/372/222 343/373/223
f 332/361/212 331/360/211 343/373/223 344/374/224
f 333/362/213 332/361/212 344/374/224 345/375/225
f 334/363/214 333/362/213 345/375/225 346/376/226
f 335/364/215 334/363/214 346/376/226 347/377/227
f 336/352/216 335/364/215 347/377/227 348/365/228
f 337/366/217 348/365/228 360/378/240 349/379/229
f 338/367/218 337/366/217 349/379/229 350/380/230
f 339/368/219 338/367/218 350/380/230 351/381/231
f 340/369/220 339/368/219 351/381/231 352/382/232
f 341/370/221 340/369/220 352/382/232 353/383/233
f 342/371/222 341/370/221 353/383/233 354/384/234
f 343/373/223 342/372/222 354/385/234 355/386/235
f 344/374/224 343/373/223 355/386/235 356/387/236
f 345/375/225 344/374/224 356/387/236 357/388/237
f 346/376/226 345/375/225 357/388/237 358/389/238
f 347/377/227 346/376/226 358/389/238 359/390/239
f 348/365/228 347/377/227 359/390/239 360/378/240
f 349/379/229 360/378/240 372/391/252 361/392/241
f 350/380/230 349/379/229 361/392/241 362/393/242
f 351/381/231 350/380/230 362/393/242 363/394/243
f 352/382/232 351/381/231 363/394/243 364/395/244
f 353/383/233 352/382/232 364/395/244 365/396/245
f 354/384/234 353/383/233 365/396/245 366/397/246
f 355/386/235 354/385/234 366/398/246 367/399/247
f 356/387/236 355/386/235 367/399/247 368/400/248
f 357/388/237 356/387/236 368/400/248 369/401/249
f 358/389/238 357/388/237 369/401/249 370/402/250
f 359/390/239 358/389/238 370/402/250 371/403/251
f 360/378/240 359/390/239 371/403/251 372/391/252
f 361/392/241 372/391/252 384/404/264 373/405/253
f 362/393/242 361/392/241 373/405/253 374/406/254
f 363/394/243 362/393/242 374/406/254 375/407/255
f 364/395/244 363/394/243 375/407/255 376/408/256
f 365/396/245 364/395/244 376/408/256 377/409/257
f 366/397/246 365/396/245 377/409/257 378/410/258
f 367/399/247 366/398/246 378/411/258 379/412/259
f 368/400/248 367/399/247 379/412/259 380/413/260
f 369/401/249 368/400/248 380/413/260 381/414/261
f 370/402/250 369/401/249 381/414/261 382/415/262
f 371/403/251 370/402/250 382/415/262 383/416/263
f 372/391/252 371/403/251 383/416/263 384/404/264
f 373/405/253 384/404/264 396/417/276 385/418/265
f 374/406/254 373/405/253 385/418/265 386/419/266
f 375/407/255 374/406/254 386/419/266 387/420/267
f 376/408/256 375/407/255 387/420/267 388/421/268
f 377/409/257 376/408/256 388/421/268 389/422/269
f 378/410/258 377/409/257 389/422/269 390/423/270
f 379/412/259 378/411/258 390/424/270 391/425/271
f 380/413/260 379/412/259 391/425/271 392/426/272
f 381/414/261 380/413/260 392/426/272 393/427/273
f 382/415/262 381/414/261 393/427/273 394/428/274
f 383/416/263 382/415/262 394/428/274 395/429/275
f 384/404/264 383/416/263 395/429/275 396/417/276
f 385/418/265 396/417/276 408/430/288 397/431/277
f 386/419/266 385/418/265 397/431/277 398/432/278
f 387/420/267 386/419/266 398/432/278 399/433/279
f 388/421/268 387/420/267 399/433/279 400/434/280
f 389/422/269 388/421/268 400/434/280 401/435/281
f 390/423/270 389/422/269 401/435/281 402/436/282
f 391/425/271 390/424/270 402/437/282 403/438/283
f 392/426/272 391/425/271 403/438/283 404/439/284
f 393/427/273 392/426/272 404/439/284 405/440/285
f 394/428/274 393/427/273 405/440/285 406/441/286
f 395/429/275 394/428/274 406/441/286 407/442/287
f 396/417/276 395/429/275 407/442/287 408/430/288
f 397/431/277 408/430/288 420/443/300 409/444/289
f 398/432/278 397/431/277 409/444/289 410/445/290
f 399/433/279 398/432/278 410/445/290 411/446/291
f 400/434/280 399/433/279 411/446/291 412/447/292
f 401/435/281 400/434/280 412/447/292 413/448/293
f 402/436/282 401/435/281 413/448/293 414/449/294
f 403/438/283 402/437/282 414/450/294 415/451/295
f 404/439/284 403/438/283 415/451/295 416/452/296
f 405/440/285 404/439/284 416/452/296 417/453/297
f 406/441/286 405/440/285 417/453/297 418/454/298
f 407/442/287 406/441/286 418/454/298 419/455/299
f 408/430/288 407/442/287 419/455/299 420/443/300
f 409/444/289 420/443/300 432/456/312 421/457/301
f 410/445/290 409/444/289 421/457/301 422/458/302
f 411/446/291 410/445/290 422/458/302 423/459/303
f 412/447/292 411/446/291 423/459/303 424/460/304
f 413/448/293 412/447/292 424/460/304 425/461/305
f 414/449/294 413/448/293 425/461/305 426/462/306
f 415/451/295 414/450/294 426/463/306 427/464/307
f 416/452/296 415/451/295 427/464/307 428/465/308
f 417/453/297 416/452/296 428/465/308 429/466/309
f 418/454/298 417/453/297 429/466/309 430/467/310
f 419/455/299 418/454/298 430/467/310 431/468/311
f 420/443/300 419/455/299 431/468/311 432/456/312
f 421/457/301 432/456/312 444/469/324 433/470/313
f 422/458/302 421/457/301 433/470/313 434/471/314
f 423/459/303 422/458/302 434/471/314 435/472/315
f 424/460/304 423/459/303 435/472/315 436/473/316
f 425/461/305 424/460/304 436/473/316 437/474/317
f 426/462/306 425/461/305 437/474/317 438/475/318
f 427/464/307 426/463/306 438/476/318 439/477/319
f 428/465/308 427/464/307 439/477/319 440/478/320
f 429/466/309 428/465/308 440/478/320 441/479/321
f 430/467/310 429/466/309 441/479/321 442/480/322
f 431/468/311 430/467/310 442/480/322 443/481/323
f 432/456/312 431/468/311 443/481/323 444/469/324
f 433/470/313 444/469/324 456/482/336 445/483/325
f 434/471/314 433/470/313 445/483/325 446/484/326
f 435/472/315 434/471/314 446/484/326 447/485/327
f 436/473/316 435/472/315 447/485/327 448/486/328
f 437/474/317 436/473/316 448/486/328 449/487/329
f 438/475/318 437/474/317 449/487/329 450/488/330
f 439/477/319 438/476/318 450/489/330 451/490/331
f 440/478/320 439/477/319 451/490/331 452/491/332
f 441/479/321 440/478/320 452/491/332 453/492/333
f 442/480/322 441/479/321 453/492/333 454/493/334
f 443/481/323 442/480/322 454/493/334 455/494/335
f 444/469/324 443/481/323 455/494/335 456/482/336
f 445/483/325 456/482/336 468/495/348 457/496/337
f 446/484/326 445/483/325 457/496/337 458/497/338
f 447/485/327 446/484/326 458/497/338 459/498/339
f 448/486/328 447/485/327 459/498/339 460/499/340
f 449/487/329 448/486/328 460/499/340 461/500/341
f 450/488/330 449/487/329 461/500/341 462/501/342
f 451/490/331 450/489/330 462/502/342 463/503/343
f 452/491/332 451/490/331 463/503/343 464/504/344
f 453/492/333 452/491/332 464/504/344 465/505/345
f 454/493/334 453/492/333 465/505/345 466/506/346
f 455/494/335 454/493/334 466/506/346 467/507/347
f 456/482/336 455/494/335 467/507/347 468/495/348
f 457/496/337 468/495/348 480/508/358 469/509/349
f 458/497/338 457/496/337 469/509/349 470/510/350
f 459/498/339 458/497/338 470/510/350 471/511/171
f 460/499/340 459/498/339 471/511/171 472/512/351
f 461/500/341 460/499/340 472/512/351 473/513/352
f 462/501/342 461/500/341 473/513/352 474/514/353
f 463/503/343 462/502/342 474/515/353 475/516/354
f 464/504/344 463/503/343 475/516/354 476/517/355
f 465/505/345 464/504/344 476/517/355 477/518/177
f 466/506/346 465/505/345 477/518/177 478/519/356
f 467/507/347 466/506/346 478/519/356 479/520/357
f 468/495/348 467/507/347 479/520/357 480/508/358
f 469/509/349 480/508/358 492/521/358 481/522/349
f 470/510/350 469/509/349 481/522/349 482/523/350
f 471/511/171 470/510/350 482/523/350 483/524/171
f 472/512/351 471/511/171 483/524/171 484/525/351
f 473/513/352 472/512/351 484/525/351 485/526/352
f 474/514/353 473/513/352 485/526/352 486/527/353
f 475/516/354 474/515/353 486/528/353 487/529/354
f 476/517/355 475/516/354 487/529/354 488/530/355
f 477/518/177 476/517/355 488/530/355 489/531/177
f 478/519/356 477/518/177 489/531/177 490/532/356
f 479/520/357 478/519/356 490/532/356 491/533/357
f 480/508/358 479/520/357 491/533/357 492/521/358
f 481/522/349 492/521/358 504/534/358 493/535/349
f 482/523/350 481/522/349 493/535/349 494/536/350
f 483/524/171 482/523/350 494/536/350 495/537/171
f 484/525/351 483/524/171 495/537/171 496/538/351
f 485/526/352 484/525/351 496/538/351 497/539/352
f 486/527/353 485/526/352 497/539/352 498/540/353
f 487/529/354 486/528/353 498/541/353 499/542/354
f 488/530/355 487/529/354 499/542/354 500/543/355
f 489/531/177 488/530/355 500/543/355 501/544/177
f 490/532/356 489/531/177 501/544/177 502/545/356
f 491/533/357 490/532/356 502/545/356 503/546/357
f 492/521/358 491/533/357 503/546/357 504/534/358
f 493/535/349 504/534/358 516/547/358 505/548/349
f 494/536/350 493/535/349 505/548/349 506/549/350
f 495/537/171 494/536/350 506/549/350 507/550/171
f 496/538/351 495/537/171 507/550/171 508/551/351
f 497/539/352 496/538/351 508/551/351 509/552/352
f 498/540/353 497/539/352 509/552/352 510/553/353
f 499/542/354 498/541/353 510/554/353 511/555/354
f 500/543/355 499/542/354 511/555/354 512/556/355
f 501/544/177 500/543/355 512/556/355 513/557/177
f 502/545/356 501/544/177 513/557/177 514/558/356
f 503/546/357 502/545/356 514/558/356 515/559/357
f 504/534/358 503/546/357 515/559/357 516/547/358
f 505/548/349 516/547/358 528/560/358 517/561/349
f 506/549/350 505/548/349 517/561/349 518/562/350
f 507/550/171 506/549/350 518/562/350 519/563/171
f 508/551/351 507/550/171 519/563/171 520/564/351
f 509/552/352 508/551/351 520/564/351 521/565/352
f 510/553/353 509/552/352 521/565/352 522/566/353
f 511/555/354 510/554/353 522/567/353 523/568/354
f 512/556/355 511/555/354 523/568/354 524/569/355
f 513/557/177 512/556/355 524/569/355 525/570/177
f 514/558/356 513/557/177 525/570/177 526/571/356
f 515/559/357 514/558/356 526/571/356 527/572/357
f 516/547/358 515/559/357 527/572/357 528/560/358
f 517/561/349 528/560/358 540/573/358 529/574/349
f 518/562/350 517/561/349 529/574/349 530/575/350
f 519/563/171 518/562/350 530/575/350 531/576/171
f 520/564/351 519/563/171 531/576/171 532/577/351
f 521/565/352 520/564/351 532/577/351 533/578/352
f 522/566/353 521/565/352 533/578/352 534/579/353
f 523/568/354 522/567/353 534/580/353 535/581/354
f 524/569/355 523/568/354 535/581/354 536/582/355
f 525/570/177 524/569/355 536/582/355 537/583/177
f 526/571/356 525/570/177 537/583/177 538/584/356
f 527/572/357 526/571/356 538/584/356 539/585/357
f 528/560/358 527/572/357 539/585/357 540/573/358
f 529/574/349 540/573/358 552/586/358 541/587/349
f 530/575/350 529/574/349 541/587/349 542/588/350
f 531/576/171 530/575/350 542/588/350 543/589/171
f 532/577/351 531/576/171 543/589/171 544/590/351
f 533/578/352 532/577/351 544/590/351 545/591/352
f 534/579/353 533/578/352 545/591/352 546/592/353
f 535/581/354 534/580/353 546/593/353 547/594/354
f 536/582/355 535/581/354 547/594/354 548/595/355
f 537/583/177 536/582/355 548/595/355 549/596/177
f 538/584/356 537/583/177 549/596/177 550/597/356
f 539/585/357 538/584/356 550/597/356 551/598/357
f 540/573/358 539/585/357 551/598/357 552/586/358
f 541/587/349 552/586/358 564/599/358 553/600/349
f 542/588/350 541/587/349 553/600/349 554/601/350
f 543/589/171 542/588/350 554/601/350 555/602/171
f 544/590/351 543/589/171 555/602/171 556/603/351
f 545/591/352 544/590/351 556/603/351 557/604/352
f 546/592/353 545/591/352 557/604/352 558/605/353
f 547/594/354 546/593/353 558/606/353 559/607/354
f 548/595/355 547/594/354 559/607/354 560/608/355
f 549/596/177 548/595/355 560/608/355 561/609/177
f 550/597/356 549/596/177 561/609/177 562/610/356
f 551/598/357 550/597/356 562/610/356 563/611/357
f 552/586/358 551/598/357 563/611/357 564/599/358
f 553/600/349 564/599/358 576/612/358 565/613/349
f 554/601/350 553/600/349 565/613/349 566/614/350
f 555/602/171 554/601/350 566/614/350 567/615/171
f 556/603/351 555/602/171 567/615/171 568/616/351
f 557/604/352 556/603/351 568/616/351 569/617/352
f 558/605/353 557/604/352 569/617/352 570/618/353
f 559/607/354 558/606/353 570/619/353 571/620/354
f 560/608/355 559/607/354 571/620/354 572/621/355
f 561/609/177 560/608/355 572/621/355 573/622/177
f 562/610/356 561/609/177 573/622/177 574/623/356
f 563/611/357 562/610/356 574/623/356 575/624/357
f 564/599/358 563/611/357 575/624/357 576/612/358
f 565/613/349 576/612/358 588/625/358 577/626/349
f 566/614/350 565/613/349 577/626/349 578/627/350
f 567/615/171 566/614/350 578/627/350 579/628/171
f 568/616/351 567/615/171 579/628/171 580/629/351
f 569/617/352 568/616/351 580/629/351 581/630/352
f 570/618/353 569/617/352 581/630/352 582/631/353
f 571/620/354 570/619/353 582/632/353 583/633/354
f 572/621/355 571/620/354 583/633/354 584/634/355
f 573/622/177 572/621/355 584/634/355 585/635/177
f 574/623/356 573/622/177 585/635/177 586/636/356
f 575/624/357 574/623/356 586/636/356 587/637/357
f 576/612/358 575/624/357 587/637/357 588/625/358
f 577/626/349 588/625/358 600/638/358 589/639/349
f 578/627/350 577/626/349 589/639/349 590/640/350
f 579/628/171 578/627/350 590/640/350 591/641/171
f 580/629/351 579/628/171 591/641/171 592/642/351
f 581/630/352 580/629/351 592/642/351 593/643/352
f 582/631/353 581/630/352 593/643/352 594/644/353
f 583/633/354 582/632/353 594/645/353 595/646/354
f 584/634/355 583/633/354 595/646/354 596/647/355
f 585/635/177 584/634/355 596/647/355 597/648/177
f 586/636/356 585/635/177 597/648/177 598/649/356
f 587/637/357 586/636/356 598/649/356 599/650/357
f 588/625/358 587/637/357 599/650/357 600/638/358
f 640/651/398 625/652/383 606/653/364 634/654/392
f 638/655/396 619/656/377 605/657/363 633/658/391
f 637/659/395 620/660/378 602/661/360 636/662/394
f 639/663/397 626/664/384 603/665/361 635/666/393
f 635/667/393 603/668/361 604/669/362 632/670/390
f 646/671/404 601/672/359 602/673/360 641/674/399
f 650/675/408 628/676/386 610/677/368 643/678/401
f 648/679/406 622/680/380 609/681/367 644/682/402
f 629/683/387 609/684/367 610/685/368 628/686/386
f 624/687/382 607/688/365 608/689/366 621/690/379
f 647/691/405 623/692/381 617/693/375 641/694/399
f 649/695/407 629/696/387 614/697/372 642/698/400
f 622/699/380 618/700/376 617/701/375 623/702/381
f 642/703/400 614/704/372 613/705/371 645/706/403
f 627/707/385 612/708/370 611/709/369 630/710/388
f 631/711/389 616/712/374 615/713/373 636/714/394
f 609/684/367 622/699/380 623/702/381 610/685/368
f 643/678/401 610/677/368 623/692/381 647/691/405
f 616/715/374 624/716/382 621/717/379 615/718/373
f 646/719/404 618/720/376 622/680/380 648/679/406
f 634/654/392 606/653/364 620/660/378 637/659/395
f 631/721/389 601/722/359 619/656/377 638/655/396
f 607/688/365 627/707/385 630/710/388 608/689/366
f 644/682/402 609/681/367 629/696/387 649/695/407
f 614/704/372 629/683/387 628/686/386 613/705/371
f 645/723/403 613/724/371 628/676/386 650/675/408
f 633/658/391 605/657/363 626/664/384 639/663/397
f 632/725/390 604/726/362 625/652/383 640/651/398
f 611/727/369 632/725/390 640/651/398 630/728/388
f 607/729/365 633/658/391 639/663/397 627/730/385
f 616/731/374 631/721/389 638/655/396 624/732/382
f 608/733/366 634/654/392 637/659/395 621/734/379
f 601/672/359 631/735/389 636/736/394 602/673/360
f 612/708/370 635/667/393 632/670/390 611/709/369
f 627/730/385 639/663/397 635/666/393 612/737/370
f 621/734/379 637/659/395 636/662/394 615/738/373
f 624/732/382 638/655/396 633/658/391 607/729/365
f 630/728/388 640/651/398 634/654/392 608/733/366
f 604/726/362 645/723/403 650/675/408 625/652/383
f 605/657/363 644/682/402 649/695/407 626/664/384
f 601/722/359 646/719/404 648/679/406 619/656/377
f 606/653/364 643/678/401 647/691/405 620/660/378
f 603/739/361 642/703/400 645/706/403 604/740/362
f 626/664/384 649/695/407 642/698/400 603/665/361
f 620/660/378 647/691/405 641/694/399 602/661/360
f 619/656/377 648/679/406 644/682/402 605/657/363
f 625/652/383 650/675/408 643/678/401 606/653/364
f 618/700/376 646/671/404 641/674/399 617/701/375
f 690/741/398 675/742/383 656/743/364 684/744/392
f 688/745/396 669/746/377 655/747/363 683/748/391
f 687/749/395 670/750/378 652/751/360 686/752/394
f 689/753/397 676/754/384 653/755/361 685/756/393
f 685/757/393 653/758/361 654/759/362 682/760/390
f 696/761/404 651/762/359 652/763/360 691/764/399
f 700/765/408 678/766/386 660/767/368 693/768/401
f 698/769/406 672/770/380 659/771/367 694/772/402
f 679/773/387 659/774/367 660/775/368 678/776/386
f 674/777/382 657/778/365 658/779/366 671/780/379
f 697/781/405 673/782/381 667/783/375 691/784/399
f 699/785/407 679/786/387 664/787/372 692/788/400
f 672/789/380 668/790/376 667/791/375 673/792/381
f 692/793/400 664/794/372 663/795/410 695/796/403
f 677/797/385 662/798/370 661/799/409 680/800/388
f 681/801/389 666/802/374 665/803/373 686/804/394
f 659/774/367 672/789/380 673/792/381 660/775/368
f 693/768/401 660/767/368 673/782/381 697/781/405
f 666/802/374 674/777/382 671/780/379 665/803/373
f 696/805/404 668/806/376 672/770/380 698/769/406
f 684/744/392 656/743/364 670/750/378 687/749/395
f 681/807/389 651/808/359 669/746/377 688/745/396
f 657/778/365 677/797/385 680/800/388 658/779/366
f 694/772/402 659/771/367 679/786/387 699/785/407
f 664/794/372 679/773/387 678/776/386 663/795/410
f 695/809/403 663/810/410 678/766/386 700/765/408
f 683/748/391 655/747/363 676/754/384 689/753/397
f 682/811/390 654/812/362 675/742/383 690/741/398
f 661/813/409 682/811/390 690/741/398 680/814/388
f 657/815/365 683/748/391 689/753/397 677/816/385
f 666/817/374 681/807/389 688/745/396 674/818/382
f 658/819/366 684/744/392 687/749/395 671/820/379
f 651/762/359 681/801/389 686/804/394 652/763/360
f 662/798/370 685/757/393 682/760/390 661/799/409
f 677/816/385 689/753/397 685/756/393 662/821/370
f 671/820/379 687/749/395 686/752/394 665/822/373
f 674/818/382 688/745/396 683/748/391 657/815/365
f 680/814/388 690/741/398 684/744/392 658/819/366
f 654/812/362 695/809/403 700/765/408 675/742/383
f 655/747/363 694/772/402 699/785/407 676/754/384
f 651/808/359 696/805/404 698/769/406 669/746/377
f 656/743/364 693/768/401 697/781/405 670/750/378
f 653/823/361 692/793/400 695/796/403 654/824/362
f 676/754/384 699/785/407 692/788/400 653/755/361
f 670/750/378 697/781/405 691/784/399 652/751/360
f 669/746/377 698/769/406 694/772/402 655/747/363
f 675/742/383 700/765/408 693/768/401 656/743/364
f 668/790/376 696/761/404 691/764/399 667/791/375
f 740/825/450 725/826/435 706/827/416 734/828/444
f 738/829/448 719/830/429 705/831/415 733/832/443
f 737/833/447 720/834/430 702/835/412 736/836/446
f 739/837/449 726/838/436 703/839/413 735/840/445
f 735/841/445 703/842/413 704/843/414 732/844/442
f 746/845/456 701/846/411 702/847/412 741/848/451
f 750/849/460 728/850/438 710/851/420 743/852/453
f 748/853/458 722/854/432 709/855/419 744/856/454
f 729/857/439 709/858/419 710/859/420 728/860/438
f 724/861/434 707/862/417 708/863/418 721/864/431
f 747/865/457 723/866/433 717/867/427 741/868/451
f 749/869/459 729/870/439 714/871/424 742/872/452
f 722/873/432 718/874/428 717/875/427 723/876/433
f 742/877/452 714/878/424 713/879/423 745/880/455
f 727/881/437 712/882/422 711/883/421 730/884/440
f 731/885/441 716/886/426 715/887/425 736/888/446
f 709/858/419 722/873/432 723/876/433 710/859/420
f 743/852/453 710/851/420 723/866/433 747/865/457
f 716/886/426 724/861/434 721/864/431 715/887/425
f 746/889/456 718/890/428 722/854/432 748/853/458
f 734/828/444 706/827/416 720/834/430 737/833/447
f 731/891/441 701/892/411 719/830/429 738/829/448
f 707/862/417 727/881/437 730/884/440 708/863/418
f 744/856/454 709/855/419 729/870/439 749/869/459
f 714/878/424 729/857/439 728/860/438 713/879/423
f 745/893/455 713/894/423 728/850/438 750/849/460
f 733/832/443 705/831/415 726/838/436 739/837/449
f 732/895/442 704/896/414 725/826/435 740/825/450
f 711/897/421 732/895/442 740/825/450 730/898/440
f 707/899/417 733/832/443 739/837/449 727/900/437
f 716/901/426 731/891/441 738/829/448 724/902/434
f 708/903/418 734/828/444 737/833/447 721/904/431
f 701/905/411 731/885/441 736/888/446 702/906/412
f 712/882/422 735/841/445 732/844/442 711/883/421
f 727/900/437 739/837/449 735/840/445 712/907/422
f 721/904/431 737/833/447 736/836/446 715/908/425
f 724/902/434 738/829/448 733/832/443 707/899/417
f 730/898/440 740/825/450 734/828/444 708/903/418
f 704/896/414 745/893/455 750/849/460 725/826/435
f 705/831/415 744/856/454 749/869/459 726/838/436
f 701/892/411 746/889/456 748/853/458 719/830/429
f 706/827/416 743/852/453 747/865/457 720/834/430
f 703/842/413 742/877/452 745/880/455 704/843/414
f 726/838/436 749/869/459 742/872/452 703/839/413
f 720/834/430 747/865/457 741/868/451 702/835/412
f 719/830/429 748/853/458 744/856/454 705/831/415
f 725/826/435 750/849/460 743/852/453 706/827/416
f 718/874/428 746/845/456 741/848/451 717/875/427
f 751/909/461 753/910/463 754/911/464 752/912/462
f 753/910/463 757/913/467 758/914/468 754/911/464
f 757/913/467 755/915/465 756/916/466 758/914/468
f 755/915/465 751/917/461 752/918/462 756/916/466
f 753/919/463 751/920/461 755/915/465 757/913/467
f 758/914/468 756/916/466 752/921/462 754/922/464
