# Blender 4.1.1
# www.blender.org
mtllib Baril.mtl
o Baril
v 2.629392 11.183389 -2.629078
v 2.600783 -0.079164 -2.600403
v 2.631626 11.183482 2.627806
v 2.603481 -0.079276 2.598867
v -2.629392 11.183389 -2.629078
v -2.600783 -0.079164 -2.600403
v -2.631626 11.183482 2.627806
v -2.603481 -0.079276 2.598867
v -3.521499 -0.116531 -0.017153
v 3.560962 11.221330 -0.016981
v -3.560962 11.221330 -0.016981
v 3.521499 -0.116531 -0.017153
v 0.000000 -0.116502 -3.519492
v 0.000000 11.221071 3.563496
v 0.000000 -0.116219 3.524053
v 0.000000 11.221305 -3.558880
v -2.879605 0.239543 -2.939587
v 2.804666 11.184391 -2.802901
v 1.393852 -0.094207 3.189599
v 1.407152 11.198816 -3.229897
v 1.489652 11.201456 -3.449326
v 1.394159 -0.094298 -3.193546
v 1.406898 11.198740 3.225912
v 2.879606 -0.083438 2.819623
v -3.228010 11.198820 -1.418311
v 3.191700 -0.094305 -1.405211
v -3.191700 -0.094305 -1.405211
v 3.228010 11.198820 -1.418311
v -2.804666 11.184391 -2.802901
v 2.879606 0.239543 2.819623
v -3.448978 11.201456 -1.499714
v 2.879606 -0.083438 -2.939587
v -3.119020 -0.092938 1.613687
v 3.155148 11.197439 1.627370
v -3.155148 11.197439 1.627370
v 3.119020 -0.092938 1.613687
v 2.879606 0.239543 -2.939587
v 2.804666 11.184391 2.806432
v 3.374240 11.199978 1.717995
v -2.879605 -0.083438 -2.939587
v -1.394159 -0.094298 -3.193546
v -1.406898 11.198740 3.225912
v -1.529455 -0.100958 -3.603284
v -1.393852 -0.094207 3.189599
v -1.407152 11.198816 -3.229897
v -1.489652 11.201456 3.448631
v -2.879605 -0.083438 2.819623
v -2.804666 11.184391 2.806432
v -3.464397 -0.099440 1.702104
v -2.804666 10.837094 2.806432
v 2.856865 8.003746 -2.857653
v -2.856865 8.003746 2.856078
v 2.856865 8.003746 2.856078
v -2.856865 8.003746 -2.857653
v 3.872591 8.021486 -0.017469
v -3.872591 8.021486 -0.017469
v 0.000000 8.021486 -3.870861
v 0.000000 8.021486 3.874322
v 1.517377 8.011084 3.510229
v 1.517377 8.011084 -3.516108
v 3.513169 8.011084 -1.530211
v -3.513169 8.011084 -1.530211
v -3.437040 8.010448 1.747384
v 3.437040 8.010448 1.747384
v -1.517377 8.011084 -3.516108
v -1.517377 8.011084 3.510229
v 2.856865 3.580917 -2.857653
v 2.856865 3.580917 2.856078
v -2.856865 3.580917 -2.857653
v 3.872591 3.566685 -0.017469
v -3.872591 3.566685 -0.017469
v 0.000000 3.566685 -3.870861
v 0.000000 3.566685 3.874322
v 1.517377 3.575030 3.510229
v 1.517377 3.575030 -3.516108
v 3.513169 3.575030 -1.530211
v -3.513169 3.575030 -1.530211
v -3.437040 3.575541 1.747384
v 3.437040 3.575541 1.747384
v -1.517377 3.575030 -3.516108
v -1.517377 3.575030 3.510229
v -2.856865 3.580917 2.856078
v -2.767026 7.717658 2.767026
v 2.767026 7.717658 -2.767026
v 2.767026 7.717658 2.767026
v -2.767026 7.717658 -2.767026
v 3.750811 7.733312 -0.016157
v -3.750811 7.733312 -0.016157
v 0.000000 7.733312 -3.748372
v 0.000000 7.733312 3.753249
v 1.469660 7.724133 3.400606
v 1.469660 7.724133 -3.404776
v 3.402691 7.724133 -1.481328
v -3.402691 7.724133 -1.481328
v -3.328956 7.723573 1.693197
v 3.328956 7.723573 1.693197
v -1.469660 7.724133 -3.404776
v -1.469660 7.724133 3.400606
v -2.767026 8.201492 2.767026
v 2.767026 8.201492 -2.767026
v 2.767026 8.201492 2.767026
v -2.767026 8.201492 -2.767026
v 3.750811 8.220644 -0.016157
v -3.750811 8.220644 -0.016157
v 0.000000 8.220644 -3.748372
v 0.000000 8.220644 3.753249
v 1.469660 8.209414 3.400606
v 1.469660 8.209414 -3.404776
v 3.402691 8.209414 -1.481328
v -3.402691 8.209414 -1.481328
v -3.328956 8.208729 1.693197
v 3.328956 8.208729 1.693197
v -1.469660 8.209414 -3.404776
v -1.469660 8.209414 3.400606
v 2.767026 3.841481 -2.767026
v 2.767026 3.841481 2.767026
v -2.767026 3.841481 -2.767026
v 3.750811 3.829113 -0.016157
v -3.750811 3.829113 -0.016157
v 0.000000 3.829113 -3.748372
v 0.000000 3.829113 3.753249
v 1.469660 3.836365 3.400606
v 1.469660 3.836365 -3.404776
v 3.402691 3.836365 -1.481328
v -3.402691 3.836365 -1.481328
v -3.328956 3.836809 1.693197
v 3.328956 3.836809 1.693197
v -1.469660 3.836365 -3.404776
v -1.469660 3.836365 3.400606
v -2.767026 3.841481 2.767026
v 2.767026 3.378361 -2.767026
v 2.767026 3.378361 2.767026
v -2.767026 3.378361 -2.767026
v 3.750811 3.362646 -0.016157
v -3.750811 3.362646 -0.016157
v 0.000000 3.362646 -3.748372
v 0.000000 3.362646 3.753249
v 1.469660 3.371861 3.400606
v 1.469660 3.371861 -3.404776
v 3.402691 3.371861 -1.481328
v -3.402691 3.371861 -1.481328
v -3.328956 3.372425 1.693197
v 3.328956 3.372425 1.693197
v -1.469660 3.371861 -3.404776
v -1.469660 3.371861 3.400606
v -2.767026 3.378361 2.767026
v -2.767026 10.839668 2.767026
v 2.767026 10.839668 -2.767026
v 2.767026 10.839668 2.767026
v -2.767026 10.839668 -2.767026
v 3.750811 10.877892 -0.016157
v -3.750811 10.877892 -0.016157
v 0.000000 10.877892 -3.748372
v 0.000000 10.877892 3.753249
v 1.469660 10.855478 3.400606
v 1.469660 10.855478 -3.404776
v 3.402691 10.855478 -1.481328
v -3.402691 10.855478 -1.481328
v -3.328956 10.854109 1.693197
v 3.328956 10.854109 1.693197
v -1.469660 10.855478 -3.404776
v -1.469660 10.855478 3.400606
v 2.767026 0.232502 -2.767026
v 2.767026 0.232502 2.767026
v -2.767026 0.232502 -2.767026
v 3.750811 0.194045 -0.016157
v -3.750811 0.194045 -0.016157
v 0.000000 0.194045 -3.748372
v 0.000000 0.194045 3.753249
v 1.469660 0.216594 3.400606
v 1.469660 0.216594 -3.404776
v 3.402691 0.216594 -1.481328
v -3.402691 0.216594 -1.481328
v -3.328956 0.217973 1.693197
v 3.328956 0.217973 1.693197
v -1.469660 0.216594 -3.404776
v -1.469660 0.216594 3.400606
v -2.767026 0.232502 2.767026
v -1.469660 11.199139 3.400606
v -2.767026 11.182303 2.767026
v 3.328956 11.197681 1.693197
v 2.767026 11.182303 2.767026
v -3.402691 11.199139 -1.481328
v -2.767026 11.182303 -2.767026
v 1.469660 11.199139 -3.404776
v 2.767026 11.182303 -2.767026
v 3.402691 11.199139 -1.481328
v 3.750811 11.223003 -0.016157
v -3.328956 11.197681 1.693197
v -3.750811 11.223003 -0.016157
v 1.469660 11.199139 3.400606
v 0.000000 11.223003 3.753249
v -1.469660 11.199139 -3.404776
v 0.000000 11.223003 -3.748372
v 1.819722 10.868563 -0.014723
v 3.560962 10.898439 -0.016904
v -1.819722 10.868563 -0.014723
v 0.000000 10.859413 -0.013641
v 0.000000 10.868563 -1.825423
v 0.000000 10.870019 2.104851
v 0.000000 10.898180 3.563573
v 1.566911 10.868563 1.850959
v 1.406898 10.875850 3.225989
v 1.601618 10.868563 -1.608400
v 0.000000 10.898415 -3.558803
v 1.407152 10.875925 -3.229820
v 3.228010 10.875930 -1.418234
v -1.601618 10.868563 -1.608400
v 3.155148 10.874549 1.627447
v -1.566911 10.868563 1.850959
v -3.560962 10.898439 -0.016904
v -3.228010 10.875930 -1.418234
v -3.155148 10.874549 1.627447
v -1.407152 10.875925 -3.229820
v -1.406898 10.875850 3.225989
v -2.631626 10.860592 2.627883
v 2.631626 10.860592 2.627883
v -2.629392 10.860498 -2.629001
v 2.629392 10.860498 -2.629001
v 3.448978 11.201456 -1.499714
v 3.801833 11.225645 -0.014611
v -3.374240 11.199978 1.717995
v -3.801833 11.225645 -0.014611
v 1.489652 11.201456 3.448631
v -0.000000 11.225645 3.806071
v -1.489652 11.201456 -3.449326
v -0.000000 11.225645 -3.797596
v 2.804666 10.837094 -2.802901
v 2.804666 10.837094 2.806432
v -2.804666 10.837094 -2.802901
v 3.801833 10.875837 -0.014611
v -3.801833 10.875837 -0.014611
v -0.000000 10.875837 -3.797596
v -0.000000 10.875837 3.806071
v 1.489652 10.853121 3.448631
v 1.489652 10.853121 -3.449326
v 3.448978 10.853121 -1.499714
v -3.448978 10.853121 -1.499714
v -3.374240 10.851732 1.717995
v 3.374240 10.851732 1.717995
v -1.489652 10.853121 -3.449326
v -1.489652 10.853121 3.448631
v -3.328956 -0.093229 1.693197
v -2.767026 -0.077853 2.767026
v -1.469660 -0.094688 -3.404776
v -2.767026 -0.077853 -2.767026
v 1.469660 -0.094688 3.400606
v 2.767026 -0.077853 2.767026
v 3.402691 -0.094688 -1.481328
v 2.767026 -0.077853 -2.767026
v -3.402691 -0.094688 -1.481328
v -3.750811 -0.118554 -0.016157
v 3.328956 -0.093229 1.693197
v 3.750811 -0.118554 -0.016157
v 1.469660 -0.094688 -3.404776
v 0.000000 -0.118554 -3.748372
v -1.469660 -0.094688 3.400606
v 0.000000 -0.118554 3.753249
v -1.819722 0.331288 -0.014699
v -3.521499 0.301760 -0.017051
v 1.819722 0.331288 -0.014699
v -0.000000 0.340438 -0.013617
v -0.000000 0.331288 -1.825399
v -0.000000 0.329832 2.104876
v -0.000000 0.302073 3.524154
v 3.521499 0.301760 -0.017051
v 1.601618 0.331288 -1.608376
v 1.566911 0.331288 1.850984
v 1.393852 0.324084 3.189700
v -0.000000 0.301790 -3.519390
v 1.394159 0.323993 -3.193444
v -1.601618 0.331288 -1.608376
v -3.191700 0.323987 -1.405110
v 3.191700 0.323987 -1.405110
v -1.566911 0.331288 1.850984
v -3.119020 0.325354 1.613788
v 3.119020 0.325354 1.613788
v -1.394159 0.323993 -3.193444
v -1.393852 0.324084 3.189700
v -2.603481 0.339015 2.598968
v -2.600783 0.339128 -2.600302
v 2.603481 0.339015 2.598968
v 2.600783 0.339128 -2.600302
v 1.529455 -0.100958 3.478981
v 3.541133 -0.100958 -1.601580
v -3.541132 -0.100958 -1.601580
v -3.903416 -0.125795 -0.076796
v 3.464398 -0.099440 1.702104
v 3.903416 -0.125795 -0.076796
v 3.903416 0.199522 -0.076796
v -3.903416 0.199522 -0.076796
v 1.529455 -0.100958 -3.603284
v 0.000000 -0.125795 -3.960860
v -1.529455 -0.100958 3.478981
v 0.000000 -0.125795 3.845972
v 0.000000 0.199522 -3.960860
v 0.000000 0.199522 3.845972
v 1.529455 0.222989 3.478981
v 1.529455 0.222989 -3.603284
v 3.541133 0.222989 -1.601580
v -3.541132 0.222989 -1.601580
v -3.464397 0.224424 1.702104
v 3.464398 0.224424 1.702104
v -1.529455 0.222989 -3.603284
v -1.529455 0.222989 3.478981
v -2.879605 0.239543 2.819623
vn -0.4388 -0.0002 -0.8986
vn 0.0350 -0.9989 -0.0318
vn -0.0395 -0.9989 -0.0236
vn 0.2277 -0.0002 0.9737
vn 0.0300 -0.9989 -0.0365
vn 0.0313 -0.9988 0.0388
vn -0.0103 0.9988 0.0473
vn -0.2277 -0.0002 0.9737
vn -0.0042 0.9987 -0.0499
vn -0.8860 -0.0001 -0.4637
vn -0.2277 0.0002 0.9737
vn -0.8860 0.0001 -0.4637
vn 0.0385 -0.9988 0.0313
vn -0.9709 0.0001 -0.2396
vn -0.0037 0.9986 0.0536
vn 0.4412 0.0002 0.8974
vn 0.4388 -0.0002 -0.8986
vn -0.0088 0.9990 -0.0445
vn 0.2277 0.0002 0.9737
vn 0.9709 0.0001 -0.2396
vn 0.0246 -0.9989 -0.0388
vn 0.9729 -0.0001 0.2312
vn 0.8964 -0.0001 0.4432
vn 0.2333 -0.0002 -0.9724
vn -0.8964 -0.0001 0.4432
vn -0.2333 -0.0002 -0.9724
vn 0.8860 -0.0001 -0.4637
vn -0.9729 -0.0001 0.2312
vn 0.0461 0.9989 0.0097
vn -0.0350 -0.9989 -0.0318
vn -0.4388 0.0002 -0.8986
vn 0.9709 -0.0001 -0.2396
vn -0.9709 -0.0001 -0.2396
vn -0.4412 -0.0002 0.8974
vn 0.0455 0.9989 -0.0095
vn -0.0313 -0.9988 0.0388
vn 0.4412 -0.0002 0.8974
vn -0.9729 0.0001 0.2312
vn -0.8964 0.0001 0.4432
vn -0.2333 0.0002 -0.9724
vn -0.4412 0.0002 0.8974
vn 0.4388 0.0002 -0.8986
vn 0.8860 0.0001 -0.4637
vn 0.0042 0.9987 -0.0499
vn 0.2333 0.0002 -0.9724
vn 0.9729 0.0001 0.2312
vn -0.0518 0.9987 0.0020
vn 0.8964 0.0001 0.4432
vn -0.2136 -0.3789 0.9005
vn -0.4048 -0.3888 -0.8276
vn 0.8988 -0.3795 0.2195
vn -0.8173 -0.3887 0.4254
vn -0.8998 -0.3818 -0.2113
vn 0.8270 -0.3881 -0.4068
vn 0.2079 -0.3831 -0.9000
vn 0.4034 -0.3847 0.8302
vn 0.2136 -0.3789 0.9005
vn -0.2079 -0.3831 -0.9000
vn -0.8988 -0.3795 0.2195
vn 0.8998 -0.3818 -0.2113
vn 0.4048 -0.3888 -0.8276
vn 0.8173 -0.3887 0.4254
vn -0.8270 -0.3881 -0.4068
vn -0.4034 -0.3847 0.8302
vn -0.3800 -0.5075 0.7733
vn -0.7693 -0.5115 -0.3828
vn 0.7599 -0.5121 0.4003
vn 0.3808 -0.5123 -0.7698
vn 0.8397 -0.5039 -0.2025
vn -0.8395 -0.5012 0.2099
vn -0.1993 -0.5054 -0.8396
vn 0.2048 -0.5005 0.8412
vn 0.3800 -0.5075 0.7733
vn 0.1993 -0.5054 -0.8396
vn 0.7693 -0.5115 -0.3828
vn -0.8397 -0.5039 -0.2025
vn -0.7599 -0.5121 0.4003
vn 0.8395 -0.5012 0.2099
vn -0.3808 -0.5123 -0.7698
vn -0.2048 -0.5005 0.8412
vn -0.4388 -0.0000 0.8986
vn -0.8964 -0.0000 -0.4432
vn 0.8860 -0.0000 0.4636
vn 0.4412 -0.0000 -0.8974
vn 0.9729 -0.0000 -0.2312
vn -0.9709 -0.0000 0.2396
vn -0.2277 -0.0000 -0.9737
vn 0.2333 -0.0000 0.9724
vn 0.4388 -0.0000 0.8986
vn 0.2277 -0.0000 -0.9737
vn 0.8964 -0.0000 -0.4432
vn -0.9729 -0.0000 -0.2312
vn -0.8860 -0.0000 0.4636
vn 0.9709 -0.0000 0.2396
vn -0.4412 -0.0000 -0.8974
vn -0.2333 -0.0000 0.9724
vn -0.2042 0.5096 0.8358
vn -0.3789 0.5214 -0.7646
vn 0.8342 0.5103 0.2092
vn -0.7548 0.5213 0.3983
vn -0.8343 0.5130 -0.2020
vn 0.7641 0.5206 -0.3808
vn 0.1987 0.5145 -0.8341
vn 0.3781 0.5166 0.7682
vn 0.2042 0.5096 0.8358
vn -0.1987 0.5145 -0.8341
vn -0.8342 0.5103 0.2092
vn 0.8343 0.5130 -0.2020
vn 0.3789 0.5214 -0.7646
vn 0.7548 0.5213 0.3983
vn -0.7641 0.5206 -0.3808
vn -0.3781 0.5166 0.7682
vn -0.2108 0.4101 0.8874
vn -0.3988 0.4205 -0.8149
vn 0.8857 0.4106 0.2166
vn -0.8048 0.4203 0.4192
vn -0.8865 0.4131 -0.2085
vn 0.8143 0.4197 -0.4009
vn 0.2051 0.4145 -0.8866
vn 0.3976 0.4161 0.8178
vn 0.2108 0.4101 0.8874
vn -0.2051 0.4145 -0.8866
vn -0.8857 0.4106 0.2166
vn 0.8865 0.4131 -0.2085
vn 0.3988 0.4205 -0.8149
vn 0.8048 0.4203 0.4192
vn -0.8143 0.4197 -0.4009
vn -0.3976 0.4161 0.8178
vn -0.0190 -0.9977 -0.0653
vn -0.0295 0.9978 -0.0589
vn 0.0214 0.9994 0.0258
vn 0.0083 -0.9994 0.0341
vn 0.0460 -0.9989 0.0034
vn 0.0459 0.9986 -0.0253
vn 0.0396 -0.9992 0.0065
vn -0.0025 -0.9970 -0.0779
vn -0.0272 0.9994 0.0218
vn -0.0492 -0.9988 -0.0046
vn -0.0245 0.9994 0.0248
vn -0.0451 0.9983 -0.0371
vn 0.0295 0.9978 -0.0589
vn 0.0248 0.9994 0.0246
vn -0.0460 -0.9989 0.0034
vn 0.0245 0.9994 0.0248
vn -0.0107 0.9999 -0.0042
vn -0.0047 0.9999 0.0117
vn 0.0044 0.9999 -0.0107
vn 0.0107 0.9999 0.0044
vn -0.0079 0.9999 -0.0143
vn 0.0076 0.9999 0.0128
vn 0.0139 0.9999 -0.0088
vn -0.0142 0.9999 0.0080
vn 0.0142 0.9999 0.0080
vn 0.0107 0.9999 -0.0042
vn 0.0079 0.9999 -0.0143
vn -0.0044 0.9999 -0.0107
vn -0.0076 0.9999 0.0128
vn 0.0047 0.9999 0.0117
vn -0.0139 0.9999 -0.0088
vn -0.0107 0.9999 0.0044
vn -0.0045 1.0000 0.0041
vn 0.0107 0.9999 -0.0055
vn -0.0029 1.0000 0.0029
vn 0.0056 0.9999 -0.0122
vn 0.0045 1.0000 0.0041
vn -0.0107 0.9999 -0.0055
vn 0.0039 1.0000 -0.0039
vn 0.0055 0.9999 0.0108
vn -0.0039 1.0000 -0.0039
vn -0.0104 0.9999 0.0048
vn -0.0025 1.0000 -0.0028
vn 0.0104 0.9999 0.0048
vn 0.0025 1.0000 -0.0028
vn -0.0055 0.9999 0.0108
vn 0.0029 1.0000 0.0029
vn -0.0056 0.9999 -0.0122
vn 0.0103 0.9988 0.0473
vn -0.0516 0.9987 -0.0040
vn 0.0410 -0.9988 0.0250
vn 0.0518 0.9987 0.0020
vn -0.0385 -0.9988 0.0313
vn -0.0250 -0.9988 0.0417
vn -0.0300 -0.9989 -0.0365
vn -0.0246 -0.9989 -0.0388
vn 0.0516 0.9987 -0.0040
vn 0.0250 -0.9988 0.0417
vn 0.0395 -0.9989 -0.0236
vn 0.0088 0.9990 -0.0445
vn 0.0037 0.9986 0.0536
vn -0.0410 -0.9988 0.0250
vn -0.0461 0.9989 0.0097
vn -0.0455 0.9989 -0.0095
vn 0.0047 -0.9999 0.0116
vn -0.0106 -0.9999 0.0044
vn 0.0106 -0.9999 -0.0042
vn -0.0044 -0.9999 -0.0107
vn 0.0079 -0.9999 -0.0143
vn -0.0076 -0.9999 0.0128
vn 0.0142 -0.9999 0.0080
vn -0.0139 -0.9999 -0.0088
vn 0.0139 -0.9999 -0.0088
vn 0.0106 -0.9999 0.0044
vn -0.0079 -0.9999 -0.0143
vn 0.0044 -0.9999 -0.0107
vn 0.0076 -0.9999 0.0128
vn -0.0047 -0.9999 0.0116
vn -0.0142 -0.9999 0.0080
vn -0.0106 -0.9999 -0.0042
vn 0.0045 -1.0000 0.0041
vn -0.0109 -0.9999 -0.0055
vn 0.0029 -1.0000 0.0029
vn -0.0055 -0.9999 -0.0123
vn -0.0029 -1.0000 0.0029
vn 0.0055 -0.9999 -0.0123
vn 0.0054 -0.9999 0.0109
vn -0.0054 -0.9999 0.0109
vn 0.0039 -1.0000 -0.0039
vn -0.0025 -1.0000 -0.0028
vn 0.0025 -1.0000 -0.0028
vn -0.0105 -0.9999 0.0048
vn 0.0105 -0.9999 0.0048
vn -0.0039 -1.0000 -0.0039
vn -0.0045 -1.0000 0.0041
vn 0.0109 -0.9999 -0.0055
vn -0.0022 -0.9995 0.0309
vn 0.0025 -0.9970 -0.0779
vn -0.0379 0.9979 -0.0525
vn -0.0083 -0.9994 0.0341
vn -0.0452 -0.9989 -0.0093
vn -0.0214 0.9994 0.0258
vn -0.0248 0.9994 0.0246
vn -0.0396 -0.9992 0.0065
vn 0.0190 -0.9977 -0.0653
vn 0.0492 -0.9988 -0.0046
vn 0.0272 0.9994 0.0218
vn 0.0451 0.9983 -0.0371
vn 0.0452 -0.9989 -0.0093
vn -0.0459 0.9986 -0.0253
vn 0.0379 0.9979 -0.0525
vn 0.0022 -0.9995 0.0309
vt 0.565850 0.743043
vt 0.509906 0.739980
vt 0.492394 0.052893
vt 0.492394 0.000087
vt 0.492394 0.697151
vt 0.492394 0.624359
vt 0.066382 0.507942
vt 0.125065 0.507401
vt 0.492394 0.999913
vt 0.492394 0.937424
vt 0.492394 0.312533
vt 0.492394 0.250043
vt 0.562489 0.500000
vt 0.500000 0.500000
vt 0.183395 0.508526
vt 0.624978 0.749957
vt 0.687467 0.749957
vt 0.506761 0.693737
vt 0.565644 0.506578
vt 0.624978 0.506127
vt 0.241143 0.692540
vt 0.238188 0.738017
vt 0.492394 0.187864
vt 0.242631 0.624311
vt 0.687467 0.500000
vt 0.624978 0.500000
vt 0.684016 0.507068
vt 0.740161 0.509811
vt 0.740051 0.739980
vt 0.684368 0.743471
vt 0.500000 0.749957
vt 0.562489 0.749957
vt 0.008249 0.693032
vt 0.007515 0.624310
vt 0.492394 0.874935
vt 0.008633 0.566345
vt 0.011822 0.511754
vt 0.624978 0.743878
vt 0.238308 0.511754
vt 0.242082 0.565980
vt 0.742576 0.693321
vt 0.749957 0.562179
vt 0.749957 0.500000
vt 0.492394 0.749957
vt 0.183814 0.742126
vt 0.743820 0.624319
vt 0.506150 0.624319
vt 0.749957 0.749957
vt 0.749957 0.697151
vt 0.492394 0.500000
vt 0.492394 0.437511
vt 0.507084 0.565637
vt 0.509795 0.509811
vt 0.125065 0.742615
vt 0.066626 0.741615
vt 0.011941 0.738017
vt 0.743362 0.565329
vt 0.500000 0.624359
vt 0.500000 0.697151
vt 0.423091 0.874935
vt 0.428923 0.874935
vt 0.428923 0.937424
vt 0.423091 0.937424
vt 0.423091 0.250043
vt 0.428923 0.250043
vt 0.428923 0.312533
vt 0.423091 0.312533
vt 0.423091 0.624359
vt 0.428923 0.624359
vt 0.428923 0.697151
vt 0.423091 0.697151
vt 0.423091 0.000087
vt 0.428923 0.000087
vt 0.428923 0.052893
vt 0.423091 0.052893
vt 0.423091 0.125685
vt 0.428923 0.125685
vt 0.428923 0.187864
vt 0.423091 0.187864
vt 0.423091 0.500000
vt 0.428923 0.500000
vt 0.428923 0.562179
vt 0.423091 0.562179
vt 0.423091 0.375022
vt 0.428923 0.375022
vt 0.428923 0.437511
vt 0.423091 0.437511
vt 0.423091 0.749957
vt 0.428923 0.749957
vt 0.428923 0.812446
vt 0.423091 0.812446
vt 0.428923 0.999913
vt 0.423091 0.999913
vt 0.326765 0.937424
vt 0.331781 0.937424
vt 0.331781 0.999913
vt 0.326765 0.999913
vt 0.326766 0.187864
vt 0.331781 0.187864
vt 0.331781 0.250043
vt 0.326765 0.250043
vt 0.326766 0.697151
vt 0.331781 0.697151
vt 0.331781 0.749957
vt 0.326766 0.749957
vt 0.326765 0.437511
vt 0.331781 0.437511
vt 0.331781 0.500000
vt 0.326765 0.500000
vt 0.326765 0.562179
vt 0.331781 0.562179
vt 0.331781 0.624359
vt 0.326765 0.624359
vt 0.326766 0.052893
vt 0.331781 0.052893
vt 0.331781 0.125685
vt 0.326766 0.125685
vt 0.326765 0.312532
vt 0.331781 0.312533
vt 0.331781 0.375022
vt 0.326765 0.375022
vt 0.326765 0.812446
vt 0.331781 0.812446
vt 0.331781 0.874935
vt 0.326765 0.874935
vt 0.326765 0.000087
vt 0.331781 0.000087
vt 0.337046 0.937424
vt 0.337046 0.999913
vt 0.337046 0.187864
vt 0.337046 0.250043
vt 0.337046 0.697151
vt 0.337046 0.749957
vt 0.337046 0.437511
vt 0.337046 0.500000
vt 0.337046 0.562179
vt 0.337046 0.624359
vt 0.337046 0.052893
vt 0.337046 0.125685
vt 0.337046 0.312533
vt 0.337046 0.375022
vt 0.337046 0.812446
vt 0.337046 0.874935
vt 0.337046 0.000087
vt 0.433831 0.874935
vt 0.433831 0.937424
vt 0.433831 0.250043
vt 0.433831 0.312533
vt 0.433831 0.624359
vt 0.433831 0.697151
vt 0.433831 0.000087
vt 0.433831 0.052893
vt 0.433831 0.125685
vt 0.433831 0.187864
vt 0.433831 0.500000
vt 0.433831 0.562179
vt 0.433831 0.375022
vt 0.433831 0.437511
vt 0.433831 0.749957
vt 0.433831 0.812446
vt 0.433831 0.999913
vt 0.256933 0.874935
vt 0.256933 0.937424
vt 0.256933 0.250043
vt 0.256933 0.312533
vt 0.256933 0.624359
vt 0.256933 0.697151
vt 0.256933 0.000087
vt 0.256933 0.052893
vt 0.256933 0.125685
vt 0.256933 0.187864
vt 0.256933 0.500000
vt 0.256933 0.562179
vt 0.256933 0.375022
vt 0.256933 0.437511
vt 0.256933 0.749957
vt 0.256933 0.812446
vt 0.256933 0.999913
vt 0.492394 0.125685
vt 0.492394 0.562179
vt 0.492394 0.375022
vt 0.492394 0.812446
vt 0.187554 0.749957
vt 0.250043 0.749957
vt 0.187554 0.500000
vt 0.125065 0.500000
vt 0.000087 0.624359
vt 0.000087 0.697151
vt 0.000087 0.500000
vt 0.000087 0.562179
vt 0.125065 0.749957
vt 0.250043 0.624359
vt 0.250043 0.562179
vt 0.250043 0.697151
vt 0.500000 0.562179
vt 0.749957 0.624359
vt 0.687467 0.697151
vt 0.687467 0.562179
vt 0.687467 0.624359
vt 0.562489 0.562179
vt 0.624978 0.562179
vt 0.624978 0.624359
vt 0.562489 0.624359
vt 0.562489 0.697151
vt 0.624978 0.697151
vt 0.500000 0.937424
vt 0.500000 0.999913
vt 0.500000 0.187864
vt 0.500000 0.250043
vt 0.500000 0.437511
vt 0.500000 0.052893
vt 0.500000 0.125685
vt 0.500000 0.312533
vt 0.500000 0.375022
vt 0.500000 0.812446
vt 0.500000 0.874935
vt 0.500000 0.000087
vt 0.000087 0.749957
vt 0.062576 0.500000
vt 0.250043 0.500000
vt 0.062576 0.749957
vt 0.187554 0.697151
vt 0.187554 0.562179
vt 0.187554 0.624359
vt 0.062576 0.562179
vt 0.125065 0.562179
vt 0.125065 0.624359
vt 0.062576 0.624359
vt 0.062576 0.697151
vt 0.125065 0.697151
vt 0.250043 0.937424
vt 0.250043 0.999913
vt 0.250043 0.187864
vt 0.250043 0.250043
vt 0.250043 0.437511
vt 0.250043 0.052893
vt 0.250043 0.125685
vt 0.250043 0.312533
vt 0.250043 0.375022
vt 0.250043 0.812446
vt 0.250043 0.874935
vt 0.250043 0.000087
s 0
f 23/1/1 3/2/1 217/2/1 203/1/1
f 159/3/2 147/4/2 50/4/2 239/3/2
f 160/5/3 151/6/3 231/6/3 240/5/3
f 41/7/4 13/8/4 270/8/4 278/7/4
f 147/9/5 162/10/5 242/10/5 50/9/5
f 161/11/6 150/12/6 230/12/6 241/11/6
f 185/13/7 186/14/7 18/14/7 21/13/7
f 13/8/8 22/15/8 271/15/8 270/8/8
f 192/16/9 179/17/9 46/17/9 225/16/9
f 3/2/10 34/18/10 209/18/10 217/2/10
f 20/19/11 16/20/11 205/20/11 206/19/11
f 36/21/12 4/22/12 282/22/12 277/21/12
f 150/12/13 158/23/13 238/23/13 230/12/13
f 12/24/14 36/21/14 277/21/14 266/24/14
f 193/25/15 194/26/15 227/26/15 226/25/15
f 45/27/16 5/28/16 218/28/16 214/27/16
f 7/29/17 42/30/17 215/30/17 216/29/17
f 182/31/18 191/32/18 224/32/18 38/31/18
f 16/20/19 45/27/19 214/27/19 205/20/19
f 33/33/20 9/34/20 260/34/20 276/33/20
f 162/10/21 154/35/21 234/35/21 242/10/21
f 9/34/22 27/36/22 273/36/22 260/34/22
f 27/36/23 6/37/23 281/37/23 273/36/23
f 42/30/24 14/38/24 201/38/24 215/30/24
f 2/39/25 26/40/25 274/40/25 283/39/25
f 14/38/26 23/1/26 203/1/26 201/38/26
f 35/41/27 7/29/27 216/29/27 213/41/27
f 26/40/28 12/24/28 266/24/28 274/40/28
f 183/42/29 184/43/29 29/43/29 31/42/29
f 149/44/30 160/5/30 240/5/30 229/44/30
f 4/22/31 19/45/31 269/45/31 282/22/31
f 11/46/32 35/41/32 213/41/32 211/46/32
f 34/18/33 10/47/33 196/47/33 209/18/33
f 22/15/34 2/39/34 283/39/34 271/15/34
f 180/48/35 189/49/35 222/49/35 48/48/35
f 148/50/36 156/51/36 236/51/36 228/50/36
f 6/37/37 41/7/37 278/7/37 281/37/37
f 10/47/38 28/52/38 207/52/38 196/47/38
f 28/52/39 1/53/39 219/53/39 207/52/39
f 19/45/40 15/54/40 265/54/40 269/45/40
f 1/53/41 20/19/41 206/19/41 219/53/41
f 44/55/42 8/56/42 280/56/42 279/55/42
f 8/56/43 33/33/43 276/33/43 280/56/43
f 191/32/44 192/16/44 225/16/44 224/32/44
f 15/54/45 44/55/45 279/55/45 265/54/45
f 25/57/46 11/46/46 211/46/46 212/57/46
f 188/58/47 181/59/47 39/59/47 221/58/47
f 5/28/48 25/57/48 212/57/48 218/28/48
f 90/60/49 58/61/49 66/62/49 98/63/49
f 86/64/50 54/65/50 65/66/50 97/67/50
f 87/68/51 55/69/51 64/70/51 96/71/51
f 83/72/52 52/73/52 63/74/52 95/75/52
f 88/76/53 56/77/53 62/78/53 94/79/53
f 84/80/54 51/81/54 61/82/54 93/83/54
f 89/84/55 57/85/55 60/86/55 92/87/55
f 85/88/56 53/89/56 59/90/56 91/91/56
f 91/91/57 59/90/57 58/61/57 90/60/57
f 97/67/58 65/66/58 57/85/58 89/84/58
f 95/75/59 63/74/59 56/77/59 88/76/59
f 93/83/60 61/82/60 55/69/60 87/68/60
f 92/87/61 60/86/61 51/81/61 84/80/61
f 96/71/62 64/70/62 53/89/62 85/88/62
f 94/79/63 62/78/63 54/65/63 86/64/63
f 98/63/64 66/62/64 52/92/64 83/93/64
f 145/94/65 81/95/65 82/96/65 146/97/65
f 141/98/66 77/99/66 69/100/66 133/101/66
f 143/102/67 79/103/67 68/104/67 132/105/67
f 139/106/68 75/107/68 67/108/68 131/109/68
f 140/110/69 76/111/69 70/112/69 134/113/69
f 142/114/70 78/115/70 71/116/70 135/117/70
f 144/118/71 80/119/71 72/120/71 136/121/71
f 138/122/72 74/123/72 73/124/72 137/125/72
f 132/105/73 68/104/73 74/123/73 138/122/73
f 136/121/74 72/120/74 75/107/74 139/106/74
f 131/109/75 67/108/75 76/111/75 140/110/75
f 135/117/76 71/116/76 77/99/76 141/98/76
f 146/126/77 82/127/77 78/115/77 142/114/77
f 134/113/78 70/112/78 79/103/78 143/102/78
f 133/101/79 69/100/79 80/119/79 144/118/79
f 137/125/80 73/124/80 81/95/80 145/94/80
f 129/128/81 98/63/81 83/93/81 130/129/81
f 125/130/82 94/79/82 86/64/82 117/131/82
f 127/132/83 96/71/83 85/88/83 116/133/83
f 123/134/84 92/87/84 84/80/84 115/135/84
f 124/136/85 93/83/85 87/68/85 118/137/85
f 126/138/86 95/75/86 88/76/86 119/139/86
f 128/140/87 97/67/87 89/84/87 120/141/87
f 122/142/88 91/91/88 90/60/88 121/143/88
f 116/133/89 85/88/89 91/91/89 122/142/89
f 120/141/90 89/84/90 92/87/90 123/134/90
f 115/135/91 84/80/91 93/83/91 124/136/91
f 119/139/92 88/76/92 94/79/92 125/130/92
f 130/144/93 83/72/93 95/75/93 126/138/93
f 118/137/94 87/68/94 96/71/94 127/132/94
f 117/131/95 86/64/95 97/67/95 128/140/95
f 121/143/96 90/60/96 98/63/96 129/128/96
f 58/61/97 106/145/97 114/146/97 66/62/97
f 54/65/98 102/147/98 113/148/98 65/66/98
f 55/69/99 103/149/99 112/150/99 64/70/99
f 52/73/100 99/151/100 111/152/100 63/74/100
f 56/77/101 104/153/101 110/154/101 62/78/101
f 51/81/102 100/155/102 109/156/102 61/82/102
f 57/85/103 105/157/103 108/158/103 60/86/103
f 53/89/104 101/159/104 107/160/104 59/90/104
f 59/90/105 107/160/105 106/145/105 58/61/105
f 65/66/106 113/148/106 105/157/106 57/85/106
f 63/74/107 111/152/107 104/153/107 56/77/107
f 61/82/108 109/156/108 103/149/108 55/69/108
f 60/86/109 108/158/109 100/155/109 51/81/109
f 64/70/110 112/150/110 101/159/110 53/89/110
f 62/78/111 110/154/111 102/147/111 54/65/111
f 66/62/112 114/146/112 99/161/112 52/92/112
f 73/124/113 121/143/113 129/128/113 81/95/113
f 69/100/114 117/131/114 128/140/114 80/119/114
f 70/112/115 118/137/115 127/132/115 79/103/115
f 82/127/116 130/144/116 126/138/116 78/115/116
f 71/116/117 119/139/117 125/130/117 77/99/117
f 67/108/118 115/135/118 124/136/118 76/111/118
f 72/120/119 120/141/119 123/134/119 75/107/119
f 68/104/120 116/133/120 122/142/120 74/123/120
f 74/123/121 122/142/121 121/143/121 73/124/121
f 80/119/122 128/140/122 120/141/122 72/120/122
f 78/115/123 126/138/123 119/139/123 71/116/123
f 76/111/124 124/136/124 118/137/124 70/112/124
f 75/107/125 123/134/125 115/135/125 67/108/125
f 79/103/126 127/132/126 116/133/126 68/104/126
f 77/99/127 125/130/127 117/131/127 69/100/127
f 81/95/128 129/128/128 130/129/128 82/96/128
f 169/162/96 137/125/96 145/94/96 177/163/96
f 165/164/95 133/101/95 144/118/95 176/165/95
f 166/166/94 134/113/94 143/102/94 175/167/94
f 178/168/93 146/126/93 142/114/93 174/169/93
f 167/170/92 135/117/92 141/98/92 173/171/92
f 163/172/91 131/109/91 140/110/91 172/173/91
f 168/174/90 136/121/90 139/106/90 171/175/90
f 164/176/89 132/105/89 138/122/89 170/177/89
f 170/177/88 138/122/88 137/125/88 169/162/88
f 176/165/87 144/118/87 136/121/87 168/174/87
f 174/169/86 142/114/86 135/117/86 167/170/86
f 172/173/85 140/110/85 134/113/85 166/166/85
f 171/175/84 139/106/84 131/109/84 163/172/84
f 175/167/83 143/102/83 132/105/83 164/176/83
f 173/171/82 141/98/82 133/101/82 165/164/82
f 177/163/81 145/94/81 146/97/81 178/178/81
f 106/145/96 154/35/96 162/10/96 114/146/96
f 102/147/95 150/12/95 161/11/95 113/148/95
f 103/149/94 151/6/94 160/5/94 112/150/94
f 99/151/93 147/4/93 159/3/93 111/152/93
f 104/153/92 152/179/92 158/23/92 110/154/92
f 100/155/91 148/50/91 157/180/91 109/156/91
f 105/157/90 153/181/90 156/51/90 108/158/90
f 101/159/89 149/44/89 155/182/89 107/160/89
f 107/160/88 155/182/88 154/35/88 106/145/88
f 113/148/87 161/11/87 153/181/87 105/157/87
f 111/152/86 159/3/86 152/179/86 104/153/86
f 109/156/85 157/180/85 151/6/85 103/149/85
f 108/158/84 156/51/84 148/50/84 100/155/84
f 112/150/83 160/5/83 149/44/83 101/159/83
f 110/154/82 158/23/82 150/12/82 102/147/82
f 114/146/81 162/10/81 147/9/81 99/161/81
f 247/183/129 248/184/129 24/184/129 284/183/129
f 170/177/130 169/162/130 297/162/130 298/177/130
f 176/165/131 168/174/131 296/174/131 304/165/131
f 255/185/132 256/186/132 293/186/132 292/185/132
f 252/187/133 243/188/133 49/188/133 287/187/133
f 174/169/134 167/170/134 291/170/134 302/169/134
f 246/189/135 251/190/135 286/190/135 40/189/135
f 258/191/136 247/183/136 284/183/136 295/191/136
f 172/173/137 166/166/137 290/166/137 300/173/137
f 254/192/138 249/193/138 285/193/138 289/192/138
f 171/175/139 163/172/139 37/172/139 299/175/139
f 175/167/140 164/176/140 30/176/140 303/167/140
f 169/162/141 177/163/141 305/163/141 297/162/141
f 173/171/142 165/164/142 17/164/142 301/171/142
f 253/194/143 254/192/143 289/192/143 288/194/143
f 165/164/144 176/165/144 304/165/144 17/164/144
f 42/30/145 7/29/145 180/48/145 179/17/145
f 34/18/146 3/2/146 182/31/146 181/59/146
f 25/57/147 5/28/147 184/43/147 183/42/147
f 20/19/148 1/53/148 186/14/148 185/13/148
f 28/52/149 10/47/149 188/58/149 187/195/149
f 35/41/150 11/46/150 190/196/150 189/49/150
f 23/1/151 14/38/151 192/16/151 191/32/151
f 45/27/152 16/20/152 194/26/152 193/25/152
f 16/20/153 20/19/153 185/13/153 194/26/153
f 3/2/154 23/1/154 191/32/154 182/31/154
f 11/46/155 25/57/155 183/42/155 190/196/155
f 1/53/156 28/52/156 187/195/156 186/14/156
f 10/47/157 34/18/157 181/59/157 188/58/157
f 7/29/158 35/41/158 189/49/158 180/48/158
f 14/38/159 42/30/159 179/17/159 192/16/159
f 5/28/160 45/27/160 193/25/160 184/43/160
f 210/197/161 213/41/161 216/29/161 215/30/161
f 208/198/162 212/57/162 211/46/162 197/199/162
f 204/200/163 199/201/163 198/202/163 195/203/163
f 202/204/164 200/205/164 201/38/164 203/1/164
f 209/18/165 202/204/165 203/1/165 217/2/165
f 207/52/166 204/200/166 195/203/166 196/47/166
f 219/53/167 206/19/167 204/200/167 207/52/167
f 206/19/168 205/20/168 199/201/168 204/200/168
f 214/27/169 218/28/169 212/57/169 208/198/169
f 196/47/170 195/203/170 202/204/170 209/18/170
f 195/203/171 198/202/171 200/205/171 202/204/171
f 197/199/172 211/46/172 213/41/172 210/197/172
f 198/202/173 197/199/173 210/197/173 200/205/173
f 205/20/174 214/27/174 208/198/174 199/201/174
f 199/201/175 208/198/175 197/199/175 198/202/175
f 200/205/176 210/197/176 215/30/176 201/38/176
f 242/10/81 46/206/81 48/207/81 50/9/81
f 238/23/82 31/208/82 29/209/82 230/12/82
f 240/5/83 39/59/83 38/31/83 229/44/83
f 236/51/84 21/210/84 18/14/84 228/50/84
f 237/180/85 220/195/85 221/58/85 231/6/85
f 239/3/86 222/211/86 223/212/86 232/179/86
f 241/11/87 226/213/87 227/214/87 233/181/87
f 235/182/88 224/215/88 225/216/88 234/35/88
f 229/44/89 38/31/89 224/215/89 235/182/89
f 233/181/90 227/214/90 21/210/90 236/51/90
f 228/50/91 18/14/91 220/195/91 237/180/91
f 232/179/92 223/212/92 31/208/92 238/23/92
f 50/4/93 48/217/93 222/211/93 239/3/93
f 231/6/94 221/58/94 39/59/94 240/5/94
f 230/12/95 29/209/95 226/213/95 241/11/95
f 234/35/96 225/216/96 46/206/96 242/10/96
f 184/43/177 193/25/177 226/25/177 29/43/177
f 187/195/178 188/58/178 221/58/178 220/195/178
f 158/23/179 152/179/179 232/179/179 238/23/179
f 189/49/180 190/196/180 223/196/180 222/49/180
f 157/180/181 148/50/181 228/50/181 237/180/181
f 156/51/182 153/181/182 233/181/182 236/51/182
f 155/182/183 149/44/183 229/44/183 235/182/183
f 154/35/184 155/182/184 235/182/184 234/35/184
f 190/196/185 183/42/185 31/42/185 223/196/185
f 153/181/186 161/11/186 241/11/186 233/181/186
f 152/179/187 159/3/187 239/3/187 232/179/187
f 179/17/188 180/48/188 48/48/188 46/17/188
f 194/26/189 185/13/189 21/13/189 227/26/189
f 151/6/190 157/180/190 237/180/190 231/6/190
f 186/14/191 187/195/191 220/195/191 18/14/191
f 181/59/192 182/31/192 38/31/192 39/59/192
f 33/33/193 8/56/193 244/218/193 243/188/193
f 41/7/194 6/37/194 246/189/194 245/219/194
f 19/45/195 4/22/195 248/184/195 247/183/195
f 26/40/196 2/39/196 250/220/196 249/193/196
f 27/36/197 9/34/197 252/187/197 251/190/197
f 36/21/198 12/24/198 254/192/198 253/194/198
f 22/15/199 13/8/199 256/186/199 255/185/199
f 44/55/200 15/54/200 258/191/200 257/221/200
f 15/54/201 19/45/201 247/183/201 258/191/201
f 2/39/202 22/15/202 255/185/202 250/220/202
f 12/24/203 26/40/203 249/193/203 254/192/203
f 6/37/204 27/36/204 251/190/204 246/189/204
f 9/34/205 33/33/205 243/188/205 252/187/205
f 4/22/206 36/21/206 253/194/206 248/184/206
f 13/8/207 41/7/207 245/219/207 256/186/207
f 8/56/208 44/55/208 257/221/208 244/218/208
f 268/222/209 277/21/209 282/22/209 269/45/209
f 267/223/210 274/40/210 266/24/210 261/224/210
f 272/225/211 263/226/211 262/227/211 259/228/211
f 275/229/212 264/230/212 265/54/212 279/55/212
f 263/226/213 267/223/213 261/224/213 262/227/213
f 264/230/214 268/222/214 269/45/214 265/54/214
f 270/8/215 271/15/215 267/223/215 263/226/215
f 278/7/216 270/8/216 263/226/216 272/225/216
f 271/15/217 283/39/217 274/40/217 267/223/217
f 262/227/218 261/224/218 268/222/218 264/230/218
f 259/228/219 262/227/219 264/230/219 275/229/219
f 261/224/220 266/24/220 277/21/220 268/222/220
f 260/34/221 259/228/221 275/229/221 276/33/221
f 281/37/222 278/7/222 272/225/222 273/36/222
f 276/33/223 275/229/223 279/55/223 280/56/223
f 273/36/224 272/225/224 259/228/224 260/34/224
f 294/231/81 305/163/81 306/178/81 47/232/81
f 286/233/82 301/171/82 17/164/82 40/234/82
f 288/194/83 303/167/83 30/176/83 24/184/83
f 292/235/84 299/175/84 37/172/84 32/220/84
f 285/193/85 300/173/85 290/166/85 289/192/85
f 49/236/86 302/169/86 291/170/86 287/237/86
f 43/238/87 304/165/87 296/174/87 293/239/87
f 284/240/88 298/177/88 297/162/88 295/241/88
f 24/184/89 30/176/89 298/177/89 284/240/89
f 293/239/90 296/174/90 299/175/90 292/235/90
f 32/220/91 37/172/91 300/173/91 285/193/91
f 287/237/92 291/170/92 301/171/92 286/233/92
f 47/242/93 306/168/93 302/169/93 49/236/93
f 289/192/94 290/166/94 303/167/94 288/194/94
f 40/234/95 17/164/95 304/165/95 43/238/95
f 295/241/96 297/162/96 305/163/96 294/231/96
f 250/220/225 255/185/225 292/185/225 32/220/225
f 257/221/226 258/191/226 295/191/226 294/221/226
f 164/176/227 170/177/227 298/177/227 30/176/227
f 256/186/228 245/219/228 43/219/228 293/186/228
f 248/184/229 253/194/229 288/194/229 24/184/229
f 168/174/230 171/175/230 299/175/230 296/174/230
f 163/172/231 172/173/231 300/173/231 37/172/231
f 249/193/232 250/220/232 32/220/232 285/193/232
f 244/218/233 257/221/233 294/221/233 47/218/233
f 251/190/234 252/187/234 287/187/234 286/190/234
f 167/170/235 173/171/235 301/171/235 291/170/235
f 178/168/236 174/169/236 302/169/236 306/168/236
f 243/188/237 244/218/237 47/218/237 49/188/237
f 166/166/238 175/167/238 303/167/238 290/166/238
f 177/163/239 178/178/239 306/178/239 305/163/239
f 245/219/240 246/189/240 40/189/240 43/219/240
