# Blender 4.1.1
# www.blender.org
mtllib Caisse1_1.mtl
o Cube.001
v 0.843784 -0.919804 -0.554438
v 0.843784 0.917831 -0.554438
v 0.843784 -0.919804 -0.916709
v 0.843784 0.917831 -0.916709
v 0.945496 -0.919804 -0.554438
v 0.945496 0.917831 -0.554438
v 0.945496 -0.919804 -0.916709
v 0.945496 0.917831 -0.916709
v 0.843784 -0.919804 -0.177551
v 0.843784 0.917831 -0.177551
v 0.843784 -0.919804 -0.539823
v 0.843784 0.917831 -0.539823
v 0.945496 -0.919804 -0.177551
v 0.945496 0.917831 -0.177551
v 0.945496 -0.919804 -0.539823
v 0.945496 0.917831 -0.539823
v 0.843784 -0.919804 0.204360
v 0.843784 0.917831 0.204360
v 0.843784 -0.919804 -0.157912
v 0.843784 0.917831 -0.157912
v 0.945496 -0.919804 0.204360
v 0.945496 0.917831 0.204360
v 0.945496 -0.919804 -0.157912
v 0.945496 0.917831 -0.157912
v 0.843784 -0.924829 0.586271
v 0.843784 0.912806 0.586271
v 0.843784 -0.924829 0.224000
v 0.843784 0.912806 0.224000
v 0.945496 -0.924829 0.586271
v 0.945496 0.912806 0.586271
v 0.945496 -0.924829 0.224000
v 0.945496 0.912806 0.224000
v 0.843784 -0.925796 0.958133
v 0.843784 0.911838 0.958133
v 0.843784 -0.925796 0.595861
v 0.843784 0.911838 0.595861
v 0.945496 -0.925796 0.958133
v 0.945496 0.911838 0.958133
v 0.945496 -0.925796 0.595861
v 0.945496 0.911838 0.595861
v -0.979743 -0.919804 -0.568910
v -0.979743 0.917831 -0.568910
v -0.979743 -0.919804 -0.931182
v -0.979743 0.917831 -0.931182
v -0.878031 -0.919804 -0.568910
v -0.878031 0.917831 -0.568910
v -0.878031 -0.919804 -0.931182
v -0.878031 0.917831 -0.931182
v -0.979743 -0.919804 -0.192024
v -0.979743 0.917831 -0.192024
v -0.979743 -0.919804 -0.554295
v -0.979743 0.917831 -0.554295
v -0.878031 -0.919804 -0.192024
v -0.878031 0.917831 -0.192024
v -0.878031 -0.919804 -0.554295
v -0.878031 0.917831 -0.554295
v -0.979743 -0.919804 0.189888
v -0.979743 0.917831 0.189888
v -0.979743 -0.919804 -0.172384
v -0.979743 0.917831 -0.172384
v -0.878031 -0.919804 0.189888
v -0.878031 0.917831 0.189888
v -0.878031 -0.919804 -0.172384
v -0.878031 0.917831 -0.172384
v -0.979743 -0.924829 0.571799
v -0.979743 0.912806 0.571799
v -0.979743 -0.924829 0.209527
v -0.979743 0.912806 0.209527
v -0.878031 -0.924829 0.571799
v -0.878031 0.912806 0.571799
v -0.878031 -0.924829 0.209527
v -0.878031 0.912806 0.209527
v -0.979743 -0.925796 0.943660
v -0.979743 0.911838 0.943660
v -0.979743 -0.925796 0.581389
v -0.979743 0.911838 0.581389
v -0.878031 -0.925796 0.943660
v -0.878031 0.911838 0.943660
v -0.878031 -0.925796 0.581389
v -0.878031 0.911838 0.581389
v -0.608413 -0.919804 0.954044
v -0.608413 0.917831 0.954044
v -0.970683 -0.919804 0.952882
v -0.970683 0.917831 0.952882
v -0.608087 -0.919804 0.852332
v -0.608087 0.917831 0.852332
v -0.970357 -0.919804 0.851170
v -0.970357 0.917831 0.851170
v -0.231529 -0.919804 0.955253
v -0.231529 0.917831 0.955253
v -0.593798 -0.919804 0.954091
v -0.593798 0.917831 0.954091
v -0.231203 -0.919804 0.853541
v -0.231203 0.917831 0.853541
v -0.593472 -0.919804 0.852379
v -0.593472 0.917831 0.852379
v 0.150381 -0.919804 0.956478
v 0.150381 0.917831 0.956478
v -0.211889 -0.919804 0.955316
v -0.211889 0.917831 0.955316
v 0.150707 -0.919804 0.854766
v 0.150707 0.917831 0.854766
v -0.211563 -0.919804 0.853604
v -0.211563 0.917831 0.853604
v 0.532290 -0.924829 0.957703
v 0.532290 0.912806 0.957703
v 0.170020 -0.924829 0.956541
v 0.170020 0.912806 0.956541
v 0.532616 -0.924829 0.855991
v 0.532616 0.912806 0.855991
v 0.170347 -0.924829 0.854829
v 0.170347 0.912806 0.854829
v 0.904150 -0.925796 0.958895
v 0.904150 0.911838 0.958895
v 0.541880 -0.925796 0.957733
v 0.541880 0.911838 0.957733
v 0.904476 -0.925796 0.857184
v 0.904476 0.911838 0.857184
v 0.542206 -0.925796 0.856022
v 0.542206 0.911838 0.856022
v -0.586705 -0.919804 -0.869483
v -0.586705 0.917831 -0.869483
v -0.948974 -0.919804 -0.870645
v -0.948974 0.917831 -0.870645
v -0.586378 -0.919804 -0.971194
v -0.586378 0.917831 -0.971194
v -0.948648 -0.919804 -0.972356
v -0.948648 0.917831 -0.972356
v -0.209820 -0.919804 -0.868274
v -0.209820 0.917831 -0.868274
v -0.572090 -0.919804 -0.869436
v -0.572090 0.917831 -0.869436
v -0.209494 -0.919804 -0.969986
v -0.209494 0.917831 -0.969986
v -0.571764 -0.919804 -0.971147
v -0.571764 0.917831 -0.971147
v 0.172089 -0.919804 -0.867049
v 0.172089 0.917831 -0.867049
v -0.190180 -0.919804 -0.868211
v -0.190180 0.917831 -0.868211
v 0.172416 -0.919804 -0.968760
v 0.172416 0.917831 -0.968760
v -0.189854 -0.919804 -0.969923
v -0.189854 0.917831 -0.969923
v 0.553999 -0.924829 -0.865824
v 0.553999 0.912806 -0.865824
v 0.191729 -0.924829 -0.866986
v 0.191729 0.912806 -0.866986
v 0.554325 -0.924829 -0.967535
v 0.554325 0.912806 -0.967535
v 0.192055 -0.924829 -0.968698
v 0.192055 0.912806 -0.968698
v 0.925858 -0.925796 -0.864631
v 0.925858 0.911838 -0.864631
v 0.563589 -0.925796 -0.865793
v 0.563589 0.911838 -0.865793
v 0.926185 -0.925796 -0.966343
v 0.926185 0.911838 -0.966343
v 0.563915 -0.925796 -0.967505
v 0.563915 0.911838 -0.967505
v -0.593941 -0.872598 0.907623
v -0.593941 -0.874061 -0.930011
v -0.956210 -0.873760 0.907624
v -0.956210 -0.875223 -0.930010
v -0.593614 -0.974310 0.907704
v -0.593614 -0.975772 -0.929930
v -0.955884 -0.975471 0.907705
v -0.955884 -0.976934 -0.929929
v -0.217057 -0.871389 0.907622
v -0.217057 -0.872852 -0.930012
v -0.579326 -0.872551 0.907623
v -0.579326 -0.874014 -0.930011
v -0.216730 -0.973101 0.907703
v -0.216730 -0.974563 -0.929931
v -0.579000 -0.974262 0.907704
v -0.579000 -0.975725 -0.929930
v 0.164853 -0.870164 0.907621
v 0.164853 -0.871627 -0.930012
v -0.197417 -0.871326 0.907623
v -0.197417 -0.872789 -0.930012
v 0.165179 -0.971875 0.907702
v 0.165179 -0.973338 -0.929932
v -0.197090 -0.973038 0.907703
v -0.197090 -0.974500 -0.929931
v 0.546763 -0.868935 0.912645
v 0.546763 -0.870398 -0.924988
v 0.184493 -0.870097 0.912646
v 0.184493 -0.871560 -0.924988
v 0.547089 -0.970647 0.912726
v 0.547089 -0.972109 -0.924908
v 0.184819 -0.971809 0.912727
v 0.184819 -0.973271 -0.924907
v 0.918622 -0.867742 0.913612
v 0.918622 -0.869204 -0.924022
v 0.556352 -0.868904 0.913613
v 0.556352 -0.870366 -0.924021
v 0.918948 -0.969453 0.913692
v 0.918948 -0.970916 -0.923941
v 0.556678 -0.970615 0.913693
v 0.556678 -0.972078 -0.923940
v -0.598926 0.951177 0.879306
v -0.598926 0.949714 -0.958328
v -0.961195 0.950015 0.879307
v -0.961195 0.948552 -0.958327
v -0.598599 0.849466 0.879387
v -0.598599 0.848003 -0.958247
v -0.960869 0.848304 0.879388
v -0.960869 0.846841 -0.958246
v -0.222041 0.952386 0.879305
v -0.222041 0.950923 -0.958329
v -0.584311 0.951224 0.879306
v -0.584311 0.949761 -0.958328
v -0.221715 0.850674 0.879386
v -0.221715 0.849212 -0.958248
v -0.583985 0.849513 0.879387
v -0.583985 0.848050 -0.958247
v 0.159868 0.953611 0.879304
v 0.159868 0.952148 -0.958329
v -0.202401 0.952449 0.879306
v -0.202401 0.950986 -0.958329
v 0.160194 0.851900 0.879385
v 0.160194 0.850437 -0.958249
v -0.202075 0.850738 0.879386
v -0.202075 0.849275 -0.958248
v 0.541778 0.954840 0.884328
v 0.541778 0.953377 -0.953305
v 0.179508 0.953678 0.884329
v 0.179508 0.952215 -0.953305
v 0.542104 0.853129 0.884409
v 0.542104 0.851666 -0.953225
v 0.179834 0.851967 0.884410
v 0.179834 0.850504 -0.953224
v 0.913637 0.956033 0.885295
v 0.913637 0.954571 -0.952339
v 0.551367 0.954871 0.885296
v 0.551367 0.953409 -0.952338
v 0.913963 0.854322 0.885375
v 0.913963 0.852859 -0.952258
v 0.551694 0.853160 0.885376
v 0.551694 0.851698 -0.952257
v 1.024248 0.993023 0.709410
v 1.024248 -1.024550 0.709410
v 1.024248 0.993023 1.003669
v 1.024248 -1.024550 1.003669
v 0.729989 0.993023 0.709410
v 0.729989 -1.024550 0.709410
v 0.729989 0.993023 1.003669
v 0.729989 -1.024550 1.003669
v 0.998198 0.993023 -0.992549
v 0.998198 -1.024550 -0.992549
v 0.998198 0.993023 -0.698289
v 0.998198 -1.024550 -0.698289
v 0.703939 0.993023 -0.992549
v 0.703939 -1.024550 -0.992549
v 0.703939 0.993023 -0.698289
v 0.703939 -1.024550 -0.698289
v -0.729811 0.993023 -1.018599
v -0.729811 -1.024550 -1.018599
v -0.729811 0.993023 -0.724340
v -0.729811 -1.024550 -0.724340
v -1.024070 0.993023 -1.018599
v -1.024070 -1.024550 -1.018599
v -1.024070 0.993023 -0.724340
v -1.024070 -1.024550 -0.724340
v -0.721127 0.993023 0.692043
v -0.721127 -1.024550 0.692043
v -0.721127 0.993023 0.986302
v -0.721127 -1.024550 0.986302
v -1.015387 0.993023 0.692043
v -1.015387 -1.024550 0.692043
v -1.015387 0.993023 0.986302
v -1.015387 -1.024550 0.986302
v -0.718134 -0.726477 0.687022
v -0.718134 -0.716473 -0.716007
v -0.718134 -1.020733 0.686007
v -0.718134 -1.010729 -0.717022
v -1.012394 -0.726477 0.687022
v -1.012394 -0.716473 -0.716007
v -1.012394 -1.020733 0.686007
v -1.012394 -1.010729 -0.717022
v -0.730341 0.975227 0.693052
v -0.730341 0.985231 -0.709977
v -0.730341 0.680971 0.692038
v -0.730341 0.690975 -0.710992
v -1.024601 0.975227 0.693052
v -1.024601 0.985231 -0.709977
v -1.024601 0.680971 0.692038
v -1.024601 0.690975 -0.710992
v 1.010409 -0.726477 0.699082
v 1.010409 -0.716473 -0.703947
v 1.010409 -1.020733 0.698068
v 1.010409 -1.010729 -0.704962
v 0.716150 -0.726477 0.699082
v 0.716150 -0.716473 -0.703947
v 0.716150 -1.020733 0.698068
v 0.716150 -1.010729 -0.704962
v 0.709088 -0.726477 0.700530
v -0.693941 -0.716473 0.699842
v 0.708073 -1.020733 0.700530
v -0.694956 -1.010729 0.699842
v 0.708944 -0.726477 0.994790
v -0.694085 -0.716473 0.994102
v 0.707929 -1.020733 0.994789
v -0.695100 -1.010729 0.994101
v 0.697028 -0.726477 -0.999981
v -0.706001 -0.716473 -1.000669
v 0.696013 -1.020733 -0.999982
v -0.707016 -1.010729 -1.000669
v 0.696883 -0.726477 -0.705721
v -0.706146 -0.716473 -0.706409
v 0.695869 -1.020733 -0.705722
v -0.707160 -1.010729 -0.706410
v 0.690998 0.980064 -0.999981
v -0.712032 0.990068 -1.000669
v 0.689983 0.685808 -0.999982
v -0.713046 0.695812 -1.000669
v 0.690853 0.980064 -0.705722
v -0.712176 0.990068 -0.706410
v 0.689839 0.685808 -0.705722
v -0.713190 0.695812 -0.706410
v 0.709088 0.980064 0.688469
v -0.693941 0.990068 0.687782
v 0.708073 0.685808 0.688469
v -0.694956 0.695812 0.687781
v 0.708944 0.980064 0.982729
v -0.694085 0.990068 0.982041
v 0.707929 0.685808 0.982729
v -0.695100 0.695812 0.982041
v 1.014177 0.994603 0.700288
v 1.014177 1.004607 -0.702741
v 1.014177 0.700347 0.699274
v 1.014177 0.710352 -0.703756
v 0.719917 0.994603 0.700288
v 0.719917 1.004607 -0.702741
v 0.719917 0.700347 0.699274
v 0.719917 0.710352 -0.703756
v 0.865934 -0.702442 0.842425
v 0.865934 0.884589 -0.500476
v 0.865934 -0.967182 0.529558
v 0.865934 0.619849 -0.813343
v 0.981003 -0.702442 0.842425
v 0.981003 0.884589 -0.500476
v 0.981003 -0.967182 0.529558
v 0.981003 0.619849 -0.813343
v -1.000357 -0.692947 0.758559
v -1.000357 0.894084 -0.584342
v -1.000357 -0.957687 0.445692
v -1.000357 0.629344 -0.897209
v -0.885288 -0.692947 0.758559
v -0.885288 0.894084 -0.584342
v -0.885288 -0.957687 0.445692
v -0.885288 0.629344 -0.897209
v -0.879720 -0.682499 0.861242
v 0.463181 0.904532 0.861467
v -0.566853 -0.947238 0.861295
v 0.776048 0.639792 0.861519
v -0.879739 -0.682499 0.976312
v 0.463162 0.904532 0.976535
v -0.566872 -0.947238 0.976364
v 0.776029 0.639792 0.976588
v -0.825297 -0.680599 -0.988750
v 0.517604 0.906431 -0.988526
v -0.512430 -0.945339 -0.988697
v 0.830471 0.641692 -0.988473
v -0.825316 -0.680599 -0.873681
v 0.517585 0.906431 -0.873457
v -0.512449 -0.945339 -0.873629
v 0.830452 0.641692 -0.873404
v 0.665533 0.864046 0.824665
v -0.921471 0.854897 -0.518236
v 0.930268 0.865573 0.511798
v -0.656736 0.856423 -0.831103
v 0.664869 0.979113 0.824665
v -0.922135 0.969964 -0.518236
v 0.929605 0.980639 0.511798
v -0.657400 0.971490 -0.831103
v 0.672256 -0.990476 0.854744
v -0.914748 -0.999625 -0.488157
v 0.936991 -0.988949 0.541876
v -0.650013 -0.998099 -0.801025
v 0.671592 -0.875409 0.854744
v -0.915412 -0.884558 -0.488157
v 0.936328 -0.873882 0.541876
v -0.650676 -0.883032 -0.801025
v 0.641893 -1.009108 0.791719
v -0.945117 -1.000976 -0.551182
v 0.906629 -1.010465 0.478852
v -0.680380 -1.002333 -0.864049
v 0.642482 -0.894041 0.791719
v -0.944527 -0.885909 -0.551182
v 0.907218 -0.895397 0.478852
v -0.679791 -0.887266 -0.864049
vn -1.0000 -0.0000 -0.0000
vn -0.0000 -0.0000 -1.0000
vn 1.0000 -0.0000 -0.0000
vn -0.0000 -0.0000 1.0000
vn -0.0000 -1.0000 -0.0000
vn -0.0000 1.0000 -0.0000
vn -0.0032 -0.0000 1.0000
vn -1.0000 -0.0000 -0.0032
vn 0.0032 -0.0000 -1.0000
vn 1.0000 -0.0000 0.0032
vn -0.0032 1.0000 -0.0008
vn -1.0000 -0.0032 -0.0000
vn 0.0032 -1.0000 0.0008
vn 1.0000 0.0032 -0.0000
vn -0.0000 0.0008 1.0000
vn -0.0000 -0.0008 -1.0000
vn -0.0000 -1.0000 -0.0071
vn -0.0000 1.0000 0.0071
vn -0.0000 -0.0034 1.0000
vn -0.0000 0.0034 -1.0000
vn 0.0005 -0.0000 -1.0000
vn -0.0071 -1.0000 -0.0000
vn -0.0005 -0.0000 1.0000
vn 0.0071 1.0000 -0.0000
vn 1.0000 -0.0034 0.0005
vn -1.0000 0.0034 -0.0005
vn -0.0000 -0.6460 -0.7634
vn -0.0000 0.6460 0.7634
vn -0.0000 -0.7634 0.6460
vn -0.0000 0.7634 -0.6460
vn 0.0002 -0.0000 -1.0000
vn 0.7634 -0.6460 0.0001
vn -0.0002 -0.0000 1.0000
vn -0.7634 0.6460 -0.0001
vn -0.6460 -0.7634 -0.0001
vn 0.6460 0.7634 0.0001
vn 0.0058 -1.0000 -0.0000
vn 0.6459 0.0037 -0.7634
vn -0.0058 1.0000 -0.0000
vn -0.6459 -0.0037 0.7634
vn 0.7634 0.0044 0.6460
vn -0.7634 -0.0044 -0.6460
vn 0.7634 -0.0039 0.6460
vn 0.6459 -0.0033 -0.7634
vn -0.0051 -1.0000 -0.0000
vn -0.6459 0.0033 0.7634
vn -0.7634 0.0039 -0.6460
vn 0.0051 1.0000 -0.0000
vt 0.791895 0.166895
vt 0.833105 0.166895
vt 0.833105 0.208105
vt 0.791895 0.208105
vt 0.833105 0.249315
vt 0.791895 0.249315
vt 0.833105 0.290525
vt 0.791895 0.290525
vt 0.833105 0.331734
vt 0.791895 0.331734
vt 0.750685 0.249315
vt 0.750685 0.290525
vt 0.874315 0.249315
vt 0.874315 0.290525
vt 0.791895 0.333105
vt 0.833105 0.333105
vt 0.833105 0.374315
vt 0.791895 0.374315
vt 0.833105 0.415525
vt 0.791895 0.415525
vt 0.833105 0.456735
vt 0.791895 0.456735
vt 0.833105 0.497944
vt 0.791895 0.497944
vt 0.750685 0.415525
vt 0.750685 0.456735
vt 0.874315 0.415525
vt 0.874315 0.456735
vt 0.541895 0.333105
vt 0.583105 0.333105
vt 0.583105 0.374315
vt 0.541895 0.374315
vt 0.583105 0.415525
vt 0.541895 0.415525
vt 0.583105 0.456735
vt 0.541895 0.456735
vt 0.583105 0.497944
vt 0.541895 0.497944
vt 0.500685 0.415525
vt 0.500685 0.456735
vt 0.624315 0.415525
vt 0.624315 0.456735
vt 0.666895 0.000685
vt 0.708105 0.000685
vt 0.708105 0.041895
vt 0.666895 0.041895
vt 0.708105 0.083105
vt 0.666895 0.083105
vt 0.708105 0.124315
vt 0.666895 0.124315
vt 0.708105 0.165525
vt 0.666895 0.165525
vt 0.625685 0.083105
vt 0.625685 0.124315
vt 0.749315 0.083105
vt 0.749315 0.124315
vt 0.916895 0.499315
vt 0.958105 0.499315
vt 0.958105 0.540525
vt 0.916895 0.540525
vt 0.958105 0.581734
vt 0.916895 0.581734
vt 0.958105 0.622944
vt 0.916895 0.622944
vt 0.958105 0.664154
vt 0.916895 0.664154
vt 0.875685 0.581734
vt 0.875685 0.622944
vt 0.999315 0.581734
vt 0.999315 0.622944
vt 0.416895 0.000685
vt 0.458105 0.000685
vt 0.458105 0.041895
vt 0.416895 0.041895
vt 0.458105 0.083105
vt 0.416895 0.083105
vt 0.458105 0.124315
vt 0.416895 0.124315
vt 0.458105 0.165525
vt 0.416895 0.165525
vt 0.375685 0.083105
vt 0.375685 0.124315
vt 0.499315 0.083105
vt 0.499315 0.124315
vt 0.666895 0.166895
vt 0.708105 0.166895
vt 0.708105 0.208105
vt 0.666895 0.208105
vt 0.708105 0.249315
vt 0.666895 0.249315
vt 0.708105 0.290525
vt 0.666895 0.290525
vt 0.708105 0.331735
vt 0.666895 0.331735
vt 0.625685 0.249315
vt 0.625685 0.290525
vt 0.749315 0.249315
vt 0.749315 0.290525
vt 0.791895 0.499315
vt 0.833105 0.499315
vt 0.833105 0.540525
vt 0.791895 0.540525
vt 0.833105 0.581735
vt 0.791895 0.581735
vt 0.833105 0.622945
vt 0.791895 0.622945
vt 0.833105 0.664154
vt 0.791895 0.664154
vt 0.750685 0.581735
vt 0.750685 0.622945
vt 0.874315 0.581735
vt 0.874315 0.622945
vt 0.041895 0.499315
vt 0.083105 0.499315
vt 0.083105 0.540525
vt 0.041895 0.540525
vt 0.083105 0.581735
vt 0.041895 0.581735
vt 0.083105 0.622945
vt 0.041895 0.622945
vt 0.083105 0.664154
vt 0.041895 0.664154
vt 0.000685 0.581735
vt 0.000685 0.622945
vt 0.124315 0.581735
vt 0.124315 0.622945
vt 0.666895 0.333105
vt 0.708105 0.333105
vt 0.708105 0.374315
vt 0.666895 0.374315
vt 0.708105 0.415525
vt 0.666895 0.415525
vt 0.708105 0.456735
vt 0.666895 0.456735
vt 0.708105 0.497944
vt 0.666895 0.497944
vt 0.625685 0.415525
vt 0.625685 0.456735
vt 0.749315 0.415525
vt 0.749315 0.456735
vt 0.666895 0.499315
vt 0.708105 0.499315
vt 0.708105 0.540525
vt 0.666895 0.540525
vt 0.708105 0.581735
vt 0.666895 0.581735
vt 0.708105 0.622945
vt 0.666895 0.622945
vt 0.708105 0.664154
vt 0.666895 0.664154
vt 0.625685 0.581735
vt 0.625685 0.622945
vt 0.749315 0.581735
vt 0.749315 0.622945
vt 0.041895 0.000685
vt 0.083105 0.000685
vt 0.083105 0.041895
vt 0.041895 0.041895
vt 0.083105 0.083105
vt 0.041895 0.083105
vt 0.083105 0.124315
vt 0.041895 0.124315
vt 0.083105 0.165525
vt 0.041895 0.165525
vt 0.000685 0.083105
vt 0.000685 0.124315
vt 0.124315 0.083105
vt 0.124315 0.124315
vt 0.041895 0.665525
vt 0.083105 0.665525
vt 0.083105 0.706735
vt 0.041895 0.706735
vt 0.083105 0.747945
vt 0.041895 0.747945
vt 0.083105 0.789154
vt 0.041895 0.789154
vt 0.083105 0.830364
vt 0.041895 0.830364
vt 0.000685 0.747945
vt 0.000685 0.789154
vt 0.124315 0.747945
vt 0.124315 0.789154
vt 0.166895 0.665525
vt 0.208105 0.665525
vt 0.208105 0.706735
vt 0.166895 0.706735
vt 0.208105 0.747945
vt 0.166895 0.747945
vt 0.208105 0.789154
vt 0.166895 0.789154
vt 0.208105 0.830364
vt 0.166895 0.830364
vt 0.125685 0.747945
vt 0.125685 0.789154
vt 0.249315 0.747945
vt 0.249315 0.789154
vt 0.166895 0.000685
vt 0.208105 0.000685
vt 0.208105 0.041895
vt 0.166895 0.041895
vt 0.208105 0.083105
vt 0.166895 0.083105
vt 0.208105 0.124315
vt 0.166895 0.124315
vt 0.208105 0.165525
vt 0.166895 0.165525
vt 0.125685 0.083105
vt 0.125685 0.124315
vt 0.249315 0.083105
vt 0.249315 0.124315
vt 0.916895 0.665525
vt 0.958105 0.665525
vt 0.958105 0.706734
vt 0.916895 0.706734
vt 0.958105 0.747944
vt 0.916895 0.747944
vt 0.958105 0.789154
vt 0.916895 0.789154
vt 0.958105 0.830364
vt 0.916895 0.830364
vt 0.875685 0.747944
vt 0.875685 0.789154
vt 0.999315 0.747944
vt 0.999315 0.789154
vt 0.291895 0.831735
vt 0.333105 0.831735
vt 0.333105 0.872945
vt 0.291895 0.872945
vt 0.333105 0.914154
vt 0.291895 0.914154
vt 0.333105 0.955364
vt 0.291895 0.955364
vt 0.333105 0.996574
vt 0.291895 0.996574
vt 0.250685 0.914154
vt 0.250685 0.955364
vt 0.374315 0.914154
vt 0.374315 0.955364
vt 0.416895 0.831735
vt 0.458105 0.831735
vt 0.458105 0.872945
vt 0.416895 0.872945
vt 0.458105 0.914154
vt 0.416895 0.914154
vt 0.458105 0.955364
vt 0.416895 0.955364
vt 0.458105 0.996574
vt 0.416895 0.996574
vt 0.375685 0.914154
vt 0.375685 0.955364
vt 0.499315 0.914154
vt 0.499315 0.955364
vt 0.291895 0.166895
vt 0.333105 0.166895
vt 0.333105 0.208105
vt 0.291895 0.208105
vt 0.333105 0.249315
vt 0.291895 0.249315
vt 0.333105 0.290525
vt 0.291895 0.290525
vt 0.333105 0.331735
vt 0.291895 0.331735
vt 0.250685 0.249315
vt 0.250685 0.290525
vt 0.374315 0.249315
vt 0.374315 0.290525
vt 0.541895 0.831735
vt 0.583105 0.831735
vt 0.583105 0.872945
vt 0.541895 0.872945
vt 0.583105 0.914154
vt 0.541895 0.914154
vt 0.583105 0.955364
vt 0.541895 0.955364
vt 0.583105 0.996574
vt 0.541895 0.996574
vt 0.500685 0.914154
vt 0.500685 0.955364
vt 0.624315 0.914154
vt 0.624315 0.955364
vt 0.791895 0.665525
vt 0.833105 0.665525
vt 0.833105 0.706735
vt 0.791895 0.706735
vt 0.833105 0.747944
vt 0.791895 0.747944
vt 0.833105 0.789154
vt 0.791895 0.789154
vt 0.833105 0.830364
vt 0.791895 0.830364
vt 0.750685 0.747944
vt 0.750685 0.789154
vt 0.874315 0.747944
vt 0.874315 0.789154
vt 0.041895 0.831735
vt 0.083105 0.831735
vt 0.083105 0.872945
vt 0.041895 0.872945
vt 0.083105 0.914154
vt 0.041895 0.914154
vt 0.083105 0.955364
vt 0.041895 0.955364
vt 0.083105 0.996574
vt 0.041895 0.996574
vt 0.000685 0.914154
vt 0.000685 0.955364
vt 0.124315 0.914154
vt 0.124315 0.955364
vt 0.166895 0.499315
vt 0.208105 0.499315
vt 0.208105 0.540525
vt 0.166895 0.540525
vt 0.208105 0.581735
vt 0.166895 0.581735
vt 0.208105 0.622945
vt 0.166895 0.622945
vt 0.208105 0.664154
vt 0.166895 0.664154
vt 0.125685 0.581735
vt 0.125685 0.622945
vt 0.249315 0.581735
vt 0.249315 0.622945
vt 0.291895 0.665525
vt 0.333105 0.665525
vt 0.333105 0.706735
vt 0.291895 0.706735
vt 0.333105 0.747945
vt 0.291895 0.747945
vt 0.333105 0.789154
vt 0.291895 0.789154
vt 0.333105 0.830364
vt 0.291895 0.830364
vt 0.250685 0.747945
vt 0.250685 0.789154
vt 0.374315 0.747945
vt 0.374315 0.789154
vt 0.291895 0.000685
vt 0.333105 0.000685
vt 0.333105 0.041895
vt 0.291895 0.041895
vt 0.333105 0.083105
vt 0.291895 0.083105
vt 0.333105 0.124315
vt 0.291895 0.124315
vt 0.333105 0.165525
vt 0.291895 0.165525
vt 0.250685 0.083105
vt 0.250685 0.124315
vt 0.374315 0.083105
vt 0.374315 0.124315
vt 0.166895 0.166895
vt 0.208105 0.166895
vt 0.208105 0.208105
vt 0.166895 0.208105
vt 0.208105 0.249315
vt 0.166895 0.249315
vt 0.208105 0.290525
vt 0.166895 0.290525
vt 0.208105 0.331735
vt 0.166895 0.331735
vt 0.125685 0.249315
vt 0.125685 0.290525
vt 0.249315 0.249315
vt 0.249315 0.290525
vt 0.041895 0.333105
vt 0.083105 0.333105
vt 0.083105 0.374315
vt 0.041895 0.374315
vt 0.083105 0.415525
vt 0.041895 0.415525
vt 0.083105 0.456735
vt 0.041895 0.456735
vt 0.083105 0.497944
vt 0.041895 0.497944
vt 0.000685 0.415525
vt 0.000685 0.456735
vt 0.124315 0.415525
vt 0.124315 0.456735
vt 0.166895 0.333105
vt 0.208105 0.333105
vt 0.208105 0.374315
vt 0.166895 0.374315
vt 0.208105 0.415525
vt 0.166895 0.415525
vt 0.208105 0.456735
vt 0.166895 0.456735
vt 0.208105 0.497944
vt 0.166895 0.497944
vt 0.125685 0.415525
vt 0.125685 0.456735
vt 0.249315 0.415525
vt 0.249315 0.456735
vt 0.416895 0.166895
vt 0.458105 0.166895
vt 0.458105 0.208105
vt 0.416895 0.208105
vt 0.458105 0.249315
vt 0.416895 0.249315
vt 0.458105 0.290525
vt 0.416895 0.290525
vt 0.458105 0.331735
vt 0.416895 0.331735
vt 0.375685 0.249315
vt 0.375685 0.290525
vt 0.499315 0.249315
vt 0.499315 0.290525
vt 0.416895 0.665525
vt 0.458105 0.665525
vt 0.458105 0.706735
vt 0.416895 0.706735
vt 0.458105 0.747945
vt 0.416895 0.747945
vt 0.458105 0.789155
vt 0.416895 0.789155
vt 0.458105 0.830364
vt 0.416895 0.830364
vt 0.375685 0.747945
vt 0.375685 0.789155
vt 0.499315 0.747945
vt 0.499315 0.789155
vt 0.416895 0.333105
vt 0.416895 0.374315
vt 0.458105 0.374315
vt 0.458105 0.333105
vt 0.416895 0.415525
vt 0.458105 0.415525
vt 0.416895 0.456735
vt 0.458105 0.456735
vt 0.416895 0.497944
vt 0.458105 0.497944
vt 0.375685 0.415525
vt 0.375685 0.456735
vt 0.499315 0.456735
vt 0.499315 0.415525
vt 0.541895 0.000685
vt 0.541895 0.041895
vt 0.583105 0.041895
vt 0.583105 0.000685
vt 0.541895 0.083105
vt 0.583105 0.083105
vt 0.541895 0.124315
vt 0.583105 0.124315
vt 0.541895 0.165525
vt 0.583105 0.165525
vt 0.500685 0.083105
vt 0.500685 0.124315
vt 0.624315 0.124315
vt 0.624315 0.083105
vt 0.666895 0.831735
vt 0.666895 0.872945
vt 0.708105 0.872945
vt 0.708105 0.831735
vt 0.666895 0.914154
vt 0.708105 0.914154
vt 0.666895 0.955364
vt 0.708105 0.955364
vt 0.666895 0.996574
vt 0.708105 0.996574
vt 0.625685 0.914154
vt 0.625685 0.955364
vt 0.749315 0.955364
vt 0.749315 0.914154
vt 0.916895 0.000685
vt 0.916895 0.041895
vt 0.958105 0.041895
vt 0.958105 0.000685
vt 0.916895 0.083105
vt 0.958105 0.083105
vt 0.916895 0.124315
vt 0.958105 0.124315
vt 0.916895 0.165525
vt 0.958105 0.165525
vt 0.875685 0.083105
vt 0.875685 0.124315
vt 0.999315 0.124315
vt 0.999315 0.083105
vt 0.916895 0.166895
vt 0.916895 0.208105
vt 0.958105 0.208105
vt 0.958105 0.166895
vt 0.916895 0.249315
vt 0.958105 0.249315
vt 0.916895 0.290525
vt 0.958105 0.290525
vt 0.916895 0.331735
vt 0.958105 0.331735
vt 0.875685 0.249315
vt 0.875685 0.290525
vt 0.999315 0.290525
vt 0.999315 0.249315
vt 0.291895 0.333105
vt 0.291895 0.374315
vt 0.333105 0.374315
vt 0.333105 0.333105
vt 0.291895 0.415525
vt 0.333105 0.415525
vt 0.291895 0.456735
vt 0.333105 0.456735
vt 0.291895 0.497944
vt 0.333105 0.497944
vt 0.250685 0.415525
vt 0.250685 0.456735
vt 0.374315 0.456735
vt 0.374315 0.415525
vt 0.666895 0.665525
vt 0.666895 0.706735
vt 0.708105 0.706735
vt 0.708105 0.665525
vt 0.666895 0.747945
vt 0.708105 0.747945
vt 0.666895 0.789154
vt 0.708105 0.789154
vt 0.666895 0.830364
vt 0.708105 0.830364
vt 0.625685 0.747945
vt 0.625685 0.789154
vt 0.749315 0.789154
vt 0.749315 0.747945
vt 0.541895 0.665525
vt 0.541895 0.706735
vt 0.583105 0.706735
vt 0.583105 0.665525
vt 0.541895 0.747945
vt 0.583105 0.747945
vt 0.541895 0.789154
vt 0.583105 0.789154
vt 0.541895 0.830364
vt 0.583105 0.830364
vt 0.500685 0.747945
vt 0.500685 0.789154
vt 0.624315 0.789154
vt 0.624315 0.747945
vt 0.291895 0.499315
vt 0.291895 0.540525
vt 0.333105 0.540525
vt 0.333105 0.499315
vt 0.291895 0.581735
vt 0.333105 0.581735
vt 0.291895 0.622944
vt 0.333105 0.622944
vt 0.291895 0.664154
vt 0.333105 0.664154
vt 0.250685 0.581735
vt 0.250685 0.622944
vt 0.374315 0.622944
vt 0.374315 0.581735
vt 0.916895 0.333105
vt 0.916895 0.374315
vt 0.958105 0.374315
vt 0.958105 0.333105
vt 0.916895 0.415525
vt 0.958105 0.415525
vt 0.916895 0.456734
vt 0.958105 0.456734
vt 0.916895 0.497944
vt 0.958105 0.497944
vt 0.875685 0.415525
vt 0.875685 0.456734
vt 0.999315 0.456734
vt 0.999315 0.415525
vt 0.041895 0.166895
vt 0.041895 0.208105
vt 0.083105 0.208105
vt 0.083105 0.166895
vt 0.041895 0.249315
vt 0.083105 0.249315
vt 0.041895 0.290525
vt 0.083105 0.290525
vt 0.041895 0.331735
vt 0.083105 0.331735
vt 0.000685 0.249315
vt 0.000685 0.290525
vt 0.124315 0.290525
vt 0.124315 0.249315
vt 0.916895 0.831734
vt 0.916895 0.872944
vt 0.958105 0.872944
vt 0.958105 0.831734
vt 0.916895 0.914154
vt 0.958105 0.914154
vt 0.916895 0.955364
vt 0.958105 0.955364
vt 0.916895 0.996574
vt 0.958105 0.996574
vt 0.875685 0.914154
vt 0.875685 0.955364
vt 0.999315 0.955364
vt 0.999315 0.914154
vt 0.791895 0.831735
vt 0.833105 0.831735
vt 0.833105 0.872945
vt 0.791895 0.872945
vt 0.833105 0.914154
vt 0.791895 0.914154
vt 0.833105 0.955364
vt 0.791895 0.955364
vt 0.833105 0.996574
vt 0.791895 0.996574
vt 0.750685 0.914154
vt 0.750685 0.955364
vt 0.874315 0.914154
vt 0.874315 0.955364
vt 0.541895 0.166895
vt 0.583105 0.166895
vt 0.583105 0.208105
vt 0.541895 0.208105
vt 0.583105 0.249315
vt 0.541895 0.249315
vt 0.583105 0.290525
vt 0.541895 0.290525
vt 0.583105 0.331735
vt 0.541895 0.331735
vt 0.500685 0.249315
vt 0.500685 0.290525
vt 0.624315 0.249315
vt 0.624315 0.290525
vt 0.791895 0.000685
vt 0.833105 0.000685
vt 0.833105 0.041895
vt 0.791895 0.041895
vt 0.833105 0.083105
vt 0.791895 0.083105
vt 0.833105 0.124315
vt 0.791895 0.124315
vt 0.833105 0.165525
vt 0.791895 0.165525
vt 0.750685 0.083105
vt 0.750685 0.124315
vt 0.874315 0.083105
vt 0.874315 0.124315
vt 0.166895 0.831735
vt 0.208105 0.831735
vt 0.208105 0.872945
vt 0.166895 0.872945
vt 0.208105 0.914154
vt 0.166895 0.914154
vt 0.208105 0.955364
vt 0.166895 0.955364
vt 0.208105 0.996574
vt 0.166895 0.996574
vt 0.125685 0.914154
vt 0.125685 0.955364
vt 0.249315 0.914154
vt 0.249315 0.955364
vt 0.416895 0.499315
vt 0.458105 0.499315
vt 0.458105 0.540525
vt 0.416895 0.540525
vt 0.458105 0.581735
vt 0.416895 0.581735
vt 0.458105 0.622945
vt 0.416895 0.622945
vt 0.458105 0.664154
vt 0.416895 0.664154
vt 0.375685 0.581735
vt 0.375685 0.622945
vt 0.499315 0.581735
vt 0.499315 0.622945
vt 0.500685 0.581735
vt 0.541895 0.581735
vt 0.541895 0.622945
vt 0.500685 0.622945
vt 0.541895 0.540525
vt 0.583105 0.540525
vt 0.583105 0.581735
vt 0.541895 0.499315
vt 0.583105 0.499315
vt 0.583105 0.622945
vt 0.583105 0.664154
vt 0.541895 0.664154
vt 0.624315 0.581735
vt 0.624315 0.622945
s 0
f 1/1/1 2/2/1 4/3/1 3/4/1
f 3/4/2 4/3/2 8/5/2 7/6/2
f 7/6/3 8/5/3 6/7/3 5/8/3
f 5/8/4 6/7/4 2/9/4 1/10/4
f 3/11/5 7/6/5 5/8/5 1/12/5
f 8/5/6 4/13/6 2/14/6 6/7/6
f 9/15/1 10/16/1 12/17/1 11/18/1
f 11/18/2 12/17/2 16/19/2 15/20/2
f 15/20/3 16/19/3 14/21/3 13/22/3
f 13/22/4 14/21/4 10/23/4 9/24/4
f 11/25/5 15/20/5 13/22/5 9/26/5
f 16/19/6 12/27/6 10/28/6 14/21/6
f 17/29/1 18/30/1 20/31/1 19/32/1
f 19/32/2 20/31/2 24/33/2 23/34/2
f 23/34/3 24/33/3 22/35/3 21/36/3
f 21/36/4 22/35/4 18/37/4 17/38/4
f 19/39/5 23/34/5 21/36/5 17/40/5
f 24/33/6 20/41/6 18/42/6 22/35/6
f 25/43/1 26/44/1 28/45/1 27/46/1
f 27/46/2 28/45/2 32/47/2 31/48/2
f 31/48/3 32/47/3 30/49/3 29/50/3
f 29/50/4 30/49/4 26/51/4 25/52/4
f 27/53/5 31/48/5 29/50/5 25/54/5
f 32/47/6 28/55/6 26/56/6 30/49/6
f 33/57/1 34/58/1 36/59/1 35/60/1
f 35/60/2 36/59/2 40/61/2 39/62/2
f 39/62/3 40/61/3 38/63/3 37/64/3
f 37/64/4 38/63/4 34/65/4 33/66/4
f 35/67/5 39/62/5 37/64/5 33/68/5
f 40/61/6 36/69/6 34/70/6 38/63/6
f 41/71/1 42/72/1 44/73/1 43/74/1
f 43/74/2 44/73/2 48/75/2 47/76/2
f 47/76/3 48/75/3 46/77/3 45/78/3
f 45/78/4 46/77/4 42/79/4 41/80/4
f 43/81/5 47/76/5 45/78/5 41/82/5
f 48/75/6 44/83/6 42/84/6 46/77/6
f 49/85/1 50/86/1 52/87/1 51/88/1
f 51/88/2 52/87/2 56/89/2 55/90/2
f 55/90/3 56/89/3 54/91/3 53/92/3
f 53/92/4 54/91/4 50/93/4 49/94/4
f 51/95/5 55/90/5 53/92/5 49/96/5
f 56/89/6 52/97/6 50/98/6 54/91/6
f 57/99/1 58/100/1 60/101/1 59/102/1
f 59/102/2 60/101/2 64/103/2 63/104/2
f 63/104/3 64/103/3 62/105/3 61/106/3
f 61/106/4 62/105/4 58/107/4 57/108/4
f 59/109/5 63/104/5 61/106/5 57/110/5
f 64/103/6 60/111/6 58/112/6 62/105/6
f 65/113/1 66/114/1 68/115/1 67/116/1
f 67/116/2 68/115/2 72/117/2 71/118/2
f 71/118/3 72/117/3 70/119/3 69/120/3
f 69/120/4 70/119/4 66/121/4 65/122/4
f 67/123/5 71/118/5 69/120/5 65/124/5
f 72/117/6 68/125/6 66/126/6 70/119/6
f 73/127/1 74/128/1 76/129/1 75/130/1
f 75/130/2 76/129/2 80/131/2 79/132/2
f 79/132/3 80/131/3 78/133/3 77/134/3
f 77/134/4 78/133/4 74/135/4 73/136/4
f 75/137/5 79/132/5 77/134/5 73/138/5
f 80/131/6 76/139/6 74/140/6 78/133/6
f 81/141/7 82/142/7 84/143/7 83/144/7
f 83/144/8 84/143/8 88/145/8 87/146/8
f 87/146/9 88/145/9 86/147/9 85/148/9
f 85/148/10 86/147/10 82/149/10 81/150/10
f 83/151/5 87/146/5 85/148/5 81/152/5
f 88/145/6 84/153/6 82/154/6 86/147/6
f 89/155/7 90/156/7 92/157/7 91/158/7
f 91/158/8 92/157/8 96/159/8 95/160/8
f 95/160/9 96/159/9 94/161/9 93/162/9
f 93/162/10 94/161/10 90/163/10 89/164/10
f 91/165/5 95/160/5 93/162/5 89/166/5
f 96/159/6 92/167/6 90/168/6 94/161/6
f 97/169/7 98/170/7 100/171/7 99/172/7
f 99/172/8 100/171/8 104/173/8 103/174/8
f 103/174/9 104/173/9 102/175/9 101/176/9
f 101/176/10 102/175/10 98/177/10 97/178/10
f 99/179/5 103/174/5 101/176/5 97/180/5
f 104/173/6 100/181/6 98/182/6 102/175/6
f 105/183/7 106/184/7 108/185/7 107/186/7
f 107/186/8 108/185/8 112/187/8 111/188/8
f 111/188/9 112/187/9 110/189/9 109/190/9
f 109/190/10 110/189/10 106/191/10 105/192/10
f 107/193/5 111/188/5 109/190/5 105/194/5
f 112/187/6 108/195/6 106/196/6 110/189/6
f 113/197/7 114/198/7 116/199/7 115/200/7
f 115/200/8 116/199/8 120/201/8 119/202/8
f 119/202/9 120/201/9 118/203/9 117/204/9
f 117/204/10 118/203/10 114/205/10 113/206/10
f 115/207/5 119/202/5 117/204/5 113/208/5
f 120/201/6 116/209/6 114/210/6 118/203/6
f 121/211/7 122/212/7 124/213/7 123/214/7
f 123/214/8 124/213/8 128/215/8 127/216/8
f 127/216/9 128/215/9 126/217/9 125/218/9
f 125/218/10 126/217/10 122/219/10 121/220/10
f 123/221/5 127/216/5 125/218/5 121/222/5
f 128/215/6 124/223/6 122/224/6 126/217/6
f 129/225/7 130/226/7 132/227/7 131/228/7
f 131/228/8 132/227/8 136/229/8 135/230/8
f 135/230/9 136/229/9 134/231/9 133/232/9
f 133/232/10 134/231/10 130/233/10 129/234/10
f 131/235/5 135/230/5 133/232/5 129/236/5
f 136/229/6 132/237/6 130/238/6 134/231/6
f 137/239/7 138/240/7 140/241/7 139/242/7
f 139/242/8 140/241/8 144/243/8 143/244/8
f 143/244/9 144/243/9 142/245/9 141/246/9
f 141/246/10 142/245/10 138/247/10 137/248/10
f 139/249/5 143/244/5 141/246/5 137/250/5
f 144/243/6 140/251/6 138/252/6 142/245/6
f 145/253/7 146/254/7 148/255/7 147/256/7
f 147/256/8 148/255/8 152/257/8 151/258/8
f 151/258/9 152/257/9 150/259/9 149/260/9
f 149/260/10 150/259/10 146/261/10 145/262/10
f 147/263/5 151/258/5 149/260/5 145/264/5
f 152/257/6 148/265/6 146/266/6 150/259/6
f 153/267/7 154/268/7 156/269/7 155/270/7
f 155/270/8 156/269/8 160/271/8 159/272/8
f 159/272/9 160/271/9 158/273/9 157/274/9
f 157/274/10 158/273/10 154/275/10 153/276/10
f 155/277/5 159/272/5 157/274/5 153/278/5
f 160/271/6 156/279/6 154/280/6 158/273/6
f 161/281/11 162/282/11 164/283/11 163/284/11
f 163/284/12 164/283/12 168/285/12 167/286/12
f 167/286/13 168/285/13 166/287/13 165/288/13
f 165/288/14 166/287/14 162/289/14 161/290/14
f 163/291/15 167/286/15 165/288/15 161/292/15
f 168/285/16 164/293/16 162/294/16 166/287/16
f 169/295/11 170/296/11 172/297/11 171/298/11
f 171/298/12 172/297/12 176/299/12 175/300/12
f 175/300/13 176/299/13 174/301/13 173/302/13
f 173/302/14 174/301/14 170/303/14 169/304/14
f 171/305/15 175/300/15 173/302/15 169/306/15
f 176/299/16 172/307/16 170/308/16 174/301/16
f 177/309/11 178/310/11 180/311/11 179/312/11
f 179/312/12 180/311/12 184/313/12 183/314/12
f 183/314/13 184/313/13 182/315/13 181/316/13
f 181/316/14 182/315/14 178/317/14 177/318/14
f 179/319/15 183/314/15 181/316/15 177/320/15
f 184/313/16 180/321/16 178/322/16 182/315/16
f 185/323/11 186/324/11 188/325/11 187/326/11
f 187/326/12 188/325/12 192/327/12 191/328/12
f 191/328/13 192/327/13 190/329/13 189/330/13
f 189/330/14 190/329/14 186/331/14 185/332/14
f 187/333/15 191/328/15 189/330/15 185/334/15
f 192/327/16 188/335/16 186/336/16 190/329/16
f 193/337/11 194/338/11 196/339/11 195/340/11
f 195/340/12 196/339/12 200/341/12 199/342/12
f 199/342/13 200/341/13 198/343/13 197/344/13
f 197/344/14 198/343/14 194/345/14 193/346/14
f 195/347/15 199/342/15 197/344/15 193/348/15
f 200/341/16 196/349/16 194/350/16 198/343/16
f 201/351/11 202/352/11 204/353/11 203/354/11
f 203/354/12 204/353/12 208/355/12 207/356/12
f 207/356/13 208/355/13 206/357/13 205/358/13
f 205/358/14 206/357/14 202/359/14 201/360/14
f 203/361/15 207/356/15 205/358/15 201/362/15
f 208/355/16 204/363/16 202/364/16 206/357/16
f 209/365/11 210/366/11 212/367/11 211/368/11
f 211/368/12 212/367/12 216/369/12 215/370/12
f 215/370/13 216/369/13 214/371/13 213/372/13
f 213/372/14 214/371/14 210/373/14 209/374/14
f 211/375/15 215/370/15 213/372/15 209/376/15
f 216/369/16 212/377/16 210/378/16 214/371/16
f 217/379/11 218/380/11 220/381/11 219/382/11
f 219/382/12 220/381/12 224/383/12 223/384/12
f 223/384/13 224/383/13 222/385/13 221/386/13
f 221/386/14 222/385/14 218/387/14 217/388/14
f 219/389/15 223/384/15 221/386/15 217/390/15
f 224/383/16 220/391/16 218/392/16 222/385/16
f 225/393/11 226/394/11 228/395/11 227/396/11
f 227/396/12 228/395/12 232/397/12 231/398/12
f 231/398/13 232/397/13 230/399/13 229/400/13
f 229/400/14 230/399/14 226/401/14 225/402/14
f 227/403/15 231/398/15 229/400/15 225/404/15
f 232/397/16 228/405/16 226/406/16 230/399/16
f 233/407/11 234/408/11 236/409/11 235/410/11
f 235/410/12 236/409/12 240/411/12 239/412/12
f 239/412/13 240/411/13 238/413/13 237/414/13
f 237/414/14 238/413/14 234/415/14 233/416/14
f 235/417/15 239/412/15 237/414/15 233/418/15
f 240/411/16 236/419/16 234/420/16 238/413/16
f 241/421/3 243/422/3 244/423/3 242/424/3
f 243/422/4 247/425/4 248/426/4 244/423/4
f 247/425/1 245/427/1 246/428/1 248/426/1
f 245/427/2 241/429/2 242/430/2 246/428/2
f 243/431/6 241/432/6 245/427/6 247/425/6
f 248/426/5 246/428/5 242/433/5 244/434/5
f 249/435/3 251/436/3 252/437/3 250/438/3
f 251/436/4 255/439/4 256/440/4 252/437/4
f 255/439/1 253/441/1 254/442/1 256/440/1
f 253/441/2 249/443/2 250/444/2 254/442/2
f 251/445/6 249/446/6 253/441/6 255/439/6
f 256/440/5 254/442/5 250/447/5 252/448/5
f 257/449/3 259/450/3 260/451/3 258/452/3
f 259/450/4 263/453/4 264/454/4 260/451/4
f 263/453/1 261/455/1 262/456/1 264/454/1
f 261/455/2 257/457/2 258/458/2 262/456/2
f 259/459/6 257/460/6 261/455/6 263/453/6
f 264/454/5 262/456/5 258/461/5 260/462/5
f 265/463/3 267/464/3 268/465/3 266/466/3
f 267/464/4 271/467/4 272/468/4 268/465/4
f 271/467/1 269/469/1 270/470/1 272/468/1
f 269/469/2 265/471/2 266/472/2 270/470/2
f 267/473/6 265/474/6 269/469/6 271/467/6
f 272/468/5 270/470/5 266/475/5 268/476/5
f 273/477/3 275/478/3 276/479/3 274/480/3
f 275/478/17 279/481/17 280/482/17 276/479/17
f 279/481/1 277/483/1 278/484/1 280/482/1
f 277/483/18 273/485/18 274/486/18 278/484/18
f 275/487/19 273/488/19 277/483/19 279/481/19
f 280/482/20 278/484/20 274/489/20 276/490/20
f 281/491/3 283/492/3 284/493/3 282/494/3
f 283/492/17 287/495/17 288/496/17 284/493/17
f 287/495/1 285/497/1 286/498/1 288/496/1
f 285/497/18 281/499/18 282/500/18 286/498/18
f 283/501/19 281/502/19 285/497/19 287/495/19
f 288/496/20 286/498/20 282/503/20 284/504/20
f 289/505/3 291/506/3 292/507/3 290/508/3
f 291/506/17 295/509/17 296/510/17 292/507/17
f 295/509/1 293/511/1 294/512/1 296/510/1
f 293/511/18 289/513/18 290/514/18 294/512/18
f 291/515/19 289/516/19 293/511/19 295/509/19
f 296/510/20 294/512/20 290/517/20 292/518/20
f 297/519/21 299/520/21 300/521/21 298/522/21
f 299/520/22 303/523/22 304/524/22 300/521/22
f 303/523/23 301/525/23 302/526/23 304/524/23
f 301/525/24 297/527/24 298/528/24 302/526/24
f 299/529/25 297/530/25 301/525/25 303/523/25
f 304/524/26 302/526/26 298/531/26 300/532/26
f 305/533/21 307/534/21 308/535/21 306/536/21
f 307/534/22 311/537/22 312/538/22 308/535/22
f 311/537/23 309/539/23 310/540/23 312/538/23
f 309/539/24 305/541/24 306/542/24 310/540/24
f 307/543/25 305/544/25 309/539/25 311/537/25
f 312/538/26 310/540/26 306/545/26 308/546/26
f 313/547/21 315/548/21 316/549/21 314/550/21
f 315/548/22 319/551/22 320/552/22 316/549/22
f 319/551/23 317/553/23 318/554/23 320/552/23
f 317/553/24 313/555/24 314/556/24 318/554/24
f 315/557/25 313/558/25 317/553/25 319/551/25
f 320/552/26 318/554/26 314/559/26 316/560/26
f 321/561/21 323/562/21 324/563/21 322/564/21
f 323/562/22 327/565/22 328/566/22 324/563/22
f 327/565/23 325/567/23 326/568/23 328/566/23
f 325/567/24 321/569/24 322/570/24 326/568/24
f 323/571/25 321/572/25 325/567/25 327/565/25
f 328/566/26 326/568/26 322/573/26 324/574/26
f 329/575/3 331/576/3 332/577/3 330/578/3
f 331/576/17 335/579/17 336/580/17 332/577/17
f 335/579/1 333/581/1 334/582/1 336/580/1
f 333/581/18 329/583/18 330/584/18 334/582/18
f 331/585/19 329/586/19 333/581/19 335/579/19
f 336/580/20 334/582/20 330/587/20 332/588/20
f 337/589/1 338/590/1 340/591/1 339/592/1
f 339/592/27 340/591/27 344/593/27 343/594/27
f 343/594/3 344/593/3 342/595/3 341/596/3
f 341/596/28 342/595/28 338/597/28 337/598/28
f 339/599/29 343/594/29 341/596/29 337/600/29
f 344/593/30 340/601/30 338/602/30 342/595/30
f 345/603/1 346/604/1 348/605/1 347/606/1
f 347/606/27 348/605/27 352/607/27 351/608/27
f 351/608/3 352/607/3 350/609/3 349/610/3
f 349/610/28 350/609/28 346/611/28 345/612/28
f 347/613/29 351/608/29 349/610/29 345/614/29
f 352/607/30 348/615/30 346/616/30 350/609/30
f 353/617/31 354/618/31 356/619/31 355/620/31
f 355/620/32 356/619/32 360/621/32 359/622/32
f 359/622/33 360/621/33 358/623/33 357/624/33
f 357/624/34 358/623/34 354/625/34 353/626/34
f 355/627/35 359/622/35 357/624/35 353/628/35
f 360/621/36 356/629/36 354/630/36 358/623/36
f 361/631/31 362/632/31 364/633/31 363/634/31
f 363/634/32 364/633/32 368/635/32 367/636/32
f 367/636/33 368/635/33 366/637/33 365/638/33
f 365/638/34 366/637/34 362/639/34 361/640/34
f 363/641/35 367/636/35 365/638/35 361/642/35
f 368/635/36 364/643/36 362/644/36 366/637/36
f 369/645/37 370/646/37 372/647/37 371/648/37
f 371/648/38 372/647/38 376/649/38 375/650/38
f 375/650/39 376/649/39 374/651/39 373/652/39
f 373/652/40 374/651/40 370/653/40 369/654/40
f 371/655/41 375/650/41 373/652/41 369/656/41
f 376/649/42 372/657/42 370/658/42 374/651/42
f 387/659/43 391/660/43 389/661/43 385/662/43
f 387/663/44 388/664/44 392/665/44 391/660/44
f 385/666/45 386/667/45 388/664/45 387/663/45
f 389/661/46 390/668/46 386/669/46 385/670/46
f 392/665/47 388/671/47 386/672/47 390/668/47
f 391/660/48 392/665/48 390/668/48 389/661/48
l 383 379
l 380 384
l 377 381
l 382 378
