# Blender 4.1.1
# www.blender.org
mtllib Pick_up_blob.mtl
o Cube
v 1.300196 4.360690 -1.300196
v 1.300196 -1.166712 -1.300196
v 1.300196 4.360690 1.300196
v 1.300196 -1.166712 1.300196
v -1.300196 4.360690 -1.300196
v -1.300196 -1.166712 -1.300196
v -1.300196 4.360690 1.300196
v -1.300196 -1.166712 1.300196
v -1.710136 -1.175695 -0.007462
v 1.710136 4.369674 -0.007462
v -1.710136 4.369674 -0.007462
v 1.710136 -1.175695 -0.007462
v 0.000000 -1.175695 -1.709120
v 0.000000 4.369674 1.711152
v 0.000000 -1.175695 1.711152
v 0.000000 4.369674 -1.709120
v 0.000000 -1.166712 -0.006446
v 0.000000 4.360690 -0.006446
vn -0.0000 1.0000 -0.0000
vn -0.3014 -0.0000 0.9535
vn -0.9532 -0.0000 -0.3023
vn -0.0000 -1.0000 -0.0000
vn 0.9542 -0.0000 0.2991
vn 0.3000 -0.0000 -0.9539
vn 0.9532 -0.0000 -0.3023
vn -0.9542 -0.0000 0.2991
vn -0.3000 -0.0000 -0.9539
vn 0.3014 -0.0000 0.9535
vt 0.208241 0.208035
vt 0.249816 0.208035
vt 0.249816 0.249816
vt 0.208241 0.249816
vt 0.083517 0.291391
vt 0.166667 0.291391
vt 0.166667 0.332966
vt 0.083517 0.332966
vt 0.083517 0.042148
vt 0.166667 0.042148
vt 0.166667 0.083517
vt 0.083517 0.083517
vt 0.041942 0.208035
vt 0.083517 0.208035
vt 0.083517 0.249816
vt 0.041942 0.249816
vt 0.166667 0.208035
vt 0.166667 0.249816
vt 0.083517 0.125092
vt 0.166667 0.125092
vt 0.166667 0.166667
vt 0.083517 0.166667
vt 0.041942 0.166667
vt 0.083517 0.000367
vt 0.166667 0.000367
vt 0.208241 0.166667
vt 0.249816 0.166667
vt 0.000367 0.166667
vt 0.000367 0.208035
vt 0.000367 0.249816
s 0
f 18/1/1 11/2/1 7/3/1 14/4/1
f 15/5/2 14/6/2 7/7/2 8/8/2
f 9/9/3 11/10/3 5/11/3 6/12/3
f 17/13/4 12/14/4 4/15/4 15/16/4
f 12/14/5 10/17/5 3/18/5 4/15/5
f 13/19/6 16/20/6 1/21/6 2/22/6
f 2/22/7 1/21/7 10/17/7 12/14/7
f 13/23/4 2/22/4 12/14/4 17/13/4
f 8/24/8 7/25/8 11/10/8 9/9/8
f 16/26/1 5/27/1 11/2/1 18/1/1
f 1/21/1 16/26/1 18/1/1 10/17/1
f 6/28/4 13/23/4 17/13/4 9/29/4
f 6/12/9 5/11/9 16/20/9 13/19/9
f 9/29/4 17/13/4 15/16/4 8/30/4
f 4/15/10 3/18/10 14/6/10 15/5/10
f 10/17/1 18/1/1 14/4/1 3/18/1
o Cube.001
v 0.000000 3.922202 -0.007834
v 0.000000 5.747497 -0.007834
v 1.502513 5.747924 -1.502282
v 1.580078 5.691190 -1.580078
v 1.502513 3.921774 -1.502282
v 1.580078 3.978509 -1.580078
v 1.502220 5.747922 1.502450
v 1.580078 5.691190 1.580078
v 1.502220 3.921777 1.502450
v 1.580078 3.978509 1.580078
v -1.502513 5.747924 -1.502282
v -1.580078 5.691190 -1.580078
v -1.502513 3.921774 -1.502282
v -1.580078 3.978509 -1.580078
v -1.502220 5.747922 1.502450
v -1.580078 5.691190 1.580078
v -1.502220 3.921777 1.502450
v -1.580078 3.978509 1.580078
v -2.078262 3.975543 -0.009069
v -1.976046 3.919381 -0.009008
v 2.078262 5.694156 -0.009069
v 1.976046 5.750318 -0.009008
v -2.078262 5.694156 -0.009069
v -1.976046 5.750318 -0.009008
v 2.078262 3.975543 -0.009069
v 1.976046 3.919381 -0.009008
v 0.000000 3.975543 -2.077027
v 0.000000 3.919382 -1.974835
v 0.000000 5.694156 2.079497
v 0.000000 5.750318 1.977258
v 0.000000 3.975543 2.079497
v 0.000000 3.919381 1.977258
v 0.000000 5.694156 -2.077027
v 0.000000 5.750317 -1.974835
vn 0.0001 -1.0000 -0.0001
vn 0.0001 1.0000 -0.0001
vn 0.0001 1.0000 0.0001
vn -0.3000 -0.0000 -0.9539
vn -0.0001 1.0000 -0.0001
vn -0.0001 1.0000 0.0001
vn 0.3000 -0.0000 -0.9539
vn 0.3014 -0.0000 0.9535
vn -0.3014 -0.0000 0.9535
vn 0.0001 -1.0000 0.0001
vn -0.0001 -1.0000 0.0001
vn -0.9542 -0.0000 0.2991
vn -0.9532 -0.0000 -0.3023
vn 0.9542 -0.0000 0.2991
vn -0.0001 -1.0000 -0.0001
vn -0.4775 -0.8655 0.1512
vn -0.1517 -0.8655 -0.4775
vn -0.1524 0.8655 0.4773
vn 0.4775 0.8655 0.1512
vn 0.1524 -0.8655 0.4773
vn -0.4772 0.8654 -0.1529
vn 0.1517 0.8655 -0.4775
vn 0.4772 -0.8654 -0.1529
vn -0.4772 -0.8654 -0.1529
vn 0.4772 0.8654 -0.1529
vn -0.4775 0.8655 0.1512
vn 0.4775 -0.8655 0.1512
vn 0.1517 -0.8655 -0.4775
vn 0.1524 0.8655 0.4773
vn -0.1524 -0.8655 0.4773
vn -0.1517 0.8655 -0.4775
vn 0.9532 -0.0000 -0.3023
vt 0.542103 0.912393
vt 0.542103 0.872863
vt 0.581838 0.872863
vt 0.581272 0.911825
vt 0.542103 0.706564
vt 0.542103 0.667034
vt 0.581272 0.667603
vt 0.581838 0.706564
vt 0.502778 0.706564
vt 0.503349 0.667603
vt 0.830153 0.538527
vt 0.908173 0.538527
vt 0.908181 0.580101
vt 0.830145 0.580101
vt 0.542103 0.746094
vt 0.581272 0.745525
vt 0.503350 0.745526
vt 0.459160 0.828732
vt 0.459160 0.750696
vt 0.500735 0.750704
vt 0.500735 0.828724
vt 0.583884 0.828724
vt 0.583884 0.750704
vt 0.625459 0.750696
vt 0.625459 0.828732
vt 0.835009 0.162288
vt 0.835009 0.084252
vt 0.876584 0.084260
vt 0.876584 0.162280
vt 0.503350 0.911825
vt 0.502778 0.872863
vt 0.503349 0.833902
vt 0.542103 0.833333
vt 0.876790 0.000376
vt 0.876790 0.078395
vt 0.835009 0.078404
vt 0.835009 0.000367
vt 0.830145 0.497158
vt 0.908181 0.497158
vt 0.542103 0.828732
vt 0.542103 0.750696
vt 0.542103 0.833333
vt 0.581272 0.833902
vt 0.583884 0.914438
vt 0.542111 0.914438
vt 0.500735 0.914438
vt 0.500735 0.872871
vt 0.835782 0.081695
vt 0.875308 0.081695
vt 0.583884 0.831289
vt 0.583884 0.872856
vt 0.910738 0.497932
vt 0.910738 0.537254
vt 0.459929 0.748139
vt 0.499463 0.748139
vt 0.542096 0.914438
vt 0.542103 0.750696
vt 0.875516 0.080960
vt 0.835778 0.080960
vt 0.500735 0.872856
vt 0.500735 0.831289
vt 0.585160 0.748139
vt 0.624686 0.748139
vt 0.583884 0.872871
vt 0.910738 0.539798
vt 0.910738 0.579332
s 0
f 38/31/11 19/32/11 50/33/11 35/34/11
f 20/35/12 42/36/12 33/37/12 48/38/12
f 52/39/13 29/40/13 42/36/13 20/35/13
f 32/41/14 30/42/14 51/43/14 45/44/14
f 40/45/15 20/35/15 48/38/15 25/46/15
f 21/47/16 52/39/16 20/35/16 40/45/16
f 45/48/17 51/49/17 22/50/17 24/51/17
f 28/52/18 26/53/18 47/54/18 49/55/18
f 49/56/19 47/57/19 34/58/19 36/59/19
f 31/60/20 46/61/20 19/32/20 38/31/20
f 46/61/21 23/62/21 44/63/21 19/32/21
f 36/64/22 34/65/22 41/66/22 37/67/22
f 37/68/23 41/69/23 30/42/23 32/41/23
f 43/70/24 39/71/24 26/53/24 28/52/24
f 19/32/25 44/72/25 27/73/25 50/33/25
f 38/31/26 35/34/26 36/74/26 37/75/26
f 46/61/27 31/60/27 32/76/27 45/77/27
f 48/78/28 33/79/28 34/58/28 47/57/28
f 40/45/29 25/46/29 26/53/29 39/71/29
f 50/33/30 27/73/30 28/80/30 49/81/30
f 42/82/31 29/83/31 30/42/31 41/69/31
f 52/84/32 21/85/32 22/50/32 51/49/32
f 44/63/33 23/62/33 24/51/33 43/70/33
f 31/60/34 38/31/34 37/86/34 32/76/34
f 21/47/35 40/45/35 39/87/35 22/50/35
f 33/88/36 42/89/36 41/66/36 34/65/36
f 27/73/37 44/72/37 43/70/37 28/52/37
f 23/62/38 46/61/38 45/90/38 24/91/38
f 25/92/39 48/93/39 47/54/39 26/53/39
f 35/34/40 50/33/40 49/94/40 36/74/40
f 29/95/41 52/96/41 51/43/41 30/42/41
f 24/51/42 22/50/42 39/87/42 43/70/42
o Cube.002
v 0.000000 -1.891896 -0.007834
v 0.000000 -0.066600 -0.007834
v 1.512238 -0.066226 -1.512036
v 1.580078 -0.115848 -1.580078
v 1.512238 -1.892270 -1.512036
v 1.580078 -1.842648 -1.580078
v 1.511982 -0.066229 1.512183
v 1.580078 -0.115848 1.580078
v 1.511982 -1.892267 1.512183
v 1.580078 -1.842648 1.580078
v -1.512238 -0.066226 -1.512036
v -1.580078 -0.115848 -1.580078
v -1.512238 -1.892270 -1.512036
v -1.580078 -1.842648 -1.580078
v -1.511982 -0.066229 1.512183
v -1.580078 -0.115848 1.580078
v -1.511982 -1.892267 1.512183
v -1.580078 -1.842648 1.580078
v -2.078262 -1.845615 -0.009069
v -1.988862 -1.894735 -0.009016
v 2.078262 -0.112881 -0.009069
v 1.988862 -0.063762 -0.009016
v -2.078262 -0.112881 -0.009069
v -1.988862 -0.063762 -0.009016
v 2.078262 -1.845615 -0.009069
v 1.988862 -1.894735 -0.009016
v 0.000000 -1.845615 -2.077027
v 0.000000 -1.894734 -1.987647
v 0.000000 -0.112881 2.079497
v 0.000000 -0.063761 1.990077
v 0.000000 -1.845615 2.079497
v 0.000000 -1.894735 1.990077
v 0.000000 -0.112881 -2.077027
v 0.000000 -0.063762 -1.987647
vn 0.0001 -1.0000 -0.0001
vn 0.0001 1.0000 -0.0001
vn 0.0001 1.0000 0.0001
vn -0.3000 -0.0000 -0.9539
vn -0.0001 1.0000 -0.0001
vn -0.0001 1.0000 0.0001
vn 0.3000 -0.0000 -0.9539
vn 0.3014 -0.0000 0.9535
vn -0.3014 -0.0000 0.9535
vn 0.0001 -1.0000 0.0001
vn -0.0001 -1.0000 0.0001
vn -0.9542 -0.0000 0.2991
vn -0.9532 -0.0000 -0.3023
vn 0.9542 -0.0000 0.2991
vn -0.0001 -1.0000 -0.0001
vn -0.4775 -0.8655 0.1512
vn -0.1517 -0.8655 -0.4775
vn -0.1524 0.8655 0.4773
vn 0.4775 0.8655 0.1512
vn 0.1524 -0.8655 0.4773
vn -0.4772 0.8654 -0.1529
vn 0.1517 0.8655 -0.4775
vn 0.4772 -0.8654 -0.1529
vn -0.4772 -0.8654 -0.1529
vn 0.4772 0.8654 -0.1529
vn -0.4775 0.8655 0.1512
vn 0.4775 -0.8655 0.1512
vn 0.1517 -0.8655 -0.4775
vn 0.1524 0.8655 0.4773
vn -0.1524 -0.8655 0.4773
vn -0.1517 0.8655 -0.4775
vn 0.9532 -0.0000 -0.3023
vt 0.834274 0.002156
vt 0.834274 0.041942
vt 0.794283 0.041942
vt 0.794781 0.002656
vt 0.834274 0.208241
vt 0.834274 0.248028
vt 0.794781 0.247527
vt 0.794283 0.208241
vt 0.794280 0.288549
vt 0.794783 0.249263
vt 0.833862 0.248763
vt 0.833862 0.288549
vt 0.793235 0.792287
vt 0.871898 0.792287
vt 0.871905 0.833862
vt 0.793228 0.833862
vt 0.834274 0.168455
vt 0.794781 0.168956
vt 0.794783 0.327835
vt 0.833862 0.328335
vt 0.750918 0.411037
vt 0.750918 0.332360
vt 0.792493 0.332367
vt 0.792493 0.411030
vt 0.792493 0.085760
vt 0.792493 0.164423
vt 0.750918 0.164431
vt 0.750918 0.085753
vt 0.876172 0.414295
vt 0.876172 0.492973
vt 0.834597 0.492965
vt 0.834597 0.414303
vt 0.794783 0.494135
vt 0.794280 0.454848
vt 0.833862 0.454848
vt 0.833862 0.494635
vt 0.794783 0.415562
vt 0.833862 0.415062
vt 0.834597 0.413553
vt 0.834597 0.334891
vt 0.876378 0.334883
vt 0.876378 0.413561
vt 0.793228 0.750918
vt 0.871905 0.750918
vt 0.834274 0.085753
vt 0.834274 0.164430
vt 0.834274 0.081729
vt 0.794781 0.081228
vt 0.792493 0.000367
vt 0.834268 0.000367
vt 0.792493 0.496423
vt 0.792493 0.454855
vt 0.875495 0.495209
vt 0.835712 0.495209
vt 0.792493 0.083517
vt 0.792493 0.041949
vt 0.874141 0.751595
vt 0.874141 0.791174
vt 0.751591 0.330124
vt 0.791381 0.330124
vt 0.833862 0.411037
vt 0.833855 0.496423
vt 0.833862 0.332360
vt 0.835711 0.332647
vt 0.875705 0.332647
vt 0.792493 0.454842
vt 0.792493 0.413274
vt 0.791378 0.166667
vt 0.751594 0.166667
vt 0.792493 0.041936
vt 0.874141 0.793399
vt 0.874141 0.833189
s 0
f 72/97/43 53/98/43 84/99/43 69/100/43
f 54/101/44 76/102/44 67/103/44 82/104/44
f 86/105/45 63/106/45 76/107/45 54/108/45
f 66/109/46 64/110/46 85/111/46 79/112/46
f 74/113/47 54/101/47 82/104/47 59/114/47
f 55/115/48 86/105/48 54/108/48 74/116/48
f 79/117/49 85/118/49 56/119/49 58/120/49
f 62/121/50 60/122/50 81/123/50 83/124/50
f 83/125/51 81/126/51 68/127/51 70/128/51
f 65/129/52 80/130/52 53/131/52 72/132/52
f 80/130/53 57/133/53 78/134/53 53/131/53
f 70/135/54 68/136/54 75/137/54 71/138/54
f 71/139/55 75/140/55 64/110/55 66/109/55
f 77/141/56 73/142/56 60/122/56 62/121/56
f 53/98/57 78/143/57 61/144/57 84/99/57
f 72/97/58 69/100/58 70/145/58 71/146/58
f 80/130/59 65/129/59 66/147/59 79/148/59
f 82/149/60 67/150/60 68/127/60 81/126/60
f 74/113/61 59/114/61 60/122/61 73/142/61
f 84/99/62 61/144/62 62/151/62 83/152/62
f 76/153/63 63/154/63 64/110/63 75/140/63
f 86/155/64 55/156/64 56/119/64 85/118/64
f 78/134/65 57/133/65 58/120/65 77/157/65
f 65/129/66 72/132/66 71/158/66 66/147/66
f 55/115/67 74/116/67 73/159/67 56/119/67
f 67/160/68 76/161/68 75/137/68 68/136/68
f 61/144/69 78/143/69 77/141/69 62/121/69
f 57/133/70 80/130/70 79/162/70 58/163/70
f 59/164/71 82/165/71 81/123/71 60/122/71
f 69/100/72 84/99/72 83/166/72 70/145/72
f 63/167/73 86/168/73 85/111/73 64/110/73
f 58/120/74 56/119/74 73/159/74 77/157/74
o Cube.003
v 0.821145 6.244409 -0.821145
v 0.821145 5.295827 -0.821145
v 0.821145 6.244409 0.821145
v 0.821145 5.295827 0.821145
v -0.821145 6.244409 -0.821145
v -0.821145 5.295827 -0.821145
v -0.821145 6.244409 0.821145
v -0.821145 5.295827 0.821145
v -1.080045 5.294286 -0.004713
v 1.080045 6.245951 -0.004713
v -1.080045 6.245951 -0.004713
v 1.080045 5.294286 -0.004713
v 0.000000 5.294286 -1.079403
v 0.000000 6.245951 1.080686
v 0.000000 5.294286 1.080686
v 0.000000 6.245951 -1.079403
v 0.000000 5.295827 -0.004071
v 0.000000 6.244409 -0.004071
vn -0.0000 1.0000 -0.0000
vn -0.3014 -0.0000 0.9535
vn -0.9532 -0.0000 -0.3023
vn -0.0000 -1.0000 -0.0000
vn 0.9542 -0.0000 0.2991
vn 0.3000 -0.0000 -0.9539
vn 0.9532 -0.0000 -0.3023
vn -0.9542 -0.0000 0.2991
vn -0.3000 -0.0000 -0.9539
vn 0.3014 -0.0000 0.9535
vt 0.458425 0.208035
vt 0.500000 0.208035
vt 0.500000 0.249816
vt 0.458425 0.249816
vt 0.333701 0.291391
vt 0.416850 0.291391
vt 0.416850 0.332966
vt 0.333701 0.332966
vt 0.333701 0.042148
vt 0.416850 0.042148
vt 0.416850 0.083517
vt 0.333701 0.083517
vt 0.292126 0.208035
vt 0.333701 0.208035
vt 0.333701 0.249816
vt 0.292126 0.249816
vt 0.416850 0.208035
vt 0.416850 0.249816
vt 0.333701 0.125092
vt 0.416850 0.125092
vt 0.416850 0.166667
vt 0.333701 0.166667
vt 0.292126 0.166667
vt 0.333701 0.000367
vt 0.416850 0.000367
vt 0.458425 0.166667
vt 0.500000 0.166667
vt 0.250551 0.166667
vt 0.250551 0.208035
vt 0.250551 0.249816
s 0
f 104/169/75 97/170/75 93/171/75 100/172/75
f 101/173/76 100/174/76 93/175/76 94/176/76
f 95/177/77 97/178/77 91/179/77 92/180/77
f 103/181/78 98/182/78 90/183/78 101/184/78
f 98/182/79 96/185/79 89/186/79 90/183/79
f 99/187/80 102/188/80 87/189/80 88/190/80
f 88/190/81 87/189/81 96/185/81 98/182/81
f 99/191/78 88/190/78 98/182/78 103/181/78
f 94/192/82 93/193/82 97/178/82 95/177/82
f 102/194/75 91/195/75 97/170/75 104/169/75
f 87/189/75 102/194/75 104/169/75 96/185/75
f 92/196/78 99/191/78 103/181/78 95/197/78
f 92/180/83 91/179/83 102/188/83 99/187/83
f 95/197/78 103/181/78 101/184/78 94/198/78
f 90/183/84 89/186/84 100/174/84 101/173/84
f 96/185/75 104/169/75 100/172/75 89/186/75
o Cube.004
v 0.571699 6.089143 -0.571700
v 0.571699 6.089143 0.571699
v -0.571699 6.089143 -0.571700
v -0.571699 6.089143 0.571699
v -0.751951 6.088070 -0.003281
v 0.751951 6.088070 -0.003281
v 0.000000 6.088070 -0.751504
v 0.000000 6.088070 0.752398
v 0.000000 6.089143 -0.002835
v 0.000000 6.749567 -0.002835
v 0.543635 6.749722 -0.543552
v 0.571699 6.729194 -0.571700
v 0.543529 6.749720 0.543612
v 0.571699 6.729194 0.571699
v -0.543635 6.749722 -0.543552
v -0.571699 6.729194 -0.571700
v -0.543529 6.749720 0.543612
v -0.571699 6.729194 0.571699
v 0.751951 6.730267 -0.003281
v 0.714968 6.750587 -0.003259
v -0.751951 6.730267 -0.003281
v -0.714968 6.750587 -0.003259
v 0.000000 6.730267 0.752398
v 0.000000 6.750587 0.715406
v 0.000000 6.730267 -0.751504
v 0.000000 6.750587 -0.714529
vn 0.0001 1.0000 -0.0001
vn 0.0001 1.0000 0.0001
vn -0.0000 -1.0000 -0.0000
vn -0.0001 1.0000 -0.0001
vn -0.0001 1.0000 0.0001
vn 0.3000 -0.0000 -0.9539
vn -0.3014 -0.0000 0.9535
vn -0.9542 -0.0000 0.2991
vn 0.3014 -0.0000 0.9535
vn -0.9532 -0.0000 -0.3023
vn 0.9542 -0.0000 0.2991
vn -0.3000 -0.0000 -0.9539
vn -0.1524 0.8655 0.4773
vn 0.4775 0.8655 0.1512
vn -0.4772 0.8654 -0.1529
vn 0.1517 0.8655 -0.4775
vn 0.4772 0.8654 -0.1529
vn -0.4775 0.8655 0.1512
vn 0.1524 0.8655 0.4773
vn -0.1517 0.8655 -0.4775
vn 0.9532 -0.0000 -0.3023
vt 0.709137 0.706564
vt 0.709137 0.667034
vt 0.748306 0.667603
vt 0.748872 0.706564
vt 0.669812 0.706564
vt 0.670384 0.667603
vt 0.709137 0.872863
vt 0.709137 0.831289
vt 0.750918 0.831289
vt 0.750918 0.872863
vt 0.709137 0.746094
vt 0.748306 0.745525
vt 0.670384 0.745526
vt 0.626194 0.831289
vt 0.626194 0.750696
vt 0.667769 0.750704
vt 0.667769 0.831289
vt 0.667769 0.872863
vt 0.834597 0.331912
vt 0.834597 0.251319
vt 0.876172 0.251328
vt 0.876172 0.331912
vt 0.871926 0.580836
vt 0.871926 0.661421
vt 0.830145 0.661429
vt 0.830145 0.580836
vt 0.750918 0.750704
vt 0.792493 0.750696
vt 0.792493 0.831289
vt 0.667769 0.914438
vt 0.709137 0.914438
vt 0.793228 0.750184
vt 0.793228 0.669591
vt 0.834597 0.669599
vt 0.834597 0.750184
vt 0.750918 0.914438
vt 0.709137 0.750696
vt 0.876171 0.669591
vt 0.876171 0.750184
vt 0.835370 0.248763
vt 0.874896 0.248763
vt 0.794002 0.667034
vt 0.833324 0.667034
vt 0.626963 0.748139
vt 0.666497 0.748139
vt 0.709137 0.750696
vt 0.870652 0.663986
vt 0.830914 0.663986
vt 0.752194 0.748139
vt 0.791720 0.748139
vt 0.835868 0.667034
vt 0.875402 0.667034
s 0
f 114/199/85 126/200/85 121/201/85 128/202/85
f 130/203/86 119/204/86 126/200/86 114/199/86
f 113/205/87 110/206/87 106/207/87 112/208/87
f 124/209/88 114/199/88 128/202/88 117/210/88
f 115/211/89 130/203/89 114/199/89 124/209/89
f 111/212/90 129/213/90 116/214/90 105/215/90
f 111/216/87 105/215/87 110/206/87 113/205/87
f 112/217/91 127/218/91 122/219/91 108/220/91
f 108/221/92 122/222/92 125/223/92 109/224/92
f 106/207/93 118/225/93 127/226/93 112/227/93
f 107/228/87 111/216/87 113/205/87 109/229/87
f 109/230/94 125/231/94 120/232/94 107/233/94
f 109/229/87 113/205/87 112/208/87 108/234/87
f 110/206/95 123/235/95 118/225/95 106/207/95
f 107/233/96 120/232/96 129/236/96 111/237/96
f 128/238/97 121/239/97 122/219/97 127/218/97
f 124/209/98 117/210/98 118/225/98 123/235/98
f 126/240/99 119/241/99 120/232/99 125/231/99
f 130/242/100 115/243/100 116/214/100 129/213/100
f 115/211/101 124/209/101 123/244/101 116/214/101
f 121/245/102 126/246/102 125/223/102 122/222/102
f 117/247/103 128/248/103 127/226/103 118/225/103
f 119/249/104 130/250/104 129/236/104 120/232/104
f 105/215/105 116/214/105 123/244/105 110/206/105
o Cube.005
v 0.821145 -1.539434 -0.821145
v 0.821145 -2.488016 -0.821145
v 0.821145 -1.539434 0.821145
v 0.821145 -2.488016 0.821145
v -0.821145 -1.539434 -0.821145
v -0.821145 -2.488016 -0.821145
v -0.821145 -1.539434 0.821145
v -0.821145 -2.488016 0.821145
v -1.080045 -2.489558 -0.004713
v 1.080045 -1.537893 -0.004713
v -1.080045 -1.537893 -0.004713
v 1.080045 -2.489558 -0.004713
v 0.000000 -2.489558 -1.079403
v 0.000000 -1.537893 1.080686
v 0.000000 -2.489558 1.080686
v 0.000000 -1.537893 -1.079403
v 0.000000 -2.488016 -0.004071
v 0.000000 -1.539434 -0.004071
vn -0.0000 1.0000 -0.0000
vn -0.3014 -0.0000 0.9535
vn -0.9532 -0.0000 -0.3023
vn -0.0000 -1.0000 -0.0000
vn 0.9542 -0.0000 0.2991
vn 0.3000 -0.0000 -0.9539
vn 0.9532 -0.0000 -0.3023
vn -0.9542 -0.0000 0.2991
vn -0.3000 -0.0000 -0.9539
vn 0.3014 -0.0000 0.9535
vt 0.208241 0.541369
vt 0.249816 0.541369
vt 0.249816 0.583150
vt 0.208241 0.583150
vt 0.083517 0.624724
vt 0.166667 0.624724
vt 0.166667 0.666299
vt 0.083517 0.666299
vt 0.083517 0.375482
vt 0.166667 0.375482
vt 0.166667 0.416850
vt 0.083517 0.416850
vt 0.041942 0.541369
vt 0.083517 0.541369
vt 0.083517 0.583150
vt 0.041942 0.583150
vt 0.166667 0.541369
vt 0.166667 0.583150
vt 0.083517 0.458425
vt 0.166667 0.458425
vt 0.166667 0.500000
vt 0.083517 0.500000
vt 0.041942 0.500000
vt 0.083517 0.333701
vt 0.166667 0.333701
vt 0.208241 0.500000
vt 0.249816 0.500000
vt 0.000367 0.500000
vt 0.000367 0.541369
vt 0.000367 0.583150
s 0
f 148/251/106 141/252/106 137/253/106 144/254/106
f 145/255/107 144/256/107 137/257/107 138/258/107
f 139/259/108 141/260/108 135/261/108 136/262/108
f 147/263/109 142/264/109 134/265/109 145/266/109
f 142/264/110 140/267/110 133/268/110 134/265/110
f 143/269/111 146/270/111 131/271/111 132/272/111
f 132/272/112 131/271/112 140/267/112 142/264/112
f 143/273/109 132/272/109 142/264/109 147/263/109
f 138/274/113 137/275/113 141/260/113 139/259/113
f 146/276/106 135/277/106 141/252/106 148/251/106
f 131/271/106 146/276/106 148/251/106 140/267/106
f 136/278/109 143/273/109 147/263/109 139/279/109
f 136/262/114 135/261/114 146/270/114 143/269/114
f 139/279/109 147/263/109 145/266/109 138/280/109
f 134/265/115 133/268/115 144/256/115 145/255/115
f 140/267/106 148/251/106 144/254/106 133/268/106
o Cube.006
v 0.571699 -2.040104 -0.571700
v 0.571699 -2.040104 0.571699
v -0.571699 -2.040104 -0.571700
v -0.571699 -2.040104 0.571699
v 0.751951 -2.039031 -0.003281
v -0.751951 -2.039031 -0.003281
v 0.000000 -2.039031 0.752398
v 0.000000 -2.039031 -0.751504
v 0.000000 -2.700527 -0.002835
v 0.000000 -2.040104 -0.002835
v 0.520574 -2.700809 -0.520421
v 0.571699 -2.663413 -0.571700
v 0.520380 -2.700807 0.520532
v 0.571699 -2.663413 0.571699
v -0.520574 -2.700809 -0.520421
v -0.571699 -2.663413 -0.571700
v -0.520380 -2.700807 0.520532
v -0.571699 -2.663413 0.571699
v -0.751951 -2.664486 -0.003281
v -0.684577 -2.701504 -0.003241
v 0.751951 -2.664486 -0.003281
v 0.684577 -2.701504 -0.003241
v 0.000000 -2.664486 -0.751504
v 0.000000 -2.701504 -0.684146
v 0.000000 -2.664486 0.752398
v 0.000000 -2.701505 0.685009
vn -0.0000 1.0000 -0.0000
vn 0.0003 -1.0000 0.0003
vn 0.9542 -0.0000 0.2991
vn -0.3000 -0.0000 -0.9539
vn 0.3014 -0.0000 0.9535
vn -0.0003 -1.0000 0.0003
vn 0.3000 -0.0000 -0.9539
vn -0.3014 -0.0000 0.9535
vn 0.0003 -1.0000 -0.0003
vn -0.9532 -0.0000 -0.3023
vn -0.9542 -0.0000 0.2991
vn -0.0003 -1.0000 -0.0003
vn -0.4775 -0.8655 0.1511
vn -0.1516 -0.8654 -0.4775
vn 0.1523 -0.8655 0.4773
vn 0.4773 -0.8654 -0.1528
vn -0.4773 -0.8654 -0.1528
vn 0.4775 -0.8655 0.1511
vn 0.1516 -0.8654 -0.4775
vn -0.1523 -0.8655 0.4773
vn 0.9532 -0.0000 -0.3023
vt 0.333495 0.708609
vt 0.333495 0.667034
vt 0.375275 0.667034
vt 0.375275 0.708609
vt 0.296848 0.911764
vt 0.295848 0.874908
vt 0.333495 0.874908
vt 0.333495 0.912758
vt 0.333495 0.828676
vt 0.333495 0.750184
vt 0.375275 0.750184
vt 0.375275 0.828661
vt 0.750934 0.580308
vt 0.829410 0.580308
vt 0.829410 0.621882
vt 0.750918 0.621882
vt 0.416850 0.750184
vt 0.416850 0.828676
vt 0.296848 0.838052
vt 0.333495 0.837058
vt 0.250551 0.828676
vt 0.250551 0.750184
vt 0.292126 0.750184
vt 0.292126 0.828661
vt 0.458425 0.750184
vt 0.458425 0.828661
vt 0.292126 0.708609
vt 0.292126 0.667034
vt 0.754643 0.622617
vt 0.792493 0.622617
vt 0.792493 0.660670
vt 0.755638 0.659681
vt 0.750918 0.538939
vt 0.829410 0.538939
vt 0.750934 0.497158
vt 0.829410 0.497158
vt 0.333495 0.837058
vt 0.370558 0.838053
vt 0.371547 0.874908
vt 0.750918 0.664398
vt 0.750918 0.622631
vt 0.292126 0.916483
vt 0.292126 0.874922
vt 0.375275 0.833333
vt 0.375275 0.874894
vt 0.333481 0.916483
vt 0.292126 0.874894
vt 0.292126 0.833333
vt 0.792479 0.664398
s 0
f 158/281/116 154/282/116 152/283/116 155/284/116
f 163/285/117 172/286/117 157/287/117 168/288/117
f 169/289/118 153/290/118 150/291/118 162/292/118
f 164/293/119 151/294/119 156/295/119 171/296/119
f 162/292/120 150/291/120 155/297/120 173/298/120
f 172/286/121 159/299/121 170/300/121 157/287/121
f 171/301/122 156/302/122 149/303/122 160/304/122
f 173/298/123 155/297/123 152/305/123 166/306/123
f 156/307/116 151/308/116 154/282/116 158/281/116
f 149/303/116 156/307/116 158/281/116 153/290/116
f 168/309/124 157/310/124 174/311/124 165/312/124
f 167/313/125 154/314/125 151/294/125 164/293/125
f 166/315/126 152/316/126 154/314/126 167/313/126
f 157/287/127 170/317/127 161/318/127 174/319/127
f 153/290/116 158/281/116 155/284/116 150/291/116
f 168/309/128 165/312/128 166/320/128 167/321/128
f 172/286/129 163/285/129 164/322/129 171/323/129
f 174/319/130 161/318/130 162/324/130 173/325/130
f 170/300/131 159/299/131 160/304/131 169/289/131
f 163/285/132 168/288/132 167/326/132 164/322/132
f 161/318/133 170/317/133 169/289/133 162/292/133
f 159/299/134 172/286/134 171/327/134 160/328/134
f 165/312/135 174/311/135 173/329/135 166/320/135
f 160/304/136 149/303/136 153/290/136 169/289/136
o Cube.007
v 1.445705 5.893132 -1.445705
v 1.445705 5.571047 -1.445705
v 1.445705 5.893132 1.445704
v 1.445705 5.571047 1.445704
v -1.445705 5.893132 -1.445705
v -1.445705 5.571047 -1.445705
v -1.445705 5.893132 1.445704
v -1.445705 5.571047 1.445704
v -1.901522 5.570524 -0.008298
v 1.901522 5.893655 -0.008298
v -1.901522 5.893655 -0.008298
v 1.901522 5.570524 -0.008298
v 0.000000 5.570524 -1.900392
v 0.000000 5.893655 1.902652
v 0.000000 5.570524 1.902652
v 0.000000 5.893655 -1.900392
v 0.000000 5.571047 -0.007168
v 0.000000 5.893132 -0.007168
vn -0.0000 1.0000 -0.0000
vn -0.3014 -0.0000 0.9535
vn -0.9532 -0.0000 -0.3023
vn -0.0000 -1.0000 -0.0000
vn 0.9542 -0.0000 0.2991
vn 0.3000 -0.0000 -0.9539
vn 0.9532 -0.0000 -0.3023
vn -0.9542 -0.0000 0.2991
vn -0.3000 -0.0000 -0.9539
vn 0.3014 -0.0000 0.9535
vt 0.458425 0.541369
vt 0.500000 0.541369
vt 0.500000 0.583150
vt 0.458425 0.583150
vt 0.333701 0.624724
vt 0.416850 0.624724
vt 0.416850 0.666299
vt 0.333701 0.666299
vt 0.333701 0.375482
vt 0.416850 0.375482
vt 0.416850 0.416850
vt 0.333701 0.416850
vt 0.292126 0.541369
vt 0.333701 0.541369
vt 0.333701 0.583150
vt 0.292126 0.583150
vt 0.416850 0.541369
vt 0.416850 0.583150
vt 0.333701 0.458425
vt 0.416850 0.458425
vt 0.416850 0.500000
vt 0.333701 0.500000
vt 0.292126 0.500000
vt 0.333701 0.333701
vt 0.416850 0.333701
vt 0.458425 0.500000
vt 0.500000 0.500000
vt 0.250551 0.500000
vt 0.250551 0.541369
vt 0.250551 0.583150
s 0
f 192/330/137 185/331/137 181/332/137 188/333/137
f 189/334/138 188/335/138 181/336/138 182/337/138
f 183/338/139 185/339/139 179/340/139 180/341/139
f 191/342/140 186/343/140 178/344/140 189/345/140
f 186/343/141 184/346/141 177/347/141 178/344/141
f 187/348/142 190/349/142 175/350/142 176/351/142
f 176/351/143 175/350/143 184/346/143 186/343/143
f 187/352/140 176/351/140 186/343/140 191/342/140
f 182/353/144 181/354/144 185/339/144 183/338/144
f 190/355/137 179/356/137 185/331/137 192/330/137
f 175/350/137 190/355/137 192/330/137 184/346/137
f 180/357/140 187/352/140 191/342/140 183/358/140
f 180/341/145 179/340/145 190/349/145 187/348/145
f 183/358/140 191/342/140 189/345/140 182/359/140
f 178/344/146 177/347/146 188/335/146 189/334/146
f 184/346/137 192/330/137 188/333/137 177/347/137
o Cube.008
v 1.445705 -1.715025 -1.445705
v 1.445705 -2.037109 -1.445705
v 1.445705 -1.715025 1.445704
v 1.445705 -2.037109 1.445704
v -1.445705 -1.715025 -1.445705
v -1.445705 -2.037109 -1.445705
v -1.445705 -1.715025 1.445704
v -1.445705 -2.037109 1.445704
v -1.901522 -2.037632 -0.008298
v 1.901522 -1.714502 -0.008298
v -1.901522 -1.714502 -0.008298
v 1.901522 -2.037632 -0.008298
v 0.000000 -2.037632 -1.900392
v 0.000000 -1.714502 1.902652
v 0.000000 -2.037632 1.902652
v 0.000000 -1.714502 -1.900392
v 0.000000 -2.037109 -0.007168
v 0.000000 -1.715025 -0.007168
vn -0.0000 1.0000 -0.0000
vn -0.3014 -0.0000 0.9535
vn -0.9532 -0.0000 -0.3023
vn -0.0000 -1.0000 -0.0000
vn 0.9542 -0.0000 0.2991
vn 0.3000 -0.0000 -0.9539
vn 0.9532 -0.0000 -0.3023
vn -0.9542 -0.0000 0.2991
vn -0.3000 -0.0000 -0.9539
vn 0.3014 -0.0000 0.9535
vt 0.708609 0.208035
vt 0.750184 0.208035
vt 0.750184 0.249816
vt 0.708609 0.249816
vt 0.583884 0.291391
vt 0.667034 0.291391
vt 0.667034 0.332966
vt 0.583884 0.332966
vt 0.583884 0.042148
vt 0.667034 0.042148
vt 0.667034 0.083517
vt 0.583884 0.083517
vt 0.542310 0.208035
vt 0.583884 0.208035
vt 0.583884 0.249816
vt 0.542310 0.249816
vt 0.667034 0.208035
vt 0.667034 0.249816
vt 0.583884 0.125092
vt 0.667034 0.125092
vt 0.667034 0.166667
vt 0.583884 0.166667
vt 0.542310 0.166667
vt 0.583884 0.000367
vt 0.667034 0.000367
vt 0.708609 0.166667
vt 0.750184 0.166667
vt 0.500735 0.166667
vt 0.500735 0.208035
vt 0.500735 0.249816
s 0
f 210/360/147 203/361/147 199/362/147 206/363/147
f 207/364/148 206/365/148 199/366/148 200/367/148
f 201/368/149 203/369/149 197/370/149 198/371/149
f 209/372/150 204/373/150 196/374/150 207/375/150
f 204/373/151 202/376/151 195/377/151 196/374/151
f 205/378/152 208/379/152 193/380/152 194/381/152
f 194/381/153 193/380/153 202/376/153 204/373/153
f 205/382/150 194/381/150 204/373/150 209/372/150
f 200/383/154 199/384/154 203/369/154 201/368/154
f 208/385/147 197/386/147 203/361/147 210/360/147
f 193/380/147 208/385/147 210/360/147 202/376/147
f 198/387/150 205/382/150 209/372/150 201/388/150
f 198/371/155 197/370/155 208/379/155 205/378/155
f 201/388/150 209/372/150 207/375/150 200/389/150
f 196/374/156 195/377/156 206/365/156 207/364/156
f 202/376/147 210/360/147 206/363/147 195/377/147
o Cube.009
v 1.784929 4.786694 -1.784929
v 1.784929 4.556884 -1.784929
v 1.784929 4.786694 1.784929
v 1.784929 4.556884 1.784929
v -1.784929 4.786694 -1.784929
v -1.784929 4.556884 -1.784929
v -1.784929 4.786694 1.784929
v -1.784929 4.556884 1.784929
v -2.347701 4.556510 -0.010245
v 2.347701 4.787067 -0.010245
v -2.347701 4.787067 -0.010245
v 2.347701 4.556510 -0.010245
v 0.000000 4.556510 -2.346306
v 0.000000 4.787067 2.349096
v 0.000000 4.556510 2.349096
v 0.000000 4.787067 -2.346306
v 0.000000 4.556884 -0.008849
v 0.000000 4.786694 -0.008849
vn -0.0000 1.0000 -0.0000
vn -0.3014 -0.0000 0.9535
vn -0.9532 -0.0000 -0.3023
vn -0.0000 -1.0000 -0.0000
vn 0.9542 -0.0000 0.2991
vn 0.3000 -0.0000 -0.9539
vn 0.9532 -0.0000 -0.3023
vn -0.9542 -0.0000 0.2991
vn -0.3000 -0.0000 -0.9539
vn 0.3014 -0.0000 0.9535
vt 0.708609 0.541369
vt 0.750184 0.541369
vt 0.750184 0.583150
vt 0.708609 0.583150
vt 0.583884 0.624724
vt 0.667034 0.624724
vt 0.667034 0.666299
vt 0.583884 0.666299
vt 0.583884 0.375482
vt 0.667034 0.375482
vt 0.667034 0.416850
vt 0.583884 0.416850
vt 0.542310 0.541369
vt 0.583884 0.541369
vt 0.583884 0.583150
vt 0.542310 0.583150
vt 0.667034 0.541369
vt 0.667034 0.583150
vt 0.583884 0.458425
vt 0.667034 0.458425
vt 0.667034 0.500000
vt 0.583884 0.500000
vt 0.542310 0.500000
vt 0.583884 0.333701
vt 0.667034 0.333701
vt 0.708609 0.500000
vt 0.750184 0.500000
vt 0.500735 0.500000
vt 0.500735 0.541369
vt 0.500735 0.583150
s 0
f 228/390/157 221/391/157 217/392/157 224/393/157
f 225/394/158 224/395/158 217/396/158 218/397/158
f 219/398/159 221/399/159 215/400/159 216/401/159
f 227/402/160 222/403/160 214/404/160 225/405/160
f 222/403/161 220/406/161 213/407/161 214/404/161
f 223/408/162 226/409/162 211/410/162 212/411/162
f 212/411/163 211/410/163 220/406/163 222/403/163
f 223/412/160 212/411/160 222/403/160 227/402/160
f 218/413/164 217/414/164 221/399/164 219/398/164
f 226/415/157 215/416/157 221/391/157 228/390/157
f 211/410/157 226/415/157 228/390/157 220/406/157
f 216/417/160 223/412/160 227/402/160 219/418/160
f 216/401/165 215/400/165 226/409/165 223/408/165
f 219/418/160 227/402/160 225/405/160 218/419/160
f 214/404/166 213/407/166 224/395/166 225/394/166
f 220/406/157 228/390/157 224/393/157 213/407/157
o Cube.010
v 1.784929 -1.243899 -1.784929
v 1.784929 -1.473709 -1.784929
v 1.784929 -1.243899 1.784929
v 1.784929 -1.473709 1.784929
v -1.784929 -1.243899 -1.784929
v -1.784929 -1.473709 -1.784929
v -1.784929 -1.243899 1.784929
v -1.784929 -1.473709 1.784929
v -2.347701 -1.474083 -0.010245
v 2.347701 -1.243526 -0.010245
v -2.347701 -1.243526 -0.010245
v 2.347701 -1.474083 -0.010245
v 0.000000 -1.474083 -2.346306
v 0.000000 -1.243526 2.349096
v 0.000000 -1.474083 2.349096
v 0.000000 -1.243526 -2.346306
v 0.000000 -1.473709 -0.008849
v 0.000000 -1.243899 -0.008849
vn -0.0000 1.0000 -0.0000
vn -0.3014 -0.0000 0.9535
vn -0.9532 -0.0000 -0.3023
vn -0.0000 -1.0000 -0.0000
vn 0.9542 -0.0000 0.2991
vn 0.3000 -0.0000 -0.9539
vn 0.9532 -0.0000 -0.3023
vn -0.9542 -0.0000 0.2991
vn -0.3000 -0.0000 -0.9539
vn 0.3014 -0.0000 0.9535
vt 0.208241 0.874702
vt 0.249816 0.874702
vt 0.249816 0.916483
vt 0.208241 0.916483
vt 0.083517 0.958058
vt 0.166667 0.958058
vt 0.166667 0.999633
vt 0.083517 0.999633
vt 0.083517 0.708815
vt 0.166667 0.708815
vt 0.166667 0.750184
vt 0.083517 0.750184
vt 0.041942 0.874702
vt 0.083517 0.874702
vt 0.083517 0.916483
vt 0.041942 0.916483
vt 0.166667 0.874702
vt 0.166667 0.916483
vt 0.083517 0.791759
vt 0.166667 0.791759
vt 0.166667 0.833333
vt 0.083517 0.833333
vt 0.041942 0.833333
vt 0.083517 0.667034
vt 0.166667 0.667034
vt 0.208241 0.833333
vt 0.249816 0.833333
vt 0.000367 0.833333
vt 0.000367 0.874702
vt 0.000367 0.916483
s 0
f 246/420/167 239/421/167 235/422/167 242/423/167
f 243/424/168 242/425/168 235/426/168 236/427/168
f 237/428/169 239/429/169 233/430/169 234/431/169
f 245/432/170 240/433/170 232/434/170 243/435/170
f 240/433/171 238/436/171 231/437/171 232/434/171
f 241/438/172 244/439/172 229/440/172 230/441/172
f 230/441/173 229/440/173 238/436/173 240/433/173
f 241/442/170 230/441/170 240/433/170 245/432/170
f 236/443/174 235/444/174 239/429/174 237/428/174
f 244/445/167 233/446/167 239/421/167 246/420/167
f 229/440/167 244/445/167 246/420/167 238/436/167
f 234/447/170 241/442/170 245/432/170 237/448/170
f 234/431/175 233/430/175 244/439/175 241/438/175
f 237/448/170 245/432/170 243/435/170 236/449/170
f 232/434/176 231/437/176 242/425/176 243/424/176
f 238/436/167 246/420/167 242/423/167 231/437/167
